<svg width="104" height="104" viewBox="0 0 104 104" fill="none" xmlns="http://www.w3.org/2000/svg">
<path fill-rule="evenodd" clip-rule="evenodd" d="M52 80.3636C67.6648 80.3636 80.3636 67.6648 80.3636 52C80.3636 36.3352 67.6648 23.6364 52 23.6364C36.3352 23.6364 23.6364 36.3352 23.6364 52C23.6364 67.6648 36.3352 80.3636 52 80.3636ZM52 70.9091C62.443 70.9091 70.9091 62.443 70.9091 52C70.9091 41.5568 62.443 33.0909 52 33.0909C41.5568 33.0909 33.0909 41.5568 33.0909 52C33.0909 62.443 41.5568 70.9091 52 70.9091Z" fill="white"/>
<path d="M80.3636 18.9091C77.7528 18.9091 75.6364 21.0256 75.6364 23.6364C75.6364 26.2471 77.7528 28.3636 80.3636 28.3636C82.9745 28.3636 85.0909 26.2471 85.0909 23.6364C85.0909 21.0256 82.9745 18.9091 80.3636 18.9091Z" fill="white"/>
<path fill-rule="evenodd" clip-rule="evenodd" d="M3.09145 15.4868C0 21.5541 0 29.4967 0 45.3818V58.6182C0 74.5032 0 82.446 3.09145 88.513C5.81076 93.8501 10.1498 98.1892 15.4868 100.908C21.5541 104 29.4967 104 45.3818 104H58.6182C74.5032 104 82.446 104 88.513 100.908C93.8501 98.1892 98.1892 93.8501 100.908 88.513C104 82.446 104 74.5032 104 58.6182V45.3818C104 29.4967 104 21.5541 100.908 15.4868C98.1892 10.1498 93.8501 5.81076 88.513 3.09145C82.446 0 74.5032 0 58.6182 0H45.3818C29.4967 0 21.5541 0 15.4868 3.09145C10.1498 5.81076 5.81076 10.1498 3.09145 15.4868ZM58.6182 9.45455H45.3818C37.2832 9.45455 31.7779 9.46192 27.5226 9.80956C23.3775 10.1482 21.2578 10.7621 19.7791 11.5155C16.2211 13.3284 13.3284 16.2211 11.5155 19.7791C10.7621 21.2578 10.1482 23.3775 9.80956 27.5226C9.46192 31.7779 9.45455 37.2832 9.45455 45.3818V58.6182C9.45455 66.7169 9.46192 72.2219 9.80956 76.4773C10.1482 80.6227 10.7621 82.7424 11.5155 84.2211C13.3284 87.7788 16.2211 90.6714 19.7791 92.4844C21.2578 93.2379 23.3775 93.852 27.5226 94.1904C31.7779 94.5379 37.2832 94.5455 45.3818 94.5455H58.6182C66.7169 94.5455 72.2219 94.5379 76.4773 94.1904C80.6227 93.852 82.7424 93.2379 84.2211 92.4844C87.7788 90.6714 90.6714 87.7788 92.4844 84.2211C93.2379 82.7424 93.852 80.6227 94.1904 76.4773C94.5379 72.2219 94.5455 66.7169 94.5455 58.6182V45.3818C94.5455 37.2832 94.5379 31.7779 94.1904 27.5226C93.852 23.3775 93.2379 21.2578 92.4844 19.7791C90.6714 16.2211 87.7788 13.3284 84.2211 11.5155C82.7424 10.7621 80.6227 10.1482 76.4773 9.80956C72.2219 9.46192 66.7169 9.45455 58.6182 9.45455Z" fill="white"/>
</svg>
