<svg width="74" height="85" viewBox="0 0 74 85" fill="none" xmlns="http://www.w3.org/2000/svg">
<path d="M38.8655 0.0708667C43.5143 2.69278e-07 48.129 0.0368505 52.7409 0C52.8943 5.75719 55.2343 10.9389 58.9574 14.7771L58.9517 14.7714C62.9587 18.3742 68.1726 20.71 73.9205 21.1069L74 21.1125V35.3878C68.5702 35.2518 63.4642 34.0017 58.8608 31.853L59.0937 31.9494C56.8672 30.8807 54.9844 29.7837 53.1953 28.5592L53.343 28.6555C53.3089 38.9992 53.3771 49.3429 53.272 59.6497C52.9795 64.9023 51.2301 69.6929 48.4244 73.6926L48.4812 73.6047C43.7898 80.3115 36.1903 84.7137 27.5487 84.9745H27.509C27.1597 84.9915 26.7479 85 26.3333 85C21.4203 85 16.8283 83.6337 12.915 81.2611L13.0286 81.3263C5.90628 77.0488 0.993353 69.7297 0.0846039 61.2172L0.0732446 61.101C0.0022486 59.3294 -0.0318297 57.5577 0.0391663 55.8229C1.43069 42.2761 12.8014 31.7963 26.6229 31.7963C28.1763 31.7963 29.6985 31.9296 31.178 32.1819L31.019 32.1592C31.09 37.4005 30.877 42.6446 30.877 47.8858C29.6758 47.4521 28.2899 47.1999 26.8444 47.1999C21.5396 47.1999 17.0271 50.5844 15.3573 55.3098L15.3317 55.3949C14.954 56.6052 14.7353 57.9971 14.7353 59.4371C14.7353 60.021 14.7723 60.5993 14.8404 61.1662L14.8347 61.0982C15.7776 66.8979 20.7587 71.2746 26.7649 71.2746C26.9381 71.2746 27.1085 71.2718 27.2789 71.2633H27.2534C31.4081 71.1385 35.0147 68.9077 37.0537 65.611L37.0821 65.5599C37.8403 64.5054 38.36 63.2298 38.5332 61.8437L38.5361 61.804C38.891 55.4629 38.749 49.1586 38.7831 42.8175C38.8172 28.5422 38.749 14.3008 38.8541 0.0623626L38.8655 0.0708667Z" fill="white"/>
</svg>
