<svg width="115" height="83" viewBox="0 0 115 83" fill="none" xmlns="http://www.w3.org/2000/svg">
<path fill-rule="evenodd" clip-rule="evenodd" d="M87.8238 78.9849C100.152 79.4342 110.519 69.8129 111 57.4739V25.5261C110.519 13.1875 100.152 3.56588 87.8238 4.01511H27.1762C14.8478 3.56588 4.48139 13.1875 4 25.5261V57.4739C4.48139 69.8129 14.8478 79.4342 27.1762 78.9849H87.8238Z" stroke="white" stroke-width="8" stroke-linecap="round" stroke-linejoin="round"/>
<path fill-rule="evenodd" clip-rule="evenodd" d="M54.8678 26.3723L71.7792 37.8746C72.8748 38.5151 73.5484 39.6894 73.5484 40.9591C73.5484 42.2293 72.8748 43.4036 71.7792 44.0436L54.8678 56.6278C51.6578 58.8073 46.8 56.9491 46.8 53.5433V29.4461C46.8 26.0564 51.6632 24.1928 54.8678 26.3723Z" stroke="white" stroke-width="8" stroke-linecap="round" stroke-linejoin="round"/>
</svg>
