<svg width="663" height="783" viewBox="0 0 663 783" fill="none" xmlns="http://www.w3.org/2000/svg">
<mask id="path-1-outside-1_89_3427" maskUnits="userSpaceOnUse" x="-8.95392" y="-8.9997" width="680.3" height="800.935" fill="black">
<rect fill="white" x="-8.95392" y="-8.9997" width="680.3" height="800.935"/>
<path fill-rule="evenodd" clip-rule="evenodd" d="M218.592 79.1106C167.403 100.42 123.361 140.322 97.5138 188.805C68.8934 242.49 61.1277 301.639 74.8033 361.783C77.602 374.09 86.6398 399.638 92.1542 410.831C101.81 430.428 114.554 449.821 127.884 465.2L130.977 468.769L133.736 463.628C153.843 426.155 183.947 398.01 221.778 381.316C252.505 367.756 272.422 353.793 291.293 332.58C342.424 275.106 352.155 191.966 315.664 124.365C306.219 106.867 291.435 87.805 281.702 80.5746C277.242 77.2619 269.673 73.5822 264.525 72.2241C256.134 70.0112 246.285 70.0699 237.22 72.3869C231.214 73.9221 230.023 74.3519 218.592 79.1106ZM309.519 66.3365C309.707 66.4267 313.311 67.5484 317.527 68.8282C328.566 72.1793 337.339 75.6894 349.799 81.74C394.609 103.5 429.569 138.396 452.982 184.732C457.83 194.326 467.414 220.999 469.705 231.27C475.726 258.268 477.168 281.436 474.47 307.834C474.085 311.596 473.595 314.591 473.381 314.49C473.167 314.389 469.912 306.315 466.15 296.548C458.973 277.92 449.895 255.147 444.283 241.698C441.233 234.387 440.79 233.593 438.851 231.974C436.657 230.141 433.75 229.229 430.733 229.426C428.429 229.577 378.04 248.774 374.705 250.771C372.932 251.832 371.831 252.981 370.877 254.765C368.274 259.63 367.901 257.96 377.965 286.532C382.92 300.6 391.67 324.408 397.409 339.437C403.149 354.467 412.463 379.216 418.107 394.436L428.37 422.107L427.224 423.426C426.594 424.151 424.542 426.575 422.664 428.812L419.248 432.88L417.53 429.152C416.585 427.102 409.245 407.417 401.219 385.408C385.429 342.114 386.084 343.619 382.176 341.625C378.021 339.505 377.905 339.532 350.793 348.828C323.855 358.064 323.173 358.37 321.078 362.154C319.134 365.666 319.201 367.124 321.779 377.554C331.31 416.118 332.945 436.176 327.865 452.206C322.679 468.567 305.566 485.346 283.117 496.083C275.388 499.779 259.726 504.845 249.901 506.827C243.186 508.182 241.087 508.366 235.935 508.055C213.052 506.677 185.074 500.129 164.285 491.287C161.476 490.092 159.038 489.165 158.866 489.226C158.404 489.393 165.664 494.638 173.183 499.568C186.959 508.601 202.433 516.439 218.952 522.751C245.177 532.772 260.179 541.71 278.697 558.349C290.036 568.537 299.87 579.37 309.154 591.9L313.865 598.258L391.32 570.586L468.775 542.914L468.606 541.702C468.513 541.036 467.984 537.386 467.429 533.591C465.709 521.819 465.106 505.744 465.986 495.144C466.385 490.339 468.843 479.679 471.712 470.32C475.832 456.875 479.825 448.472 488.368 435.265C495.041 424.949 500.099 415.759 505.961 403.305C527.29 357.989 534.772 310.276 527.84 263.784C521.2 219.25 501.641 180.172 467.707 143.643C425.041 97.7131 371.209 70.1278 316.933 66.3805C311.99 66.0395 308.864 66.021 309.519 66.3365ZM212.118 106.815C167.801 129.695 132.989 165.49 112.085 209.677C80.8824 275.633 83.7395 351.713 119.8 415.088C123.565 421.706 127.867 428.421 128.546 428.741C128.732 428.829 130.137 427.199 131.669 425.118C138.475 415.87 150.675 402.66 159.873 394.578C177.064 379.473 194.383 368.673 217.763 358.477C221.903 356.671 227.549 353.987 230.31 352.511C292.032 319.518 325.307 250.227 312.428 181.516C307.614 155.829 297.476 133.483 281.141 112.551C273.582 102.865 268.672 98.1168 263.878 95.8563C261.821 94.8864 259.709 94.2468 259.184 94.4351C257.775 94.9412 247.406 106.148 240.441 114.692C219.857 139.942 203.827 165.913 187.559 200.368C176.148 224.535 168.488 244.436 160.567 270.492C156.894 282.573 151.053 305.618 148.621 317.623C147.857 321.395 147.111 324.425 146.964 324.356C146.504 324.138 146.706 308.415 147.301 298.177C149.502 260.312 157.24 222.431 169.844 187.819C173.705 177.216 183.814 155.715 189.374 146.279C197.128 133.12 208.918 116.063 217.48 105.617C218.641 104.201 219.37 103.137 219.101 103.252C218.832 103.368 215.69 104.971 212.118 106.815ZM399.82 264.697L394.498 266.79L402.73 289.663C407.258 302.243 414.769 322.483 419.421 334.64C424.073 346.798 431.376 365.984 435.651 377.276C439.925 388.569 443.574 397.683 443.759 397.529C443.944 397.376 446.121 393.815 448.596 389.616C455.483 377.934 462.61 361.68 463.346 355.974C463.664 353.505 463.637 353.422 453.711 326.846C444.68 302.666 441.037 293.285 429.4 264.247L425.689 254.986L415.416 258.795C409.765 260.89 402.748 263.546 399.82 264.697ZM344.856 377.871C356.644 426.842 355.723 452.749 341.393 475.238C337.88 480.751 332.595 487.343 327.825 492.16L324.821 495.193L335.744 490.998C359.51 481.871 374.814 472.851 391.233 458.293C395.947 454.113 400.004 450.438 400.249 450.127C400.539 449.759 399.922 447.259 398.492 443.006C395.351 433.663 370.62 366.355 370.271 366.199C370.11 366.127 364.147 367.978 357.018 370.312L344.057 374.554L344.856 377.871ZM329.48 612.915C325.013 616.588 324.203 621.153 326.927 627.314C328.714 631.358 331.385 633.554 335.144 634.07C337.517 634.396 337.659 634.348 405.632 610.093C481.647 582.969 476.359 585.144 478.41 580.153C480.072 576.109 479.039 571.206 475.564 566.641C474.161 564.799 469.91 563.077 467.251 563.274C463.934 563.52 331.536 611.225 329.48 612.915ZM350.092 649.363C345.584 652.302 344.277 657.142 346.399 663.05C348.389 668.592 352.189 671.472 357.106 671.161C358.528 671.072 378.184 664.147 421.487 648.48L483.822 625.928L485.408 623.663C487.383 620.844 487.855 617.566 486.818 613.858C485.735 609.98 483.804 607.378 480.83 605.787C476.193 603.305 479.98 602.159 412.156 626.58C378.843 638.575 350.913 648.827 350.092 649.363ZM384.215 681.823C381.473 684.244 380.193 689.504 381.476 693.078C383.675 699.202 396.309 706.496 408.127 708.466C428.26 711.821 450.093 704.741 464.538 690.174C466.902 687.79 469.908 684.295 471.217 682.406C476.264 675.127 479.83 664.904 478.979 660.156C478.2 655.814 473.901 652.119 469.179 651.732C466.981 651.552 464.467 652.397 426.066 666.209C400.268 675.488 384.893 681.224 384.215 681.823Z"/>
</mask>
<path fill-rule="evenodd" clip-rule="evenodd" d="M218.592 79.1106C167.403 100.42 123.361 140.322 97.5138 188.805C68.8934 242.49 61.1277 301.639 74.8033 361.783C77.602 374.09 86.6398 399.638 92.1542 410.831C101.81 430.428 114.554 449.821 127.884 465.2L130.977 468.769L133.736 463.628C153.843 426.155 183.947 398.01 221.778 381.316C252.505 367.756 272.422 353.793 291.293 332.58C342.424 275.106 352.155 191.966 315.664 124.365C306.219 106.867 291.435 87.805 281.702 80.5746C277.242 77.2619 269.673 73.5822 264.525 72.2241C256.134 70.0112 246.285 70.0699 237.22 72.3869C231.214 73.9221 230.023 74.3519 218.592 79.1106ZM309.519 66.3365C309.707 66.4267 313.311 67.5484 317.527 68.8282C328.566 72.1793 337.339 75.6894 349.799 81.74C394.609 103.5 429.569 138.396 452.982 184.732C457.83 194.326 467.414 220.999 469.705 231.27C475.726 258.268 477.168 281.436 474.47 307.834C474.085 311.596 473.595 314.591 473.381 314.49C473.167 314.389 469.912 306.315 466.15 296.548C458.973 277.92 449.895 255.147 444.283 241.698C441.233 234.387 440.79 233.593 438.851 231.974C436.657 230.141 433.75 229.229 430.733 229.426C428.429 229.577 378.04 248.774 374.705 250.771C372.932 251.832 371.831 252.981 370.877 254.765C368.274 259.63 367.901 257.96 377.965 286.532C382.92 300.6 391.67 324.408 397.409 339.437C403.149 354.467 412.463 379.216 418.107 394.436L428.37 422.107L427.224 423.426C426.594 424.151 424.542 426.575 422.664 428.812L419.248 432.88L417.53 429.152C416.585 427.102 409.245 407.417 401.219 385.408C385.429 342.114 386.084 343.619 382.176 341.625C378.021 339.505 377.905 339.532 350.793 348.828C323.855 358.064 323.173 358.37 321.078 362.154C319.134 365.666 319.201 367.124 321.779 377.554C331.31 416.118 332.945 436.176 327.865 452.206C322.679 468.567 305.566 485.346 283.117 496.083C275.388 499.779 259.726 504.845 249.901 506.827C243.186 508.182 241.087 508.366 235.935 508.055C213.052 506.677 185.074 500.129 164.285 491.287C161.476 490.092 159.038 489.165 158.866 489.226C158.404 489.393 165.664 494.638 173.183 499.568C186.959 508.601 202.433 516.439 218.952 522.751C245.177 532.772 260.179 541.71 278.697 558.349C290.036 568.537 299.87 579.37 309.154 591.9L313.865 598.258L391.32 570.586L468.775 542.914L468.606 541.702C468.513 541.036 467.984 537.386 467.429 533.591C465.709 521.819 465.106 505.744 465.986 495.144C466.385 490.339 468.843 479.679 471.712 470.32C475.832 456.875 479.825 448.472 488.368 435.265C495.041 424.949 500.099 415.759 505.961 403.305C527.29 357.989 534.772 310.276 527.84 263.784C521.2 219.25 501.641 180.172 467.707 143.643C425.041 97.7131 371.209 70.1278 316.933 66.3805C311.99 66.0395 308.864 66.021 309.519 66.3365ZM212.118 106.815C167.801 129.695 132.989 165.49 112.085 209.677C80.8824 275.633 83.7395 351.713 119.8 415.088C123.565 421.706 127.867 428.421 128.546 428.741C128.732 428.829 130.137 427.199 131.669 425.118C138.475 415.87 150.675 402.66 159.873 394.578C177.064 379.473 194.383 368.673 217.763 358.477C221.903 356.671 227.549 353.987 230.31 352.511C292.032 319.518 325.307 250.227 312.428 181.516C307.614 155.829 297.476 133.483 281.141 112.551C273.582 102.865 268.672 98.1168 263.878 95.8563C261.821 94.8864 259.709 94.2468 259.184 94.4351C257.775 94.9412 247.406 106.148 240.441 114.692C219.857 139.942 203.827 165.913 187.559 200.368C176.148 224.535 168.488 244.436 160.567 270.492C156.894 282.573 151.053 305.618 148.621 317.623C147.857 321.395 147.111 324.425 146.964 324.356C146.504 324.138 146.706 308.415 147.301 298.177C149.502 260.312 157.24 222.431 169.844 187.819C173.705 177.216 183.814 155.715 189.374 146.279C197.128 133.12 208.918 116.063 217.48 105.617C218.641 104.201 219.37 103.137 219.101 103.252C218.832 103.368 215.69 104.971 212.118 106.815ZM399.82 264.697L394.498 266.79L402.73 289.663C407.258 302.243 414.769 322.483 419.421 334.64C424.073 346.798 431.376 365.984 435.651 377.276C439.925 388.569 443.574 397.683 443.759 397.529C443.944 397.376 446.121 393.815 448.596 389.616C455.483 377.934 462.61 361.68 463.346 355.974C463.664 353.505 463.637 353.422 453.711 326.846C444.68 302.666 441.037 293.285 429.4 264.247L425.689 254.986L415.416 258.795C409.765 260.89 402.748 263.546 399.82 264.697ZM344.856 377.871C356.644 426.842 355.723 452.749 341.393 475.238C337.88 480.751 332.595 487.343 327.825 492.16L324.821 495.193L335.744 490.998C359.51 481.871 374.814 472.851 391.233 458.293C395.947 454.113 400.004 450.438 400.249 450.127C400.539 449.759 399.922 447.259 398.492 443.006C395.351 433.663 370.62 366.355 370.271 366.199C370.11 366.127 364.147 367.978 357.018 370.312L344.057 374.554L344.856 377.871ZM329.48 612.915C325.013 616.588 324.203 621.153 326.927 627.314C328.714 631.358 331.385 633.554 335.144 634.07C337.517 634.396 337.659 634.348 405.632 610.093C481.647 582.969 476.359 585.144 478.41 580.153C480.072 576.109 479.039 571.206 475.564 566.641C474.161 564.799 469.91 563.077 467.251 563.274C463.934 563.52 331.536 611.225 329.48 612.915ZM350.092 649.363C345.584 652.302 344.277 657.142 346.399 663.05C348.389 668.592 352.189 671.472 357.106 671.161C358.528 671.072 378.184 664.147 421.487 648.48L483.822 625.928L485.408 623.663C487.383 620.844 487.855 617.566 486.818 613.858C485.735 609.98 483.804 607.378 480.83 605.787C476.193 603.305 479.98 602.159 412.156 626.58C378.843 638.575 350.913 648.827 350.092 649.363ZM384.215 681.823C381.473 684.244 380.193 689.504 381.476 693.078C383.675 699.202 396.309 706.496 408.127 708.466C428.26 711.821 450.093 704.741 464.538 690.174C466.902 687.79 469.908 684.295 471.217 682.406C476.264 675.127 479.83 664.904 478.979 660.156C478.2 655.814 473.901 652.119 469.179 651.732C466.981 651.552 464.467 652.397 426.066 666.209C400.268 675.488 384.893 681.224 384.215 681.823Z" stroke="#F0B040" stroke-width="12.4025" mask="url(#path-1-outside-1_89_3427)"/>
<path fill-rule="evenodd" clip-rule="evenodd" d="M218.592 79.1106C167.403 100.42 123.361 140.322 97.5138 188.805C68.8934 242.49 61.1277 301.639 74.8033 361.783C77.602 374.09 86.6398 399.638 92.1542 410.831C101.81 430.428 114.554 449.821 127.884 465.2L130.977 468.769L133.736 463.628C153.843 426.155 183.947 398.01 221.778 381.316C252.505 367.756 272.422 353.793 291.293 332.58C342.424 275.106 352.155 191.966 315.664 124.365C306.219 106.867 291.435 87.805 281.702 80.5746C277.242 77.2619 269.673 73.5822 264.525 72.2241C256.134 70.0112 246.285 70.0699 237.22 72.3869C231.214 73.9221 230.023 74.3519 218.592 79.1106ZM309.519 66.3365C309.707 66.4267 313.311 67.5484 317.527 68.8282C328.566 72.1793 337.339 75.6894 349.799 81.74C394.609 103.5 429.569 138.396 452.982 184.732C457.83 194.326 467.414 220.999 469.705 231.27C475.726 258.268 477.168 281.436 474.47 307.834C474.085 311.596 473.595 314.591 473.381 314.49C473.167 314.389 469.912 306.315 466.15 296.548C458.973 277.92 449.895 255.147 444.283 241.698C441.233 234.387 440.79 233.593 438.851 231.974C436.657 230.141 433.75 229.229 430.733 229.426C428.429 229.577 378.04 248.774 374.705 250.771C372.932 251.832 371.831 252.981 370.877 254.765C368.274 259.63 367.901 257.96 377.965 286.532C382.92 300.6 391.67 324.408 397.409 339.437C403.149 354.467 412.463 379.216 418.107 394.436L428.37 422.107L427.224 423.426C426.594 424.151 424.542 426.575 422.664 428.812L419.248 432.88L417.53 429.152C416.585 427.102 409.245 407.417 401.219 385.408C385.429 342.114 386.084 343.619 382.176 341.625C378.021 339.505 377.905 339.532 350.793 348.828C323.855 358.064 323.173 358.37 321.078 362.154C319.134 365.666 319.201 367.124 321.779 377.554C331.31 416.118 332.945 436.176 327.865 452.206C322.679 468.567 305.566 485.346 283.117 496.083C275.388 499.779 259.726 504.845 249.901 506.827C243.186 508.182 241.087 508.366 235.935 508.055C213.052 506.677 185.074 500.129 164.285 491.287C161.476 490.092 159.038 489.165 158.866 489.226C158.404 489.393 165.664 494.638 173.183 499.568C186.959 508.601 202.433 516.439 218.952 522.751C245.177 532.772 260.179 541.71 278.697 558.349C290.036 568.537 299.87 579.37 309.154 591.9L313.865 598.258L391.32 570.586L468.775 542.914L468.606 541.702C468.513 541.036 467.984 537.386 467.429 533.591C465.709 521.819 465.106 505.744 465.986 495.144C466.385 490.339 468.843 479.679 471.712 470.32C475.832 456.875 479.825 448.472 488.368 435.265C495.041 424.949 500.099 415.759 505.961 403.305C527.29 357.989 534.772 310.276 527.84 263.784C521.2 219.25 501.641 180.172 467.707 143.643C425.041 97.7131 371.209 70.1278 316.933 66.3805C311.99 66.0395 308.864 66.021 309.519 66.3365ZM212.118 106.815C167.801 129.695 132.989 165.49 112.085 209.677C80.8824 275.633 83.7395 351.713 119.8 415.088C123.565 421.706 127.867 428.421 128.546 428.741C128.732 428.829 130.137 427.199 131.669 425.118C138.475 415.87 150.675 402.66 159.873 394.578C177.064 379.473 194.383 368.673 217.763 358.477C221.903 356.671 227.549 353.987 230.31 352.511C292.032 319.518 325.307 250.227 312.428 181.516C307.614 155.829 297.476 133.483 281.141 112.551C273.582 102.865 268.672 98.1168 263.878 95.8563C261.821 94.8864 259.709 94.2468 259.184 94.4351C257.775 94.9412 247.406 106.148 240.441 114.692C219.857 139.942 203.827 165.913 187.559 200.368C176.148 224.535 168.488 244.436 160.567 270.492C156.894 282.573 151.053 305.618 148.621 317.623C147.857 321.395 147.111 324.425 146.964 324.356C146.504 324.138 146.706 308.415 147.301 298.177C149.502 260.312 157.24 222.431 169.844 187.819C173.705 177.216 183.814 155.715 189.374 146.279C197.128 133.12 208.918 116.063 217.48 105.617C218.641 104.201 219.37 103.137 219.101 103.252C218.832 103.368 215.69 104.971 212.118 106.815ZM399.82 264.697L394.498 266.79L402.73 289.663C407.258 302.243 414.769 322.483 419.421 334.64C424.073 346.798 431.376 365.984 435.651 377.276C439.925 388.569 443.574 397.683 443.759 397.529C443.944 397.376 446.121 393.815 448.596 389.616C455.483 377.934 462.61 361.68 463.346 355.974C463.664 353.505 463.637 353.422 453.711 326.846C444.68 302.666 441.037 293.285 429.4 264.247L425.689 254.986L415.416 258.795C409.765 260.89 402.748 263.546 399.82 264.697ZM344.856 377.871C356.644 426.842 355.723 452.749 341.393 475.238C337.88 480.751 332.595 487.343 327.825 492.16L324.821 495.193L335.744 490.998C359.51 481.871 374.814 472.851 391.233 458.293C395.947 454.113 400.004 450.438 400.249 450.127C400.539 449.759 399.922 447.259 398.492 443.006C395.351 433.663 370.62 366.355 370.271 366.199C370.11 366.127 364.147 367.978 357.018 370.312L344.057 374.554L344.856 377.871ZM329.48 612.915C325.013 616.588 324.203 621.153 326.927 627.314C328.714 631.358 331.385 633.554 335.144 634.07C337.517 634.396 337.659 634.348 405.632 610.093C481.647 582.969 476.359 585.144 478.41 580.153C480.072 576.109 479.039 571.206 475.564 566.641C474.161 564.799 469.91 563.077 467.251 563.274C463.934 563.52 331.536 611.225 329.48 612.915ZM350.092 649.363C345.584 652.302 344.277 657.142 346.399 663.05C348.389 668.592 352.189 671.472 357.106 671.161C358.528 671.072 378.184 664.147 421.487 648.48L483.822 625.928L485.408 623.663C487.383 620.844 487.855 617.566 486.818 613.858C485.735 609.98 483.804 607.378 480.83 605.787C476.193 603.305 479.98 602.159 412.156 626.58C378.843 638.575 350.913 648.827 350.092 649.363ZM384.215 681.823C381.473 684.244 380.193 689.504 381.476 693.078C383.675 699.202 396.309 706.496 408.127 708.466C428.26 711.821 450.093 704.741 464.538 690.174C466.902 687.79 469.908 684.295 471.217 682.406C476.264 675.127 479.83 664.904 478.979 660.156C478.2 655.814 473.901 652.119 469.179 651.732C466.981 651.552 464.467 652.397 426.066 666.209C400.268 675.488 384.893 681.224 384.215 681.823Z" fill="#F0B040" stroke="#D67B04" stroke-width="7.23478" stroke-linecap="round" stroke-linejoin="round" stroke-dasharray="7.23 7.23"/>
</svg>
