<svg width="921" height="804" viewBox="0 0 921 804" fill="none" xmlns="http://www.w3.org/2000/svg">
<mask id="path-1-outside-1_89_3467" maskUnits="userSpaceOnUse" x="-7.21319" y="-8.56013" width="935.562" height="820.488" fill="black">
<rect fill="white" x="-7.21319" y="-8.56013" width="935.562" height="820.488"/>
<path fill-rule="evenodd" clip-rule="evenodd" d="M491.35 107.611C461.502 110.768 434.928 113.556 432.295 113.805L427.508 114.259L415.39 159.895L403.273 205.531L380.814 208.435C368.462 210.032 351.068 212.311 342.161 213.499L325.967 215.66L302.743 303.258L279.518 390.857L282.382 399.187L285.245 407.516L309.857 316.216L334.469 224.915L378.164 219.265L421.859 213.617L411.34 254.083C405.555 276.34 401.078 294.603 401.392 294.667C401.706 294.73 404.447 292.301 407.482 289.268C419.465 277.296 431.585 273.278 446.953 276.182L453.417 277.404L452.013 280.607C443.932 299.05 422.777 312.631 406.67 309.716L401.6 308.798L404.728 305.65C409.796 300.548 414.193 297.699 422.933 293.852C427.462 291.859 431.228 289.996 431.304 289.712C431.379 289.429 431.153 288.702 430.802 288.098C429.624 286.071 412.476 294.203 405.945 299.887C399.02 305.912 397.124 308.459 395.697 313.649L394.389 318.407L393.623 313.87C391.586 301.796 386.121 291.024 378.811 284.668C374.535 280.952 366.676 276.609 361.884 275.314L359.044 274.548L358.118 278.04C356.817 282.95 356.922 290.4 358.4 297.902C361.395 313.107 374.645 329.072 385.876 331.008L388.589 331.476L386.523 325.248C383.982 317.587 381.696 313.403 376.045 306.071C371.793 300.554 371 298.816 372.97 299.338C374.698 299.796 384.287 313.637 386.241 318.493C390.471 329.006 390.935 331.788 389.412 337.532C388.641 340.439 388.174 343.099 388.372 343.442C388.572 343.785 391.046 341.684 393.871 338.772C405.748 326.53 420.812 321.76 435.391 325.626L440.207 326.903L438.736 330.367C436.631 335.326 430.554 343.488 425.995 347.479C416.766 355.561 403.023 360.36 393.41 358.859L388.521 358.095L391.655 354.939C396.731 349.831 401.124 346.984 409.866 343.135C414.396 341.142 418.162 339.278 418.238 338.995C418.313 338.712 418.087 337.985 417.735 337.381C416.213 334.76 396.279 345.413 388.801 352.844L384.119 357.496L371.874 403.682C364.246 432.451 359.344 452.185 358.872 456.014C357.38 468.124 360.698 481.635 368.418 494.897C373.151 503.027 377.118 508.529 401.879 541.3C408.079 549.506 412.307 555.917 413.245 558.532C414.067 560.823 415.003 562.544 415.326 562.356C415.649 562.168 431.122 504.668 449.709 434.577L483.506 307.14L529.809 301.157C555.275 297.867 576.443 295.141 576.849 295.1C577.27 295.057 573.117 311.881 567.171 334.309L556.756 373.592L554.829 366.607C550.295 350.164 539.02 338.562 523.529 334.4L519.552 333.332L518.733 336.421C517.706 340.294 518.337 350.673 519.981 356.979C520.669 359.616 523.132 365.033 525.454 369.015C530.884 378.328 536.931 384.022 544.502 386.952C547.431 388.087 549.976 388.943 550.159 388.855C550.888 388.508 547.793 378.836 545.552 374.458C544.24 371.896 541.126 367.159 538.631 363.931C534.233 358.24 533.411 356.482 535.397 357.009C537.291 357.511 546.903 371.669 549.058 377.132C552.619 386.16 552.853 388.313 551.026 395.202C550.137 398.555 549.676 401.369 549.999 401.454C550.324 401.541 552.154 399.637 554.065 397.223C562.021 387.182 571.366 380.795 580.908 378.878C586.503 377.754 595.265 377.79 599.763 378.956C601.955 379.525 602.167 379.83 601.666 381.679C600.575 385.71 596.124 393.062 591.552 398.388C582.167 409.321 567.272 415.864 555.836 414.077C553.224 413.669 551.156 413.077 551.24 412.76C551.324 412.444 553.591 410.238 556.279 407.858C560.664 403.973 566.465 400.694 577.235 396.012C580.373 394.647 580.746 394.255 580.14 392.945C579.513 391.591 578.925 391.661 574.158 393.658C564.379 397.755 558.49 401.282 552.767 406.473C547.585 411.172 546.915 412.101 545.289 416.841L543.503 422.048L541.937 415.952C539.903 408.038 534.213 398.222 528.947 393.54C523.912 389.065 517.469 385.554 511.222 383.882L506.486 382.615L505.718 385.509C503.584 393.561 506.48 408.133 512.133 417.789C518.308 428.335 525.654 434.763 534.083 436.998L537.373 437.87L536.26 433.476C534.696 427.305 530.913 420.133 525.587 413.242C521.168 407.525 520.343 405.764 522.331 406.291C524.225 406.793 533.837 420.952 535.991 426.415C540.343 437.447 540.799 433.778 530.02 474.434C524.764 494.258 520.751 510.554 521.102 510.647C522.109 510.914 527.703 502.895 544.226 477.495C562.051 450.094 566.18 444.797 573.013 440.569C579.966 436.267 585.595 435.061 592.385 436.419C607.773 439.498 615.21 453.469 611.919 473.116C610.762 480.024 608.896 483.691 599.967 496.606C596.352 501.834 594.273 505.475 594.588 506.019C595.393 507.404 602.797 503.087 607.451 498.519C609.722 496.29 613.233 491.984 615.254 488.949L618.927 483.431L637.448 414.432L655.968 345.434L624.137 313.603L592.307 281.771L586.071 282.626L579.835 283.481L595.781 223.335L611.727 163.19L579.118 132.748C561.183 116.006 546.309 102.209 546.064 102.089C545.819 101.969 521.197 104.454 491.35 107.611ZM483.846 119.079L436.742 123.814L425.978 163.618C420.059 185.511 415.479 203.492 415.8 203.577C416.123 203.663 420.828 203.123 426.258 202.378L436.13 201.023L464.522 229.419L492.913 257.815L495.629 249.099C498.281 240.592 498.454 240.274 502.773 235.921C509.927 228.713 529.947 218.055 531.455 220.651C531.806 221.255 532.032 221.982 531.957 222.265C531.882 222.549 528.115 224.412 523.586 226.405C514.844 230.254 510.451 233.101 505.375 238.209L502.24 241.365L507.13 242.129C516.742 243.631 530.486 238.832 539.715 230.75C544.274 226.758 550.351 218.597 552.456 213.638L553.927 210.173L549.111 208.896C534.74 205.086 520.096 209.572 508.25 221.415C505.348 224.316 502.68 226.611 502.319 226.515C501.958 226.42 502.309 223.906 503.098 220.929C504.659 215.041 504.217 212.339 499.961 201.763C498.007 196.908 488.417 183.067 486.69 182.609C484.72 182.087 485.513 183.824 489.765 189.342C495.416 196.674 497.702 200.858 500.243 208.518L502.308 214.746L499.596 214.279C488.365 212.342 475.115 196.378 472.119 181.172C470.642 173.671 470.536 166.22 471.838 161.31L472.764 157.818L475.604 158.585C480.396 159.88 488.255 164.223 492.53 167.939C499.841 174.295 505.306 185.067 507.343 197.141L508.109 201.677L509.416 196.92C510.843 191.73 512.74 189.183 519.665 183.157C526.196 177.474 543.344 169.342 544.521 171.369C544.872 171.973 545.098 172.7 545.023 172.983C544.948 173.266 541.181 175.13 536.652 177.123C532.123 179.116 526.878 181.878 524.997 183.26C521.836 185.581 515.853 191.184 515.628 192.033C515.574 192.235 517.833 192.723 520.647 193.117C537.23 195.444 557.726 182.152 565.733 163.878L567.137 160.675L560.672 159.452C545.288 156.545 533.396 160.497 520.992 172.638C517.581 175.978 515.217 177.775 515.149 177.083C515.084 176.445 518.614 162.067 522.991 145.133L530.951 114.344L483.846 119.079ZM253.987 205.269C242.872 204.392 237.252 208.655 232.612 221.481C225.837 240.21 197.377 367.517 194.635 391.36C192.6 409.046 193.919 419.689 200.651 439.889C204.919 452.699 225.532 485.34 241.327 504.301C254.034 519.557 295.268 562.203 348.17 614.806C380.335 646.788 386.861 653.781 389.709 659.311L391.669 663.118L395.045 660.791C399.719 657.568 408.94 654.711 454.231 642.456C494.854 631.464 552.105 615.259 575.302 608.186C604.474 599.291 623.212 591.29 646.774 577.67C664.15 567.625 669.272 563.679 680.1 551.99C688.218 543.227 691.217 538.595 696.255 527.043C701.35 515.361 704.775 505.618 714.123 476.21C733.928 413.91 749.833 357.48 749.663 350.117C749.534 344.537 745.748 338.041 740.988 335.23C736.483 332.571 727.806 330.245 723.573 330.561C718.723 330.924 711.437 335.674 705.632 342.258C696.959 352.092 691.866 362.508 673.389 408.2C647.011 473.428 638.799 487.494 618.342 502.499C609.719 508.824 594.955 516.984 584.535 521.183C580.061 522.987 576.136 524.4 575.813 524.323C575.014 524.136 575.947 522.444 585.923 505.989C601.982 479.502 603.35 476.613 603.771 468.294C604.312 457.623 600.265 451.083 591.627 448.668C586.214 447.154 580.777 448.302 575.824 452.002C571.572 455.181 569.708 457.692 553.377 482.256C532.693 513.366 525.061 524.389 521.205 528.728C515.422 535.233 504.903 540.893 479.203 551.326C441.182 566.763 424.37 575.334 415.687 583.71C413.703 585.624 411.905 587.154 411.693 587.111C411.48 587.067 410.885 585.216 410.368 582.998C409.035 577.269 399.337 560.147 390.829 548.502C386.842 543.046 377.555 530.944 370.191 521.608C349.361 495.207 346.06 489.126 344.42 474.135C343.906 469.433 342.584 452.383 341.482 436.247C338.422 391.411 338.247 390.279 333.417 384.055C330.245 379.969 326.159 377.521 321.82 377.109C312.8 376.254 306.582 381.287 302.016 393.139C300.214 397.82 300.019 404.336 300.778 434.609C301.001 443.497 300.914 450.925 300.586 451.115C299.38 451.816 287.944 436.046 281.183 424.357C270.056 405.124 266.275 391.672 266.38 371.703C266.462 356.268 267.791 342.655 273.021 303.676C278.024 266.392 279.604 250.042 279.176 239.983C278.635 227.234 274.788 215.74 269.464 210.967C266.517 208.325 259.372 205.695 253.987 205.269ZM91.5266 500.649C44.6212 545.93 6.30578 583.082 6.38065 583.21C6.45572 583.337 13.5736 583.685 22.1979 583.982C67.9395 585.56 85.627 586.737 125.463 590.858C178.801 596.375 205.745 601.235 232.724 610.208C263.336 620.388 284.847 631.564 315.004 652.955C338.573 669.674 349.263 678.465 353.843 684.897C359.832 693.307 368.803 699.067 380.98 702.323C393.489 705.667 405.402 704.976 414.626 700.372C419.781 697.798 426.114 696.598 449.862 693.693C487.932 689.035 513.928 689.005 544.14 693.586C555.799 695.353 590.833 704.606 602.156 708.908C651.505 727.658 699.741 749.843 756.579 779.931C761.472 782.521 765.611 784.566 765.778 784.474C766.01 784.346 703.28 568.818 700.172 559.067C699.81 557.928 699.297 557.121 699.033 557.275C698.77 557.428 706 599.218 715.102 650.142C724.203 701.066 731.508 742.812 731.337 742.912C731.166 743.011 728.602 741.924 725.639 740.497C711.363 733.617 682.426 720.383 667.387 713.856C624.774 695.362 581.889 680.555 559.217 676.507C536.712 672.489 519.25 671.621 492.339 673.183C464.879 674.778 450.585 676.395 428.34 680.426C415.373 682.776 406.945 683.483 396.876 683.065C387.805 682.689 384.559 681.764 375.993 677.119C365.958 671.678 361.525 668.573 349.363 658.46C320.837 634.743 285.563 611.642 260.509 600.268C237.165 589.67 221.575 585.361 180.312 578.102C149.787 572.733 114.261 568.657 69.7735 565.42C62.7953 564.913 57.0099 564.366 56.9169 564.206C56.8236 564.046 83.7837 531.504 116.827 491.891C149.87 452.277 176.884 419.519 176.858 419.093C176.831 418.668 138.432 455.368 91.5266 500.649ZM178.78 428.815C171.826 437.598 95.3928 539.882 95.5877 540.144C95.7139 540.314 105.029 541.521 116.287 542.825C153.716 547.163 167.652 549.612 192.272 556.182C232.695 566.968 258.805 578.862 292.189 601.697C302.881 609.011 354.041 651.08 382.59 676.034L386.995 679.885L397.93 677.859C449.548 668.295 473.437 663.996 486.976 661.832C510.039 658.147 538.718 656.758 559.166 658.337C581.576 660.066 618.258 667.685 639.156 674.951C657.329 681.269 703.554 699.898 708.362 702.842C709.471 703.52 709.688 703.34 709.695 701.737C709.708 698.338 692.317 561.733 691.854 561.604C691.608 561.536 690.597 562.818 689.608 564.452C685.747 570.832 673.055 582.011 658.505 591.845C642.558 602.624 602.986 618.022 557.442 631.169C499.969 647.761 469.046 655.885 430.094 664.629C408.185 669.547 401.873 671.173 393.469 674.067L388.512 675.772L382.043 668.829C378.484 665.01 368.75 655.657 360.409 648.045C326.05 616.684 274.128 565.394 247.578 536.585C226.719 513.95 206.221 488.232 198.418 474.902C190.173 460.817 182.727 440.253 181.395 427.886C181.175 425.844 181.116 425.865 178.78 428.815Z"/>
</mask>
<path fill-rule="evenodd" clip-rule="evenodd" d="M491.35 107.611C461.502 110.768 434.928 113.556 432.295 113.805L427.508 114.259L415.39 159.895L403.273 205.531L380.814 208.435C368.462 210.032 351.068 212.311 342.161 213.499L325.967 215.66L302.743 303.258L279.518 390.857L282.382 399.187L285.245 407.516L309.857 316.216L334.469 224.915L378.164 219.265L421.859 213.617L411.34 254.083C405.555 276.34 401.078 294.603 401.392 294.667C401.706 294.73 404.447 292.301 407.482 289.268C419.465 277.296 431.585 273.278 446.953 276.182L453.417 277.404L452.013 280.607C443.932 299.05 422.777 312.631 406.67 309.716L401.6 308.798L404.728 305.65C409.796 300.548 414.193 297.699 422.933 293.852C427.462 291.859 431.228 289.996 431.304 289.712C431.379 289.429 431.153 288.702 430.802 288.098C429.624 286.071 412.476 294.203 405.945 299.887C399.02 305.912 397.124 308.459 395.697 313.649L394.389 318.407L393.623 313.87C391.586 301.796 386.121 291.024 378.811 284.668C374.535 280.952 366.676 276.609 361.884 275.314L359.044 274.548L358.118 278.04C356.817 282.95 356.922 290.4 358.4 297.902C361.395 313.107 374.645 329.072 385.876 331.008L388.589 331.476L386.523 325.248C383.982 317.587 381.696 313.403 376.045 306.071C371.793 300.554 371 298.816 372.97 299.338C374.698 299.796 384.287 313.637 386.241 318.493C390.471 329.006 390.935 331.788 389.412 337.532C388.641 340.439 388.174 343.099 388.372 343.442C388.572 343.785 391.046 341.684 393.871 338.772C405.748 326.53 420.812 321.76 435.391 325.626L440.207 326.903L438.736 330.367C436.631 335.326 430.554 343.488 425.995 347.479C416.766 355.561 403.023 360.36 393.41 358.859L388.521 358.095L391.655 354.939C396.731 349.831 401.124 346.984 409.866 343.135C414.396 341.142 418.162 339.278 418.238 338.995C418.313 338.712 418.087 337.985 417.735 337.381C416.213 334.76 396.279 345.413 388.801 352.844L384.119 357.496L371.874 403.682C364.246 432.451 359.344 452.185 358.872 456.014C357.38 468.124 360.698 481.635 368.418 494.897C373.151 503.027 377.118 508.529 401.879 541.3C408.079 549.506 412.307 555.917 413.245 558.532C414.067 560.823 415.003 562.544 415.326 562.356C415.649 562.168 431.122 504.668 449.709 434.577L483.506 307.14L529.809 301.157C555.275 297.867 576.443 295.141 576.849 295.1C577.27 295.057 573.117 311.881 567.171 334.309L556.756 373.592L554.829 366.607C550.295 350.164 539.02 338.562 523.529 334.4L519.552 333.332L518.733 336.421C517.706 340.294 518.337 350.673 519.981 356.979C520.669 359.616 523.132 365.033 525.454 369.015C530.884 378.328 536.931 384.022 544.502 386.952C547.431 388.087 549.976 388.943 550.159 388.855C550.888 388.508 547.793 378.836 545.552 374.458C544.24 371.896 541.126 367.159 538.631 363.931C534.233 358.24 533.411 356.482 535.397 357.009C537.291 357.511 546.903 371.669 549.058 377.132C552.619 386.16 552.853 388.313 551.026 395.202C550.137 398.555 549.676 401.369 549.999 401.454C550.324 401.541 552.154 399.637 554.065 397.223C562.021 387.182 571.366 380.795 580.908 378.878C586.503 377.754 595.265 377.79 599.763 378.956C601.955 379.525 602.167 379.83 601.666 381.679C600.575 385.71 596.124 393.062 591.552 398.388C582.167 409.321 567.272 415.864 555.836 414.077C553.224 413.669 551.156 413.077 551.24 412.76C551.324 412.444 553.591 410.238 556.279 407.858C560.664 403.973 566.465 400.694 577.235 396.012C580.373 394.647 580.746 394.255 580.14 392.945C579.513 391.591 578.925 391.661 574.158 393.658C564.379 397.755 558.49 401.282 552.767 406.473C547.585 411.172 546.915 412.101 545.289 416.841L543.503 422.048L541.937 415.952C539.903 408.038 534.213 398.222 528.947 393.54C523.912 389.065 517.469 385.554 511.222 383.882L506.486 382.615L505.718 385.509C503.584 393.561 506.48 408.133 512.133 417.789C518.308 428.335 525.654 434.763 534.083 436.998L537.373 437.87L536.26 433.476C534.696 427.305 530.913 420.133 525.587 413.242C521.168 407.525 520.343 405.764 522.331 406.291C524.225 406.793 533.837 420.952 535.991 426.415C540.343 437.447 540.799 433.778 530.02 474.434C524.764 494.258 520.751 510.554 521.102 510.647C522.109 510.914 527.703 502.895 544.226 477.495C562.051 450.094 566.18 444.797 573.013 440.569C579.966 436.267 585.595 435.061 592.385 436.419C607.773 439.498 615.21 453.469 611.919 473.116C610.762 480.024 608.896 483.691 599.967 496.606C596.352 501.834 594.273 505.475 594.588 506.019C595.393 507.404 602.797 503.087 607.451 498.519C609.722 496.29 613.233 491.984 615.254 488.949L618.927 483.431L637.448 414.432L655.968 345.434L624.137 313.603L592.307 281.771L586.071 282.626L579.835 283.481L595.781 223.335L611.727 163.19L579.118 132.748C561.183 116.006 546.309 102.209 546.064 102.089C545.819 101.969 521.197 104.454 491.35 107.611ZM483.846 119.079L436.742 123.814L425.978 163.618C420.059 185.511 415.479 203.492 415.8 203.577C416.123 203.663 420.828 203.123 426.258 202.378L436.13 201.023L464.522 229.419L492.913 257.815L495.629 249.099C498.281 240.592 498.454 240.274 502.773 235.921C509.927 228.713 529.947 218.055 531.455 220.651C531.806 221.255 532.032 221.982 531.957 222.265C531.882 222.549 528.115 224.412 523.586 226.405C514.844 230.254 510.451 233.101 505.375 238.209L502.24 241.365L507.13 242.129C516.742 243.631 530.486 238.832 539.715 230.75C544.274 226.758 550.351 218.597 552.456 213.638L553.927 210.173L549.111 208.896C534.74 205.086 520.096 209.572 508.25 221.415C505.348 224.316 502.68 226.611 502.319 226.515C501.958 226.42 502.309 223.906 503.098 220.929C504.659 215.041 504.217 212.339 499.961 201.763C498.007 196.908 488.417 183.067 486.69 182.609C484.72 182.087 485.513 183.824 489.765 189.342C495.416 196.674 497.702 200.858 500.243 208.518L502.308 214.746L499.596 214.279C488.365 212.342 475.115 196.378 472.119 181.172C470.642 173.671 470.536 166.22 471.838 161.31L472.764 157.818L475.604 158.585C480.396 159.88 488.255 164.223 492.53 167.939C499.841 174.295 505.306 185.067 507.343 197.141L508.109 201.677L509.416 196.92C510.843 191.73 512.74 189.183 519.665 183.157C526.196 177.474 543.344 169.342 544.521 171.369C544.872 171.973 545.098 172.7 545.023 172.983C544.948 173.266 541.181 175.13 536.652 177.123C532.123 179.116 526.878 181.878 524.997 183.26C521.836 185.581 515.853 191.184 515.628 192.033C515.574 192.235 517.833 192.723 520.647 193.117C537.23 195.444 557.726 182.152 565.733 163.878L567.137 160.675L560.672 159.452C545.288 156.545 533.396 160.497 520.992 172.638C517.581 175.978 515.217 177.775 515.149 177.083C515.084 176.445 518.614 162.067 522.991 145.133L530.951 114.344L483.846 119.079ZM253.987 205.269C242.872 204.392 237.252 208.655 232.612 221.481C225.837 240.21 197.377 367.517 194.635 391.36C192.6 409.046 193.919 419.689 200.651 439.889C204.919 452.699 225.532 485.34 241.327 504.301C254.034 519.557 295.268 562.203 348.17 614.806C380.335 646.788 386.861 653.781 389.709 659.311L391.669 663.118L395.045 660.791C399.719 657.568 408.94 654.711 454.231 642.456C494.854 631.464 552.105 615.259 575.302 608.186C604.474 599.291 623.212 591.29 646.774 577.67C664.15 567.625 669.272 563.679 680.1 551.99C688.218 543.227 691.217 538.595 696.255 527.043C701.35 515.361 704.775 505.618 714.123 476.21C733.928 413.91 749.833 357.48 749.663 350.117C749.534 344.537 745.748 338.041 740.988 335.23C736.483 332.571 727.806 330.245 723.573 330.561C718.723 330.924 711.437 335.674 705.632 342.258C696.959 352.092 691.866 362.508 673.389 408.2C647.011 473.428 638.799 487.494 618.342 502.499C609.719 508.824 594.955 516.984 584.535 521.183C580.061 522.987 576.136 524.4 575.813 524.323C575.014 524.136 575.947 522.444 585.923 505.989C601.982 479.502 603.35 476.613 603.771 468.294C604.312 457.623 600.265 451.083 591.627 448.668C586.214 447.154 580.777 448.302 575.824 452.002C571.572 455.181 569.708 457.692 553.377 482.256C532.693 513.366 525.061 524.389 521.205 528.728C515.422 535.233 504.903 540.893 479.203 551.326C441.182 566.763 424.37 575.334 415.687 583.71C413.703 585.624 411.905 587.154 411.693 587.111C411.48 587.067 410.885 585.216 410.368 582.998C409.035 577.269 399.337 560.147 390.829 548.502C386.842 543.046 377.555 530.944 370.191 521.608C349.361 495.207 346.06 489.126 344.42 474.135C343.906 469.433 342.584 452.383 341.482 436.247C338.422 391.411 338.247 390.279 333.417 384.055C330.245 379.969 326.159 377.521 321.82 377.109C312.8 376.254 306.582 381.287 302.016 393.139C300.214 397.82 300.019 404.336 300.778 434.609C301.001 443.497 300.914 450.925 300.586 451.115C299.38 451.816 287.944 436.046 281.183 424.357C270.056 405.124 266.275 391.672 266.38 371.703C266.462 356.268 267.791 342.655 273.021 303.676C278.024 266.392 279.604 250.042 279.176 239.983C278.635 227.234 274.788 215.74 269.464 210.967C266.517 208.325 259.372 205.695 253.987 205.269ZM91.5266 500.649C44.6212 545.93 6.30578 583.082 6.38065 583.21C6.45572 583.337 13.5736 583.685 22.1979 583.982C67.9395 585.56 85.627 586.737 125.463 590.858C178.801 596.375 205.745 601.235 232.724 610.208C263.336 620.388 284.847 631.564 315.004 652.955C338.573 669.674 349.263 678.465 353.843 684.897C359.832 693.307 368.803 699.067 380.98 702.323C393.489 705.667 405.402 704.976 414.626 700.372C419.781 697.798 426.114 696.598 449.862 693.693C487.932 689.035 513.928 689.005 544.14 693.586C555.799 695.353 590.833 704.606 602.156 708.908C651.505 727.658 699.741 749.843 756.579 779.931C761.472 782.521 765.611 784.566 765.778 784.474C766.01 784.346 703.28 568.818 700.172 559.067C699.81 557.928 699.297 557.121 699.033 557.275C698.77 557.428 706 599.218 715.102 650.142C724.203 701.066 731.508 742.812 731.337 742.912C731.166 743.011 728.602 741.924 725.639 740.497C711.363 733.617 682.426 720.383 667.387 713.856C624.774 695.362 581.889 680.555 559.217 676.507C536.712 672.489 519.25 671.621 492.339 673.183C464.879 674.778 450.585 676.395 428.34 680.426C415.373 682.776 406.945 683.483 396.876 683.065C387.805 682.689 384.559 681.764 375.993 677.119C365.958 671.678 361.525 668.573 349.363 658.46C320.837 634.743 285.563 611.642 260.509 600.268C237.165 589.67 221.575 585.361 180.312 578.102C149.787 572.733 114.261 568.657 69.7735 565.42C62.7953 564.913 57.0099 564.366 56.9169 564.206C56.8236 564.046 83.7837 531.504 116.827 491.891C149.87 452.277 176.884 419.519 176.858 419.093C176.831 418.668 138.432 455.368 91.5266 500.649ZM178.78 428.815C171.826 437.598 95.3928 539.882 95.5877 540.144C95.7139 540.314 105.029 541.521 116.287 542.825C153.716 547.163 167.652 549.612 192.272 556.182C232.695 566.968 258.805 578.862 292.189 601.697C302.881 609.011 354.041 651.08 382.59 676.034L386.995 679.885L397.93 677.859C449.548 668.295 473.437 663.996 486.976 661.832C510.039 658.147 538.718 656.758 559.166 658.337C581.576 660.066 618.258 667.685 639.156 674.951C657.329 681.269 703.554 699.898 708.362 702.842C709.471 703.52 709.688 703.34 709.695 701.737C709.708 698.338 692.317 561.733 691.854 561.604C691.608 561.536 690.597 562.818 689.608 564.452C685.747 570.832 673.055 582.011 658.505 591.845C642.558 602.624 602.986 618.022 557.442 631.169C499.969 647.761 469.046 655.885 430.094 664.629C408.185 669.547 401.873 671.173 393.469 674.067L388.512 675.772L382.043 668.829C378.484 665.01 368.75 655.657 360.409 648.045C326.05 616.684 274.128 565.394 247.578 536.585C226.719 513.95 206.221 488.232 198.418 474.902C190.173 460.817 182.727 440.253 181.395 427.886C181.175 425.844 181.116 425.865 178.78 428.815Z" stroke="#0070B0" stroke-width="13.1052" mask="url(#path-1-outside-1_89_3467)"/>
<path fill-rule="evenodd" clip-rule="evenodd" d="M491.35 107.611C461.502 110.768 434.928 113.556 432.295 113.805L427.508 114.259L415.39 159.895L403.273 205.531L380.814 208.435C368.462 210.032 351.068 212.311 342.161 213.499L325.967 215.66L302.743 303.258L279.518 390.857L282.382 399.187L285.245 407.516L309.857 316.216L334.469 224.915L378.164 219.265L421.859 213.617L411.34 254.083C405.555 276.34 401.078 294.603 401.392 294.667C401.706 294.73 404.447 292.301 407.482 289.268C419.465 277.296 431.585 273.278 446.953 276.182L453.417 277.404L452.013 280.607C443.932 299.05 422.777 312.631 406.67 309.716L401.6 308.798L404.728 305.65C409.796 300.548 414.193 297.699 422.933 293.852C427.462 291.859 431.228 289.996 431.304 289.712C431.379 289.429 431.153 288.702 430.802 288.098C429.624 286.071 412.476 294.203 405.945 299.887C399.02 305.912 397.124 308.459 395.697 313.649L394.389 318.407L393.623 313.87C391.586 301.796 386.121 291.024 378.811 284.668C374.535 280.952 366.676 276.609 361.884 275.314L359.044 274.548L358.118 278.04C356.817 282.95 356.922 290.4 358.4 297.902C361.395 313.107 374.645 329.072 385.876 331.008L388.589 331.476L386.523 325.248C383.982 317.587 381.696 313.403 376.045 306.071C371.793 300.554 371 298.816 372.97 299.338C374.698 299.796 384.287 313.637 386.241 318.493C390.471 329.006 390.935 331.788 389.412 337.532C388.641 340.439 388.174 343.099 388.372 343.442C388.572 343.785 391.046 341.684 393.871 338.772C405.748 326.53 420.812 321.76 435.391 325.626L440.207 326.903L438.736 330.367C436.631 335.326 430.554 343.488 425.995 347.479C416.766 355.561 403.023 360.36 393.41 358.859L388.521 358.095L391.655 354.939C396.731 349.831 401.124 346.984 409.866 343.135C414.396 341.142 418.162 339.278 418.238 338.995C418.313 338.712 418.087 337.985 417.735 337.381C416.213 334.76 396.279 345.413 388.801 352.844L384.119 357.496L371.874 403.682C364.246 432.451 359.344 452.185 358.872 456.014C357.38 468.124 360.698 481.635 368.418 494.897C373.151 503.027 377.118 508.529 401.879 541.3C408.079 549.506 412.307 555.917 413.245 558.532C414.067 560.823 415.003 562.544 415.326 562.356C415.649 562.168 431.122 504.668 449.709 434.577L483.506 307.14L529.809 301.157C555.275 297.867 576.443 295.141 576.849 295.1C577.27 295.057 573.117 311.881 567.171 334.309L556.756 373.592L554.829 366.607C550.295 350.164 539.02 338.562 523.529 334.4L519.552 333.332L518.733 336.421C517.706 340.294 518.337 350.673 519.981 356.979C520.669 359.616 523.132 365.033 525.454 369.015C530.884 378.328 536.931 384.022 544.502 386.952C547.431 388.087 549.976 388.943 550.159 388.855C550.888 388.508 547.793 378.836 545.552 374.458C544.24 371.896 541.126 367.159 538.631 363.931C534.233 358.24 533.411 356.482 535.397 357.009C537.291 357.511 546.903 371.669 549.058 377.132C552.619 386.16 552.853 388.313 551.026 395.202C550.137 398.555 549.676 401.369 549.999 401.454C550.324 401.541 552.154 399.637 554.065 397.223C562.021 387.182 571.366 380.795 580.908 378.878C586.503 377.754 595.265 377.79 599.763 378.956C601.955 379.525 602.167 379.83 601.666 381.679C600.575 385.71 596.124 393.062 591.552 398.388C582.167 409.321 567.272 415.864 555.836 414.077C553.224 413.669 551.156 413.077 551.24 412.76C551.324 412.444 553.591 410.238 556.279 407.858C560.664 403.973 566.465 400.694 577.235 396.012C580.373 394.647 580.746 394.255 580.14 392.945C579.513 391.591 578.925 391.661 574.158 393.658C564.379 397.755 558.49 401.282 552.767 406.473C547.585 411.172 546.915 412.101 545.289 416.841L543.503 422.048L541.937 415.952C539.903 408.038 534.213 398.222 528.947 393.54C523.912 389.065 517.469 385.554 511.222 383.882L506.486 382.615L505.718 385.509C503.584 393.561 506.48 408.133 512.133 417.789C518.308 428.335 525.654 434.763 534.083 436.998L537.373 437.87L536.26 433.476C534.696 427.305 530.913 420.133 525.587 413.242C521.168 407.525 520.343 405.764 522.331 406.291C524.225 406.793 533.837 420.952 535.991 426.415C540.343 437.447 540.799 433.778 530.02 474.434C524.764 494.258 520.751 510.554 521.102 510.647C522.109 510.914 527.703 502.895 544.226 477.495C562.051 450.094 566.18 444.797 573.013 440.569C579.966 436.267 585.595 435.061 592.385 436.419C607.773 439.498 615.21 453.469 611.919 473.116C610.762 480.024 608.896 483.691 599.967 496.606C596.352 501.834 594.273 505.475 594.588 506.019C595.393 507.404 602.797 503.087 607.451 498.519C609.722 496.29 613.233 491.984 615.254 488.949L618.927 483.431L637.448 414.432L655.968 345.434L624.137 313.603L592.307 281.771L586.071 282.626L579.835 283.481L595.781 223.335L611.727 163.19L579.118 132.748C561.183 116.006 546.309 102.209 546.064 102.089C545.819 101.969 521.197 104.454 491.35 107.611ZM483.846 119.079L436.742 123.814L425.978 163.618C420.059 185.511 415.479 203.492 415.8 203.577C416.123 203.663 420.828 203.123 426.258 202.378L436.13 201.023L464.522 229.419L492.913 257.815L495.629 249.099C498.281 240.592 498.454 240.274 502.773 235.921C509.927 228.713 529.947 218.055 531.455 220.651C531.806 221.255 532.032 221.982 531.957 222.265C531.882 222.549 528.115 224.412 523.586 226.405C514.844 230.254 510.451 233.101 505.375 238.209L502.24 241.365L507.13 242.129C516.742 243.631 530.486 238.832 539.715 230.75C544.274 226.758 550.351 218.597 552.456 213.638L553.927 210.173L549.111 208.896C534.74 205.086 520.096 209.572 508.25 221.415C505.348 224.316 502.68 226.611 502.319 226.515C501.958 226.42 502.309 223.906 503.098 220.929C504.659 215.041 504.217 212.339 499.961 201.763C498.007 196.908 488.417 183.067 486.69 182.609C484.72 182.087 485.513 183.824 489.765 189.342C495.416 196.674 497.702 200.858 500.243 208.518L502.308 214.746L499.596 214.279C488.365 212.342 475.115 196.378 472.119 181.172C470.642 173.671 470.536 166.22 471.838 161.31L472.764 157.818L475.604 158.585C480.396 159.88 488.255 164.223 492.53 167.939C499.841 174.295 505.306 185.067 507.343 197.141L508.109 201.677L509.416 196.92C510.843 191.73 512.74 189.183 519.665 183.157C526.196 177.474 543.344 169.342 544.521 171.369C544.872 171.973 545.098 172.7 545.023 172.983C544.948 173.266 541.181 175.13 536.652 177.123C532.123 179.116 526.878 181.878 524.997 183.26C521.836 185.581 515.853 191.184 515.628 192.033C515.574 192.235 517.833 192.723 520.647 193.117C537.23 195.444 557.726 182.152 565.733 163.878L567.137 160.675L560.672 159.452C545.288 156.545 533.396 160.497 520.992 172.638C517.581 175.978 515.217 177.775 515.149 177.083C515.084 176.445 518.614 162.067 522.991 145.133L530.951 114.344L483.846 119.079ZM253.987 205.269C242.872 204.392 237.252 208.655 232.612 221.481C225.837 240.21 197.377 367.517 194.635 391.36C192.6 409.046 193.919 419.689 200.651 439.889C204.919 452.699 225.532 485.34 241.327 504.301C254.034 519.557 295.268 562.203 348.17 614.806C380.335 646.788 386.861 653.781 389.709 659.311L391.669 663.118L395.045 660.791C399.719 657.568 408.94 654.711 454.231 642.456C494.854 631.464 552.105 615.259 575.302 608.186C604.474 599.291 623.212 591.29 646.774 577.67C664.15 567.625 669.272 563.679 680.1 551.99C688.218 543.227 691.217 538.595 696.255 527.043C701.35 515.361 704.775 505.618 714.123 476.21C733.928 413.91 749.833 357.48 749.663 350.117C749.534 344.537 745.748 338.041 740.988 335.23C736.483 332.571 727.806 330.245 723.573 330.561C718.723 330.924 711.437 335.674 705.632 342.258C696.959 352.092 691.866 362.508 673.389 408.2C647.011 473.428 638.799 487.494 618.342 502.499C609.719 508.824 594.955 516.984 584.535 521.183C580.061 522.987 576.136 524.4 575.813 524.323C575.014 524.136 575.947 522.444 585.923 505.989C601.982 479.502 603.35 476.613 603.771 468.294C604.312 457.623 600.265 451.083 591.627 448.668C586.214 447.154 580.777 448.302 575.824 452.002C571.572 455.181 569.708 457.692 553.377 482.256C532.693 513.366 525.061 524.389 521.205 528.728C515.422 535.233 504.903 540.893 479.203 551.326C441.182 566.763 424.37 575.334 415.687 583.71C413.703 585.624 411.905 587.154 411.693 587.111C411.48 587.067 410.885 585.216 410.368 582.998C409.035 577.269 399.337 560.147 390.829 548.502C386.842 543.046 377.555 530.944 370.191 521.608C349.361 495.207 346.06 489.126 344.42 474.135C343.906 469.433 342.584 452.383 341.482 436.247C338.422 391.411 338.247 390.279 333.417 384.055C330.245 379.969 326.159 377.521 321.82 377.109C312.8 376.254 306.582 381.287 302.016 393.139C300.214 397.82 300.019 404.336 300.778 434.609C301.001 443.497 300.914 450.925 300.586 451.115C299.38 451.816 287.944 436.046 281.183 424.357C270.056 405.124 266.275 391.672 266.38 371.703C266.462 356.268 267.791 342.655 273.021 303.676C278.024 266.392 279.604 250.042 279.176 239.983C278.635 227.234 274.788 215.74 269.464 210.967C266.517 208.325 259.372 205.695 253.987 205.269ZM91.5266 500.649C44.6212 545.93 6.30578 583.082 6.38065 583.21C6.45572 583.337 13.5736 583.685 22.1979 583.982C67.9395 585.56 85.627 586.737 125.463 590.858C178.801 596.375 205.745 601.235 232.724 610.208C263.336 620.388 284.847 631.564 315.004 652.955C338.573 669.674 349.263 678.465 353.843 684.897C359.832 693.307 368.803 699.067 380.98 702.323C393.489 705.667 405.402 704.976 414.626 700.372C419.781 697.798 426.114 696.598 449.862 693.693C487.932 689.035 513.928 689.005 544.14 693.586C555.799 695.353 590.833 704.606 602.156 708.908C651.505 727.658 699.741 749.843 756.579 779.931C761.472 782.521 765.611 784.566 765.778 784.474C766.01 784.346 703.28 568.818 700.172 559.067C699.81 557.928 699.297 557.121 699.033 557.275C698.77 557.428 706 599.218 715.102 650.142C724.203 701.066 731.508 742.812 731.337 742.912C731.166 743.011 728.602 741.924 725.639 740.497C711.363 733.617 682.426 720.383 667.387 713.856C624.774 695.362 581.889 680.555 559.217 676.507C536.712 672.489 519.25 671.621 492.339 673.183C464.879 674.778 450.585 676.395 428.34 680.426C415.373 682.776 406.945 683.483 396.876 683.065C387.805 682.689 384.559 681.764 375.993 677.119C365.958 671.678 361.525 668.573 349.363 658.46C320.837 634.743 285.563 611.642 260.509 600.268C237.165 589.67 221.575 585.361 180.312 578.102C149.787 572.733 114.261 568.657 69.7735 565.42C62.7953 564.913 57.0099 564.366 56.9169 564.206C56.8236 564.046 83.7837 531.504 116.827 491.891C149.87 452.277 176.884 419.519 176.858 419.093C176.831 418.668 138.432 455.368 91.5266 500.649ZM178.78 428.815C171.826 437.598 95.3928 539.882 95.5877 540.144C95.7139 540.314 105.029 541.521 116.287 542.825C153.716 547.163 167.652 549.612 192.272 556.182C232.695 566.968 258.805 578.862 292.189 601.697C302.881 609.011 354.041 651.08 382.59 676.034L386.995 679.885L397.93 677.859C449.548 668.295 473.437 663.996 486.976 661.832C510.039 658.147 538.718 656.758 559.166 658.337C581.576 660.066 618.258 667.685 639.156 674.951C657.329 681.269 703.554 699.898 708.362 702.842C709.471 703.52 709.688 703.34 709.695 701.737C709.708 698.338 692.317 561.733 691.854 561.604C691.608 561.536 690.597 562.818 689.608 564.452C685.747 570.832 673.055 582.011 658.505 591.845C642.558 602.624 602.986 618.022 557.442 631.169C499.969 647.761 469.046 655.885 430.094 664.629C408.185 669.547 401.873 671.173 393.469 674.067L388.512 675.772L382.043 668.829C378.484 665.01 368.75 655.657 360.409 648.045C326.05 616.684 274.128 565.394 247.578 536.585C226.719 513.95 206.221 488.232 198.418 474.902C190.173 460.817 182.727 440.253 181.395 427.886C181.175 425.844 181.116 425.865 178.78 428.815Z" fill="#0070B0" stroke="#F2A23A" stroke-width="4.36839" stroke-linecap="round" stroke-linejoin="round" stroke-dasharray="7.64 7.64"/>
</svg>
