<svg width="684" height="726" viewBox="0 0 684 726" fill="none" xmlns="http://www.w3.org/2000/svg">
<mask id="path-1-outside-1_89_3430" maskUnits="userSpaceOnUse" x="280.577" y="49.5911" width="263.63" height="447.203" fill="black">
<rect fill="white" x="280.577" y="49.5911" width="263.63" height="447.203"/>
<path d="M493.116 107.651L525.906 138.853L485.016 308.13L416.6 291.713C413.772 291.034 410.976 290.936 408.307 291.393L457.533 87.6072L419.634 98.7755C407.002 102.498 394.367 106.22 381.734 109.945L298.5 454.517C295.317 453.7 292.13 452.883 288.941 452.063L373.493 102.036C387.966 97.7701 402.439 93.5069 416.91 89.2423L460.328 76.4476C471.256 86.8474 482.187 97.2482 493.116 107.651ZM395.312 345.189C395.576 350.01 395.706 354.834 395.705 359.658L391.799 359.734L395.312 345.189Z"/>
</mask>
<path d="M493.116 107.651L488.965 112.012L488.966 112.013L493.116 107.651ZM525.906 138.853L531.759 140.267L532.575 136.888L530.057 134.491L525.906 138.853ZM485.016 308.13L483.611 313.985L489.457 315.388L490.869 309.544L485.016 308.13ZM416.6 291.713L415.194 297.568L415.195 297.568L416.6 291.713ZM408.307 291.393L402.454 289.98L400.305 298.874L409.324 297.328L408.307 291.393ZM457.533 87.6072L463.386 89.021L465.835 78.8835L455.831 81.8315L457.533 87.6072ZM419.634 98.7755L421.336 104.551L421.336 104.551L419.634 98.7755ZM381.734 109.945L380.032 104.169L376.698 105.152L375.881 108.531L381.734 109.945ZM298.5 454.517L297.005 460.349L302.919 461.866L304.353 455.93L298.5 454.517ZM288.941 452.063L283.088 450.649L281.695 456.417L287.441 457.894L288.941 452.063ZM373.493 102.036L371.79 96.2607L368.456 97.2436L367.64 100.623L373.493 102.036ZM416.91 89.2423L415.208 83.4666L415.208 83.4666L416.91 89.2423ZM460.328 76.4476L464.479 72.0858L461.961 69.6892L458.626 70.6719L460.328 76.4476ZM395.312 345.189L401.324 344.86L389.459 343.775L395.312 345.189ZM395.705 359.658L395.821 365.679L401.725 365.565L401.726 359.659L395.705 359.658ZM391.799 359.734L385.946 358.32L384.114 365.904L391.915 365.754L391.799 359.734ZM493.116 107.651L488.966 112.013L521.755 143.215L525.906 138.853L530.057 134.491L497.267 103.289L493.116 107.651ZM525.906 138.853L520.053 137.439L479.163 306.716L485.016 308.13L490.869 309.544L531.759 140.267L525.906 138.853ZM485.016 308.13L486.421 302.275L418.005 285.858L416.6 291.713L415.195 297.568L483.611 313.985L485.016 308.13ZM416.6 291.713L418.007 285.858C414.421 284.997 410.801 284.857 407.29 285.459L408.307 291.393L409.324 297.328C411.152 297.015 413.122 297.07 415.194 297.568L416.6 291.713ZM408.307 291.393L414.16 292.807L463.386 89.021L457.533 87.6072L451.68 86.1934L402.454 289.98L408.307 291.393ZM457.533 87.6072L455.831 81.8315L417.932 92.9998L419.634 98.7755L421.336 104.551L459.235 93.3829L457.533 87.6072ZM419.634 98.7755L417.932 92.9998C405.301 96.7219 392.665 100.444 380.032 104.169L381.734 109.945L383.437 115.72C396.069 111.996 408.704 108.274 421.336 104.551L419.634 98.7755ZM381.734 109.945L375.881 108.531L292.647 453.103L298.5 454.517L304.353 455.93L387.587 111.358L381.734 109.945ZM298.5 454.517L299.996 448.684C296.813 447.868 293.628 447.051 290.441 446.231L288.941 452.063L287.441 457.894C290.633 458.715 293.821 459.533 297.005 460.349L298.5 454.517ZM288.941 452.063L294.794 453.477L379.346 103.45L373.493 102.036L367.64 100.623L283.088 450.649L288.941 452.063ZM373.493 102.036L375.195 107.812C389.669 103.546 404.14 99.283 418.612 95.018L416.91 89.2423L415.208 83.4666C400.739 87.7307 386.263 91.9946 371.79 96.2607L373.493 102.036ZM416.91 89.2423L418.612 95.0181L462.03 82.2233L460.328 76.4476L458.626 70.6719L415.208 83.4666L416.91 89.2423ZM460.328 76.4476L456.177 80.8095C467.106 91.2095 478.036 101.61 488.965 112.012L493.116 107.651L497.268 103.289C486.338 92.8864 475.407 82.4852 464.479 72.0858L460.328 76.4476ZM395.312 345.189L389.3 345.518C389.558 350.227 389.684 354.942 389.684 359.658L395.705 359.658L401.726 359.659C401.727 354.727 401.594 349.792 401.324 344.86L395.312 345.189ZM395.705 359.658L395.589 353.638L391.683 353.713L391.799 359.734L391.915 365.754L395.821 365.679L395.705 359.658ZM391.799 359.734L397.652 361.147L401.165 346.603L395.312 345.189L389.459 343.775L385.946 358.32L391.799 359.734Z" fill="#00A86B" mask="url(#path-1-outside-1_89_3430)"/>
<mask id="path-3-outside-2_89_3430" maskUnits="userSpaceOnUse" x="175.113" y="256.288" width="175.435" height="207.136" fill="black">
<rect fill="white" x="175.113" y="256.288" width="175.435" height="207.136"/>
<path d="M308.706 303.958L334.627 328.626L325.294 367.26C324.948 367.641 324.61 368.036 324.284 368.448C320.382 373.381 319.028 379.212 320.352 385.361C320.442 385.778 320.53 386.196 320.619 386.614L303.884 455.896C290.937 452.593 277.929 449.201 264.897 445.94C262.641 436.52 256.31 427.059 248.967 419.304L280.652 288.132L250.692 296.962C240.704 299.904 230.716 302.849 220.729 305.791L199.342 394.33C197.595 394.038 195.836 393.773 194.066 393.529C193.23 393.414 192.375 393.307 191.507 393.203L214.136 299.52C225.577 296.147 237.017 292.777 248.459 289.405L282.782 279.289C291.424 287.513 300.064 295.734 308.706 303.958Z"/>
</mask>
<path d="M308.706 303.958L304.555 308.32L304.555 308.32L308.706 303.958ZM334.627 328.626L340.48 330.039L341.296 326.66L338.778 324.264L334.627 328.626ZM325.294 367.26L329.746 371.315L330.785 370.174L331.147 368.674L325.294 367.26ZM324.284 368.448L319.563 364.711L319.561 364.713L324.284 368.448ZM320.352 385.361L314.466 386.629L314.467 386.631L320.352 385.361ZM320.619 386.614L326.472 388.028L326.794 386.694L326.507 385.352L320.619 386.614ZM303.884 455.896L302.395 461.73L308.305 463.238L309.737 457.31L303.884 455.896ZM264.897 445.94L259.041 447.342L259.892 450.894L263.435 451.781L264.897 445.94ZM248.967 419.304L243.114 417.89L242.346 421.069L244.595 423.444L248.967 419.304ZM280.652 288.132L286.505 289.546L288.954 279.409L278.95 282.357L280.652 288.132ZM250.692 296.962L252.393 302.737L252.394 302.737L250.692 296.962ZM220.729 305.791L219.027 300.015L215.692 300.998L214.876 304.377L220.729 305.791ZM199.342 394.33L198.349 400.269L203.878 401.193L205.195 395.744L199.342 394.33ZM194.066 393.529L193.244 399.494L193.244 399.494L194.066 393.529ZM191.507 393.203L185.654 391.789L184.063 398.373L190.788 399.181L191.507 393.203ZM214.136 299.52L212.434 293.745L209.1 294.727L208.283 298.106L214.136 299.52ZM248.459 289.405L250.161 295.181L250.162 295.181L248.459 289.405ZM282.782 279.289L286.933 274.927L284.415 272.53L281.08 273.513L282.782 279.289ZM308.706 303.958L304.555 308.32L330.476 332.987L334.627 328.626L338.778 324.264L312.857 299.596L308.706 303.958ZM334.627 328.626L328.774 327.212L319.441 365.847L325.294 367.26L331.147 368.674L340.48 330.039L334.627 328.626ZM325.294 367.26L320.843 363.206C320.409 363.681 319.981 364.182 319.563 364.711L324.284 368.448L329.005 372.185C329.239 371.889 329.486 371.6 329.746 371.315L325.294 367.26ZM324.284 368.448L319.561 364.713C314.544 371.057 312.763 378.723 314.466 386.629L320.352 385.361L326.239 384.093C325.292 379.701 326.221 375.705 329.007 372.183L324.284 368.448ZM320.352 385.361L314.467 386.631C314.56 387.066 314.629 387.395 314.732 387.876L320.619 386.614L326.507 385.352C326.431 384.997 326.324 384.49 326.238 384.09L320.352 385.361ZM320.619 386.614L314.766 385.2L298.031 454.482L303.884 455.896L309.737 457.31L326.472 388.028L320.619 386.614ZM303.884 455.896L305.372 450.061C292.47 446.77 279.404 443.363 266.359 440.099L264.897 445.94L263.435 451.781C276.453 455.039 289.404 458.416 302.395 461.73L303.884 455.896ZM264.897 445.94L270.753 444.537C268.153 433.686 261.055 423.313 253.339 415.164L248.967 419.304L244.595 423.444C251.565 430.806 257.128 439.354 259.041 447.342L264.897 445.94ZM248.967 419.304L254.82 420.718L286.505 289.546L280.652 288.132L274.799 286.719L243.114 417.89L248.967 419.304ZM280.652 288.132L278.95 282.357L248.99 291.186L250.692 296.962L252.394 302.737L282.354 293.908L280.652 288.132ZM250.692 296.962L248.99 291.186C243.996 292.657 239.002 294.129 234.008 295.601C229.014 297.073 224.021 298.544 219.027 300.015L220.729 305.791L222.431 311.567C227.425 310.096 232.419 308.624 237.413 307.152C242.406 305.68 247.4 304.208 252.393 302.737L250.692 296.962ZM220.729 305.791L214.876 304.377L193.489 392.916L199.342 394.33L205.195 395.744L226.582 307.205L220.729 305.791ZM199.342 394.33L200.334 388.391C198.523 388.088 196.706 387.815 194.887 387.564L194.066 393.529L193.244 399.494C194.966 399.731 196.667 399.987 198.349 400.269L199.342 394.33ZM194.066 393.529L194.888 387.565C194.005 387.443 193.112 387.331 192.225 387.224L191.507 393.203L190.788 399.181C191.638 399.283 192.455 399.386 193.244 399.494L194.066 393.529ZM191.507 393.203L197.359 394.616L219.989 300.934L214.136 299.52L208.283 298.106L185.654 391.789L191.507 393.203ZM214.136 299.52L215.839 305.296C227.279 301.923 238.718 298.553 250.161 295.181L248.459 289.405L246.757 283.629C235.316 287.001 223.874 290.372 212.434 293.745L214.136 299.52ZM248.459 289.405L250.162 295.181L284.485 285.064L282.782 279.289L281.08 273.513L246.757 283.629L248.459 289.405ZM282.782 279.289L278.631 283.651C282.952 287.763 287.273 291.874 291.593 295.985C295.914 300.097 300.234 304.208 304.555 308.32L308.706 303.958L312.857 299.596C308.536 295.484 304.215 291.373 299.895 287.261C295.575 283.15 291.254 279.039 286.933 274.927L282.782 279.289Z" fill="#00A86B" mask="url(#path-3-outside-2_89_3430)"/>
<path d="M322.899 118.532C232.069 141.357 158.869 205.1 134.609 292.72C135.385 291.773 136.173 290.829 136.959 289.899C141.471 284.563 146.301 279.271 149.19 275.949C158.288 265.488 174.603 251.596 191.442 239.673C208.191 227.814 225.998 217.514 238.07 214.668L246.467 212.688L241.124 219.462C240.318 220.485 238.961 221.525 237.688 222.419C236.32 223.379 234.689 224.412 233.061 225.409C230.106 227.22 227.288 228.846 225.54 229.973L224.859 230.424C184.197 258.374 157.733 296.203 145.496 347.096C140.232 368.989 140.398 382.562 143.629 391.142C146.742 399.407 152.898 403.512 161.331 405.955C170.042 408.479 180.377 409.039 191.728 410.603C202.817 412.131 214.495 414.605 224.628 421.155C229.124 424.06 235.134 429.452 239.945 435.263C242.36 438.179 244.546 441.289 246.097 444.333C247.616 447.316 248.688 450.552 248.454 453.613L248.198 456.961L244.898 456.343C234.344 454.367 223.029 451.008 212.825 448.674C208.29 447.637 204.614 447.869 201.643 448.98C198.686 450.086 196.183 452.154 194.131 455.212C190.748 460.256 191.031 467.994 193.515 476.485C195.946 484.791 200.225 492.917 203.502 497.921C212.894 512.265 226.051 517.387 245.415 523.747C252.792 526.171 258.52 527.857 262.634 529.275C266.806 530.713 270.02 532.091 272.54 534.195C275.143 536.368 276.755 539.096 278.209 542.715C279.629 546.247 281.03 550.987 283.01 557.294L286.566 568.58C290.145 579.888 293.787 591.224 297.44 602.237C299.985 609.914 301.897 617.292 304.749 625.046L304.748 625.045C305.02 625.784 305.273 626.511 305.506 627.229L305.534 627.253L305.785 628.103L305.887 628.448L306.141 629.312L314.619 658.078L314.62 658.079C315.272 660.294 313.711 661.747 312.988 662.251C312.178 662.815 311.164 663.182 310.209 663.446C308.219 663.995 305.399 664.381 301.937 664.578C294.958 664.977 284.834 664.637 272.305 662.949C247.226 659.57 212.302 650.761 173.344 631.414L172.168 630.83L171.796 629.571C167.31 614.393 158.152 583.816 148.985 555.655C144.4 541.571 139.823 528.122 135.833 517.516C133.837 512.21 132.002 507.65 130.395 504.092C128.747 500.44 127.459 498.121 126.602 497.071C121.743 491.119 112.118 486.627 103.135 483.599C98.7377 482.116 94.6641 481.039 91.6883 480.331C90.2024 479.978 88.9945 479.719 88.1633 479.548C87.7481 479.463 87.427 479.4 87.2125 479.359C87.1053 479.338 87.0246 479.323 86.9722 479.314C86.9463 479.309 86.9274 479.305 86.9155 479.303C86.9097 479.302 86.9053 479.301 86.9029 479.301L86.901 479.301L86.8731 479.296L86.8453 479.29L70.8446 476.111L69.2466 475.793L68.6379 474.283C63.4985 461.523 59.7957 443.401 57.5549 425.259C55.3098 407.084 54.5009 388.622 55.2589 375.086L55.2632 375.006L55.2723 374.927L59.4609 336.629L59.4821 336.438L67.0658 305.043L67.184 304.782L69.9001 298.807C70.5758 296.941 71.2045 295.094 71.8621 293.168C79.7614 270.012 94.9008 243.28 108.838 224.402L108.839 224.401C161.883 152.56 241.592 115.26 322.067 112.604L322.899 118.532Z" stroke="#00A86B" stroke-width="6.02129"/>
<path d="M85.3417 481.116C88.4447 481.853 92.7031 482.979 97.3189 484.535C106.362 487.584 117.488 492.507 123.527 499.903L123.528 499.903C124.941 501.634 126.505 504.625 128.144 508.256C129.825 511.98 131.713 516.674 133.73 522.038C137.767 532.769 142.376 546.318 146.972 560.434C156.164 588.675 165.341 619.313 169.831 634.507L171.788 641.127L165.605 638.058C165.169 637.841 164.667 637.596 164.189 637.355L164.134 637.326L164.08 637.296C124.409 615.179 98.8755 576.459 83.2919 543.569C75.4834 527.088 70.1305 511.981 66.7279 500.99C65.026 495.493 63.8097 491.02 63.0178 487.914C62.6219 486.36 62.3322 485.147 62.1401 484.319C62.0441 483.905 61.9724 483.587 61.9243 483.37C61.9219 483.359 61.9205 483.347 61.9182 483.337C61.5723 482.554 61.2295 481.749 60.8977 480.923L58.8247 475.764L64.2784 476.847L80.2521 480.022L80.2542 480.021C80.2718 480.025 80.2971 480.03 80.3292 480.035C80.3932 480.047 80.4856 480.065 80.6048 480.088C80.8439 480.134 81.1909 480.201 81.6335 480.292C82.5186 480.474 83.7882 480.746 85.3417 481.116Z" stroke="#00A86B" stroke-width="6.02129"/>
<path d="M483.642 384.269L597.945 491.925L599.473 493.364L598.651 495.297C579.781 539.63 541.428 574.449 503.68 602.564L500.03 605.264C484.135 616.943 477.862 621.598 460.04 631.304C422.881 651.541 382.895 661.995 338.606 663.841C331.108 664.153 325.924 663.26 322.206 660.341C318.566 657.483 316.914 653.085 315.282 648.356L315.282 648.355C311.784 638.211 307.988 625.532 304.189 613.048C300.376 600.518 296.559 588.183 292.985 578.578C289.409 568.964 287.332 561.241 285.655 554.962C283.955 548.599 282.73 544.007 280.86 540.231C277.376 533.191 271.45 528.578 252.872 522.781C241.408 519.203 232.209 516.567 224.5 512.584C216.61 508.507 210.268 503.031 204.19 493.853C201.833 490.293 198.36 482.831 196.322 475.418C195.299 471.7 194.586 467.816 194.621 464.33C194.655 460.926 195.41 457.32 197.964 454.855L198.323 454.52C200.13 452.882 202.154 451.831 204.459 451.355C206.858 450.859 209.387 451.02 212.037 451.543L212.039 451.543C238.53 456.775 282.388 468.31 311.028 475.481C321.731 478.16 329.944 480.76 335.355 489.538L335.611 489.961L335.705 490.122L335.781 490.293L355.141 534.686L355.142 534.691C358.484 542.385 362.402 549.072 366.765 554.863C379.205 543.784 401.392 522.568 423.124 494.525C446.342 464.566 468.915 426.978 478.648 385.769L479.847 380.694L483.642 384.269ZM495.089 438.344C494.09 440.355 492.654 443.103 490.721 446.475C486.437 453.95 479.712 464.494 469.907 476.87C450.708 501.103 419.709 532.345 372.136 561.321C388.677 579.255 410.477 586.765 432.884 587.421C456.421 588.11 480.481 581.217 499.307 571.016C509.004 565.76 517.089 560.017 523.18 555.347C526.231 553.009 528.765 550.953 530.785 549.336C532.506 547.959 534.073 546.715 535.194 546.044C547.588 535.542 558.391 519.02 565.46 503.809L495.089 438.344Z" stroke="#00A86B" stroke-width="6.02129"/>
<path d="M561.329 346.127L558.348 346.546C561.228 346.142 561.326 346.13 561.33 346.13C561.33 346.131 561.331 346.132 561.331 346.134C561.331 346.136 561.331 346.14 561.331 346.144C561.333 346.152 561.334 346.162 561.336 346.175C561.339 346.201 561.344 346.238 561.35 346.284C561.362 346.376 561.378 346.508 561.398 346.679C561.438 347.021 561.492 347.518 561.55 348.161C561.668 349.446 561.805 351.314 561.89 353.688C562.06 358.436 562.022 365.217 561.199 373.42C559.552 389.821 554.761 411.957 542.174 434.891L540.303 438.302L537.47 435.635L525.144 424.022L523.817 422.773L524.309 421.018C530.737 398.094 534.472 391.549 532.855 371.621L444.307 350.241C444.299 350.633 444.293 351.054 444.282 351.501C444.194 354.797 443.977 359.579 443.458 365.572C442.419 377.555 440.17 394.392 435.33 413.858C425.653 452.776 405.585 502.335 363.995 544.59L359.345 540.806L359.346 540.805C359.348 540.802 359.351 540.799 359.354 540.793C359.361 540.782 359.373 540.764 359.389 540.74C359.421 540.693 359.469 540.619 359.534 540.52C359.663 540.322 359.858 540.02 360.113 539.619C360.623 538.819 361.373 537.62 362.323 536.047C364.224 532.9 366.924 528.252 370.101 522.287C376.454 510.352 384.706 493.153 392.276 472.131C407.426 430.057 419.781 372.847 408.912 311.927L408.104 307.396L412.578 308.47L559.051 343.619L561.044 344.097L561.329 346.127Z" stroke="#00A86B" stroke-width="6.02129"/>
<path d="M412.179 379.454C412.534 384.939 412.439 392.603 411.38 403.287L411.128 405.83L408.577 405.994L373.228 408.263C373.229 408.275 373.23 408.287 373.231 408.298C373.343 410.295 373.473 413.206 373.546 416.892C373.691 424.261 373.608 434.736 372.697 447.192C370.875 472.08 365.739 505.003 352.426 536.911L346.818 534.9L346.765 534.884C346.765 534.882 346.767 534.877 346.769 534.872C346.773 534.857 346.78 534.831 346.79 534.794C346.812 534.72 346.845 534.6 346.889 534.434C346.976 534.102 347.107 533.584 347.268 532.878C347.59 531.467 348.033 529.3 348.496 526.347C349.423 520.443 350.431 511.393 350.717 498.952C351.288 474.07 348.967 435.614 337.312 381.615L336.541 378.04L340.197 377.969L409.117 376.639L411.993 376.584L412.179 379.454Z" stroke="#00A86B" stroke-width="6.02129"/>
<path d="M493.122 107.656L525.91 138.859L485.02 308.135L416.601 291.716C413.776 291.038 410.985 290.94 408.319 291.395L457.544 87.6137L419.644 98.7818C407.012 102.504 394.378 106.226 381.745 109.95L298.512 454.52C295.327 453.703 292.137 452.886 288.946 452.066L373.497 102.042C387.97 97.776 402.444 93.5117 416.914 89.2472L460.332 76.4535C471.26 86.8532 482.192 97.2534 493.122 107.656ZM395.316 345.226C395.578 350.035 395.707 354.848 395.707 359.661L391.811 359.735L395.316 345.226Z" fill="#00A86B"/>
<path d="M493.122 107.656L491.738 109.11L491.738 109.11L493.122 107.656ZM525.91 138.859L527.861 139.33C528.029 138.633 527.813 137.899 527.294 137.405L525.91 138.859ZM485.02 308.135L484.552 310.086C485.628 310.345 486.711 309.682 486.971 308.606L485.02 308.135ZM416.601 291.716L416.132 293.668L416.133 293.668L416.601 291.716ZM408.319 291.395L406.368 290.924C406.209 291.58 406.391 292.272 406.852 292.765C407.313 293.259 407.991 293.487 408.657 293.374L408.319 291.395ZM457.544 87.6137L459.495 88.085C459.663 87.388 459.447 86.6541 458.927 86.1598C458.408 85.6654 457.664 85.4858 456.976 85.6885L457.544 87.6137ZM419.644 98.7818L420.211 100.707L420.211 100.707L419.644 98.7818ZM381.745 109.95L381.178 108.025C380.49 108.228 379.963 108.782 379.794 109.479L381.745 109.95ZM298.512 454.52L298.013 456.464C298.534 456.598 299.086 456.517 299.546 456.24C300.006 455.963 300.337 455.514 300.463 454.992L298.512 454.52ZM288.946 452.066L286.995 451.595C286.737 452.661 287.383 453.736 288.446 454.01L288.946 452.066ZM373.497 102.042L372.929 100.117C372.241 100.32 371.714 100.874 371.546 101.571L373.497 102.042ZM416.914 89.2472L416.347 87.322L416.347 87.322L416.914 89.2472ZM460.332 76.4535L461.716 74.9995C461.196 74.5052 460.453 74.3256 459.765 74.5282L460.332 76.4535ZM395.316 345.226L397.32 345.116C397.265 344.122 396.49 343.318 395.498 343.227C394.507 343.136 393.598 343.787 393.365 344.755L395.316 345.226ZM395.707 359.661L395.745 361.667C396.838 361.647 397.714 360.754 397.714 359.661L395.707 359.661ZM391.811 359.735L389.86 359.264C389.714 359.869 389.856 360.507 390.246 360.992C390.635 361.477 391.227 361.754 391.849 361.742L391.811 359.735ZM491.773 103.602C490.97 102.837 489.7 102.869 488.935 103.672C488.171 104.475 488.203 105.745 489.006 106.509L490.389 105.055L491.773 103.602ZM483.541 101.309C484.344 102.073 485.614 102.042 486.378 101.239C487.143 100.435 487.111 99.1651 486.308 98.4009L484.925 99.8549L483.541 101.309ZM480.843 93.2005C480.04 92.4364 478.77 92.4679 478.006 93.271C477.241 94.074 477.273 95.3444 478.076 96.1085L479.46 94.6545L480.843 93.2005ZM472.611 90.9083C473.414 91.6724 474.684 91.6409 475.449 90.8379C476.213 90.0348 476.181 88.7644 475.378 88.0003L473.995 89.4543L472.611 90.9083ZM469.913 82.8C469.11 82.0359 467.84 82.0674 467.075 82.8705C466.311 83.6735 466.343 84.9439 467.146 85.7081L468.529 84.254L469.913 82.8ZM461.681 80.5077C462.484 81.2718 463.754 81.2403 464.518 80.4373C465.283 79.6343 465.251 78.3639 464.448 77.5997L463.065 79.0537L461.681 80.5077ZM456.147 75.5944C455.083 75.9077 454.475 77.0236 454.789 78.0869C455.102 79.1502 456.218 79.7582 457.281 79.4449L456.714 77.5196L456.147 75.5944ZM450.045 81.5772C451.108 81.2639 451.716 80.1479 451.403 79.0846C451.09 78.0213 449.974 77.4134 448.91 77.7267L449.478 79.6519L450.045 81.5772ZM441.674 79.859C440.611 80.1723 440.003 81.2882 440.316 82.3515C440.629 83.4148 441.745 84.0228 442.809 83.7095L442.241 81.7842L441.674 79.859ZM435.572 85.8418C436.635 85.5284 437.243 84.4125 436.93 83.3492C436.617 82.2859 435.501 81.6779 434.438 81.9913L435.005 83.9165L435.572 85.8418ZM427.201 84.1236C426.138 84.4369 425.53 85.5528 425.843 86.6161C426.157 87.6794 427.273 88.2874 428.336 87.974L427.769 86.0488L427.201 84.1236ZM421.099 90.1063C422.163 89.793 422.771 88.6771 422.457 87.6138C422.144 86.5505 421.028 85.9425 419.965 86.2558L420.532 88.1811L421.099 90.1063ZM412.729 88.3883C411.665 88.7016 411.057 89.8176 411.371 90.8808C411.684 91.9441 412.8 92.5521 413.863 92.2387L413.296 90.3135L412.729 88.3883ZM406.627 94.3711C407.69 94.0578 408.298 92.9418 407.985 91.8786C407.672 90.8153 406.556 90.2073 405.492 90.5206L406.06 92.4459L406.627 94.3711ZM398.256 92.653C397.193 92.9663 396.585 94.0823 396.898 95.1456C397.211 96.2088 398.327 96.8168 399.391 96.5035L398.823 94.5782L398.256 92.653ZM392.154 98.6359C393.218 98.3225 393.826 97.2066 393.512 96.1433C393.199 95.08 392.083 94.472 391.02 94.7854L391.587 96.7106L392.154 98.6359ZM383.783 96.9179C382.72 97.2312 382.112 98.3472 382.426 99.4105C382.739 100.474 383.855 101.082 384.918 100.768L384.351 98.8431L383.783 96.9179ZM377.682 102.901C378.745 102.588 379.353 101.472 379.04 100.408C378.727 99.3451 377.611 98.7372 376.547 99.0506L377.115 100.976L377.682 102.901ZM370.733 104.937C370.472 106.014 371.135 107.098 372.212 107.359C373.29 107.619 374.374 106.957 374.635 105.879L372.684 105.408L370.733 104.937ZM373.009 112.61C373.269 111.533 372.606 110.448 371.529 110.188C370.451 109.928 369.367 110.59 369.107 111.668L371.058 112.139L373.009 112.61ZM367.481 118.399C367.22 119.476 367.883 120.561 368.96 120.821C370.038 121.081 371.122 120.419 371.383 119.342L369.432 118.87L367.481 118.399ZM369.757 126.073C370.017 124.995 369.354 123.911 368.277 123.65C367.199 123.39 366.115 124.053 365.855 125.13L367.806 125.601L369.757 126.073ZM364.229 131.861C363.968 132.939 364.631 134.023 365.708 134.284C366.786 134.544 367.87 133.881 368.131 132.804L366.18 132.333L364.229 131.861ZM366.505 139.535C366.765 138.458 366.103 137.373 365.025 137.113C363.948 136.853 362.863 137.515 362.603 138.593L364.554 139.064L366.505 139.535ZM360.977 145.324C360.716 146.401 361.379 147.486 362.456 147.746C363.534 148.006 364.618 147.344 364.879 146.266L362.928 145.795L360.977 145.324ZM363.253 152.998C363.513 151.92 362.851 150.836 361.773 150.575C360.696 150.315 359.611 150.978 359.351 152.055L361.302 152.526L363.253 152.998ZM357.725 158.786C357.465 159.864 358.127 160.948 359.205 161.209C360.282 161.469 361.366 160.806 361.627 159.729L359.676 159.258L357.725 158.786ZM360.001 166.46C360.261 165.383 359.599 164.298 358.521 164.038C357.444 163.778 356.359 164.44 356.099 165.518L358.05 165.989L360.001 166.46ZM354.473 172.249C354.213 173.326 354.875 174.411 355.953 174.671C357.03 174.931 358.115 174.269 358.375 173.191L356.424 172.72L354.473 172.249ZM356.749 179.923C357.009 178.845 356.347 177.761 355.269 177.5C354.192 177.24 353.107 177.902 352.847 178.98L354.798 179.451L356.749 179.923ZM351.221 185.711C350.961 186.789 351.623 187.873 352.701 188.133C353.778 188.394 354.863 187.731 355.123 186.654L353.172 186.182L351.221 185.711ZM353.497 193.385C353.757 192.307 353.095 191.223 352.017 190.963C350.94 190.702 349.855 191.365 349.595 192.442L351.546 192.914L353.497 193.385ZM347.969 199.174C347.709 200.251 348.371 201.336 349.449 201.596C350.526 201.856 351.611 201.194 351.871 200.116L349.92 199.645L347.969 199.174ZM350.245 206.847C350.505 205.77 349.843 204.685 348.765 204.425C347.688 204.165 346.603 204.827 346.343 205.905L348.294 206.376L350.245 206.847ZM344.717 212.636C344.457 213.714 345.119 214.798 346.197 215.058C347.274 215.319 348.359 214.656 348.619 213.579L346.668 213.107L344.717 212.636ZM346.993 220.31C347.253 219.232 346.591 218.148 345.513 217.888C344.436 217.627 343.351 218.29 343.091 219.367L345.042 219.839L346.993 220.31ZM341.465 226.099C341.205 227.176 341.867 228.26 342.945 228.521C344.022 228.781 345.107 228.119 345.367 227.041L343.416 226.57L341.465 226.099ZM343.741 233.772C344.001 232.695 343.339 231.61 342.261 231.35C341.184 231.09 340.099 231.752 339.839 232.83L341.79 233.301L343.741 233.772ZM338.213 239.561C337.953 240.638 338.615 241.723 339.693 241.983C340.77 242.243 341.855 241.581 342.115 240.504L340.164 240.032L338.213 239.561ZM340.489 247.235C340.749 246.157 340.087 245.073 339.009 244.812C337.932 244.552 336.847 245.215 336.587 246.292L338.538 246.763L340.489 247.235ZM334.961 253.023C334.701 254.101 335.363 255.185 336.441 255.446C337.518 255.706 338.603 255.043 338.863 253.966L336.912 253.495L334.961 253.023ZM337.237 260.697C337.497 259.62 336.835 258.535 335.757 258.275C334.68 258.015 333.595 258.677 333.335 259.755L335.286 260.226L337.237 260.697ZM331.709 266.486C331.449 267.563 332.111 268.648 333.189 268.908C334.266 269.168 335.351 268.506 335.611 267.428L333.66 266.957L331.709 266.486ZM333.985 274.16C334.245 273.082 333.583 271.998 332.505 271.737C331.428 271.477 330.343 272.14 330.083 273.217L332.034 273.688L333.985 274.16ZM328.457 279.948C328.197 281.026 328.859 282.11 329.937 282.371C331.014 282.631 332.099 281.968 332.359 280.891L330.408 280.42L328.457 279.948ZM330.733 287.622C330.993 286.545 330.331 285.46 329.253 285.2C328.176 284.94 327.091 285.602 326.831 286.679L328.782 287.151L330.733 287.622ZM325.205 293.411C324.945 294.488 325.607 295.573 326.685 295.833C327.762 296.093 328.847 295.431 329.107 294.353L327.156 293.882L325.205 293.411ZM327.481 301.084C327.741 300.007 327.079 298.923 326.001 298.662C324.924 298.402 323.839 299.064 323.579 300.142L325.53 300.613L327.481 301.084ZM321.953 306.873C321.693 307.951 322.355 309.035 323.433 309.295C324.51 309.556 325.595 308.893 325.855 307.816L323.904 307.344L321.953 306.873ZM324.229 314.547C324.489 313.469 323.827 312.385 322.75 312.125C321.672 311.864 320.588 312.527 320.327 313.604L322.278 314.076L324.229 314.547ZM318.701 320.336C318.441 321.413 319.103 322.498 320.181 322.758C321.258 323.018 322.343 322.356 322.603 321.278L320.652 320.807L318.701 320.336ZM320.977 328.009C321.238 326.932 320.575 325.847 319.498 325.587C318.42 325.327 317.336 325.989 317.075 327.067L319.026 327.538L320.977 328.009ZM315.449 333.798C315.189 334.876 315.852 335.96 316.929 336.22C318.007 336.481 319.091 335.818 319.351 334.741L317.4 334.269L315.449 333.798ZM317.725 341.472C317.986 340.394 317.323 339.31 316.246 339.05C315.168 338.789 314.084 339.452 313.823 340.529L315.774 341.001L317.725 341.472ZM312.197 347.26C311.937 348.338 312.6 349.422 313.677 349.683C314.755 349.943 315.839 349.281 316.099 348.203L314.148 347.732L312.197 347.26ZM314.473 354.934C314.734 353.857 314.071 352.772 312.994 352.512C311.916 352.252 310.832 352.914 310.571 353.992L312.522 354.463L314.473 354.934ZM308.945 360.723C308.685 361.8 309.348 362.885 310.425 363.145C311.503 363.405 312.587 362.743 312.847 361.665L310.896 361.194L308.945 360.723ZM311.221 368.397C311.482 367.319 310.819 366.235 309.742 365.974C308.664 365.714 307.58 366.377 307.319 367.454L309.27 367.925L311.221 368.397ZM305.693 374.185C305.433 375.263 306.096 376.347 307.173 376.608C308.251 376.868 309.335 376.205 309.595 375.128L307.644 374.657L305.693 374.185ZM307.969 381.859C308.23 380.782 307.567 379.697 306.49 379.437C305.412 379.177 304.328 379.839 304.067 380.917L306.018 381.388L307.969 381.859ZM302.441 387.648C302.181 388.725 302.844 389.81 303.921 390.07C304.999 390.33 306.083 389.668 306.343 388.59L304.392 388.119L302.441 387.648ZM304.717 395.322C304.978 394.244 304.315 393.16 303.238 392.899C302.16 392.639 301.076 393.302 300.815 394.379L302.766 394.85L304.717 395.322ZM299.189 401.11C298.929 402.188 299.592 403.272 300.669 403.533C301.747 403.793 302.831 403.13 303.091 402.053L301.14 401.582L299.189 401.11ZM301.465 408.784C301.726 407.707 301.063 406.622 299.986 406.362C298.908 406.102 297.824 406.764 297.563 407.842L299.514 408.313L301.465 408.784ZM295.938 414.573C295.677 415.65 296.34 416.735 297.417 416.995C298.495 417.255 299.579 416.593 299.839 415.515L297.888 415.044L295.938 414.573ZM298.213 422.247C298.474 421.169 297.811 420.085 296.734 419.824C295.656 419.564 294.572 420.227 294.312 421.304L296.263 421.775L298.213 422.247ZM292.686 428.035C292.425 429.113 293.088 430.197 294.165 430.458C295.243 430.718 296.327 430.055 296.588 428.978L294.637 428.507L292.686 428.035ZM294.962 435.709C295.222 434.632 294.559 433.547 293.482 433.287C292.404 433.027 291.32 433.689 291.06 434.767L293.011 435.238L294.962 435.709ZM289.434 441.498C289.173 442.575 289.836 443.66 290.913 443.92C291.991 444.18 293.075 443.518 293.336 442.44L291.385 441.969L289.434 441.498ZM291.71 449.172C291.97 448.094 291.307 447.01 290.23 446.749C289.152 446.489 288.068 447.151 287.808 448.229L289.759 448.7L291.71 449.172ZM290.838 454.624C291.911 454.9 293.005 454.253 293.281 453.179C293.557 452.106 292.91 451.012 291.836 450.736L291.337 452.68L290.838 454.624ZM296.619 451.963C295.545 451.688 294.451 452.335 294.176 453.409C293.901 454.482 294.548 455.576 295.622 455.851L296.12 453.907L296.619 451.963ZM301.295 451.546C301.555 450.468 300.893 449.384 299.815 449.124C298.738 448.863 297.653 449.526 297.393 450.603L299.344 451.075L301.295 451.546ZM299.058 443.712C298.797 444.789 299.46 445.874 300.537 446.134C301.615 446.394 302.699 445.732 302.96 444.654L301.009 444.183L299.058 443.712ZM304.624 437.763C304.885 436.685 304.222 435.601 303.145 435.341C302.067 435.08 300.983 435.743 300.722 436.82L302.673 437.292L304.624 437.763ZM302.387 429.929C302.127 431.007 302.789 432.091 303.867 432.351C304.944 432.612 306.029 431.949 306.289 430.872L304.338 430.4L302.387 429.929ZM307.954 423.98C308.214 422.903 307.552 421.818 306.474 421.558C305.397 421.298 304.312 421.96 304.052 423.038L306.003 423.509L307.954 423.98ZM305.716 416.146C305.456 417.224 306.119 418.308 307.196 418.569C308.274 418.829 309.358 418.166 309.618 417.089L307.667 416.618L305.716 416.146ZM311.283 410.197C311.543 409.12 310.881 408.035 309.803 407.775C308.726 407.515 307.641 408.177 307.381 409.255L309.332 409.726L311.283 410.197ZM309.046 402.363C308.786 403.441 309.448 404.525 310.526 404.786C311.603 405.046 312.687 404.384 312.948 403.306L310.997 402.835L309.046 402.363ZM314.612 396.415C314.873 395.337 314.21 394.253 313.133 393.992C312.055 393.732 310.971 394.395 310.71 395.472L312.661 395.943L314.612 396.415ZM312.375 388.581C312.115 389.658 312.777 390.743 313.855 391.003C314.932 391.263 316.017 390.601 316.277 389.523L314.326 389.052L312.375 388.581ZM317.942 382.632C318.202 381.554 317.54 380.47 316.462 380.21C315.385 379.949 314.3 380.612 314.04 381.689L315.991 382.161L317.942 382.632ZM315.704 374.798C315.444 375.875 316.107 376.96 317.184 377.22C318.262 377.48 319.346 376.818 319.606 375.74L317.655 375.269L315.704 374.798ZM321.271 368.849C321.531 367.772 320.869 366.687 319.791 366.427C318.714 366.166 317.629 366.829 317.369 367.906L319.32 368.378L321.271 368.849ZM319.034 361.015C318.774 362.093 319.436 363.177 320.514 363.437C321.591 363.698 322.676 363.035 322.936 361.958L320.985 361.486L319.034 361.015ZM324.6 355.066C324.861 353.989 324.198 352.904 323.121 352.644C322.043 352.384 320.959 353.046 320.699 354.124L322.649 354.595L324.6 355.066ZM322.363 347.232C322.103 348.31 322.765 349.394 323.843 349.654C324.92 349.915 326.005 349.252 326.265 348.175L324.314 347.704L322.363 347.232ZM327.93 341.283C328.19 340.206 327.528 339.121 326.45 338.861C325.373 338.601 324.288 339.263 324.028 340.341L325.979 340.812L327.93 341.283ZM325.693 333.449C325.432 334.527 326.095 335.611 327.172 335.872C328.25 336.132 329.334 335.469 329.594 334.392L327.644 333.921L325.693 333.449ZM331.259 327.501C331.519 326.423 330.857 325.339 329.779 325.078C328.702 324.818 327.617 325.481 327.357 326.558L329.308 327.029L331.259 327.501ZM329.022 319.667C328.762 320.744 329.424 321.829 330.502 322.089C331.579 322.349 332.664 321.687 332.924 320.609L330.973 320.138L329.022 319.667ZM334.589 313.718C334.849 312.64 334.186 311.556 333.109 311.296C332.031 311.035 330.947 311.698 330.687 312.775L332.638 313.247L334.589 313.718ZM332.351 305.884C332.091 306.961 332.753 308.046 333.831 308.306C334.908 308.566 335.993 307.904 336.253 306.826L334.302 306.355L332.351 305.884ZM337.918 299.935C338.178 298.857 337.516 297.773 336.438 297.513C335.361 297.252 334.276 297.915 334.016 298.992L335.967 299.464L337.918 299.935ZM335.681 292.101C335.42 293.179 336.083 294.263 337.16 294.523C338.238 294.784 339.322 294.121 339.583 293.044L337.632 292.572L335.681 292.101ZM341.247 286.152C341.507 285.075 340.845 283.99 339.768 283.73C338.69 283.47 337.606 284.132 337.345 285.21L339.296 285.681L341.247 286.152ZM339.01 278.318C338.75 279.396 339.412 280.48 340.49 280.74C341.567 281.001 342.652 280.338 342.912 279.261L340.961 278.789L339.01 278.318ZM344.577 272.369C344.837 271.292 344.174 270.207 343.097 269.947C342.019 269.687 340.935 270.349 340.675 271.427L342.626 271.898L344.577 272.369ZM342.339 264.535C342.079 265.613 342.741 266.697 343.819 266.958C344.896 267.218 345.981 266.555 346.241 265.478L344.29 265.007L342.339 264.535ZM347.906 258.587C348.166 257.509 347.504 256.425 346.426 256.164C345.349 255.904 344.264 256.566 344.004 257.644L345.955 258.115L347.906 258.587ZM345.669 250.753C345.408 251.83 346.071 252.915 347.148 253.175C348.226 253.435 349.31 252.773 349.571 251.695L347.62 251.224L345.669 250.753ZM351.235 244.804C351.496 243.726 350.833 242.642 349.756 242.381C348.678 242.121 347.594 242.784 347.333 243.861L349.284 244.332L351.235 244.804ZM348.998 236.97C348.738 238.047 349.4 239.132 350.478 239.392C351.555 239.652 352.64 238.99 352.9 237.912L350.949 237.441L348.998 236.97ZM354.565 231.021C354.825 229.943 354.162 228.859 353.085 228.599C352.007 228.338 350.923 229.001 350.663 230.078L352.614 230.55L354.565 231.021ZM352.327 223.187C352.067 224.264 352.73 225.349 353.807 225.609C354.885 225.869 355.969 225.207 356.229 224.129L354.278 223.658L352.327 223.187ZM357.894 217.238C358.154 216.161 357.492 215.076 356.414 214.816C355.337 214.556 354.252 215.218 353.992 216.296L355.943 216.767L357.894 217.238ZM355.657 209.404C355.396 210.482 356.059 211.566 357.136 211.826C358.214 212.087 359.298 211.424 359.559 210.347L357.608 209.875L355.657 209.404ZM361.223 203.455C361.484 202.378 360.821 201.293 359.744 201.033C358.666 200.773 357.582 201.435 357.321 202.513L359.272 202.984L361.223 203.455ZM358.986 195.621C358.726 196.699 359.388 197.783 360.466 198.044C361.543 198.304 362.628 197.641 362.888 196.564L360.937 196.093L358.986 195.621ZM364.553 189.672C364.813 188.595 364.15 187.51 363.073 187.25C361.995 186.99 360.911 187.652 360.651 188.73L362.602 189.201L364.553 189.672ZM362.315 181.839C362.055 182.916 362.718 184.001 363.795 184.261C364.873 184.521 365.957 183.859 366.217 182.781L364.266 182.31L362.315 181.839ZM367.882 175.89C368.142 174.812 367.48 173.728 366.402 173.467C365.325 173.207 364.24 173.87 363.98 174.947L365.931 175.418L367.882 175.89ZM365.645 168.056C365.384 169.133 366.047 170.218 367.124 170.478C368.202 170.738 369.286 170.076 369.547 168.998L367.596 168.527L365.645 168.056ZM371.211 162.107C371.472 161.029 370.809 159.945 369.732 159.685C368.654 159.424 367.57 160.087 367.309 161.164L369.26 161.636L371.211 162.107ZM368.974 154.273C368.714 155.35 369.376 156.435 370.454 156.695C371.531 156.956 372.616 156.293 372.876 155.216L370.925 154.744L368.974 154.273ZM374.541 148.324C374.801 147.247 374.138 146.162 373.061 145.902C371.983 145.642 370.899 146.304 370.639 147.382L372.59 147.853L374.541 148.324ZM372.303 140.49C372.043 141.568 372.706 142.652 373.783 142.912C374.861 143.173 375.945 142.51 376.205 141.433L374.254 140.961L372.303 140.49ZM377.87 134.541C378.13 133.464 377.468 132.379 376.39 132.119C375.313 131.859 374.228 132.521 373.968 133.599L375.919 134.07L377.87 134.541ZM375.633 126.707C375.372 127.785 376.035 128.869 377.112 129.13C378.19 129.39 379.274 128.727 379.535 127.65L377.584 127.179L375.633 126.707ZM381.199 120.759C381.46 119.681 380.797 118.597 379.72 118.336C378.642 118.076 377.558 118.739 377.297 119.816L379.248 120.287L381.199 120.759ZM378.962 112.925C378.702 114.002 379.364 115.087 380.442 115.347C381.519 115.607 382.604 114.945 382.864 113.867L380.913 113.396L378.962 112.925ZM385.471 110.944C386.534 110.631 387.142 109.515 386.829 108.452C386.515 107.388 385.399 106.78 384.336 107.094L384.904 109.019L385.471 110.944ZM390.652 105.232C389.589 105.545 388.981 106.661 389.295 107.725C389.608 108.788 390.724 109.396 391.787 109.083L391.22 107.157L390.652 105.232ZM398.104 107.221C399.167 106.908 399.775 105.792 399.462 104.729C399.148 103.665 398.032 103.057 396.969 103.371L397.536 105.296L398.104 107.221ZM403.286 101.509C402.222 101.823 401.614 102.939 401.928 104.002C402.241 105.065 403.357 105.673 404.42 105.36L403.853 103.435L403.286 101.509ZM410.737 103.499C411.8 103.186 412.408 102.07 412.095 101.006C411.781 99.943 410.665 99.335 409.602 99.6483L410.169 101.574L410.737 103.499ZM415.919 97.7872C414.855 98.1005 414.247 99.2164 414.561 100.28C414.874 101.343 415.99 101.951 417.053 101.638L416.486 99.7124L415.919 97.7872ZM423.37 99.7764C424.433 99.4631 425.041 98.3471 424.728 97.2838C424.414 96.2205 423.298 95.6126 422.235 95.9259L422.802 97.8511L423.37 99.7764ZM428.552 94.0645C427.488 94.3779 426.88 95.4938 427.194 96.5571C427.507 97.6204 428.623 98.2284 429.686 97.915L429.119 95.9898L428.552 94.0645ZM436.003 96.0537C437.066 95.7404 437.674 94.6244 437.361 93.5611C437.048 92.4978 435.932 91.8899 434.868 92.2032L435.436 94.1284L436.003 96.0537ZM441.185 90.3418C440.122 90.6552 439.514 91.7711 439.827 92.8344C440.14 93.8977 441.256 94.5057 442.32 94.1923L441.752 92.2671L441.185 90.3418ZM448.636 92.331C449.699 92.0177 450.307 90.9017 449.994 89.8384C449.681 88.7751 448.565 88.1672 447.502 88.4805L448.069 90.4057L448.636 92.331ZM453.818 86.6191C452.755 86.9325 452.147 88.0484 452.46 89.1117C452.774 90.175 453.89 90.783 454.953 90.4696L454.386 88.5444L453.818 86.6191ZM454.772 90.5388C454.512 91.6163 455.175 92.7008 456.252 92.9611C457.33 93.2213 458.414 92.5588 458.674 91.4813L456.723 91.0101L454.772 90.5388ZM457.034 98.2741C457.294 97.1966 456.631 96.1121 455.554 95.8518C454.476 95.5915 453.392 96.254 453.132 97.3315L455.083 97.8028L457.034 98.2741ZM451.491 104.124C451.23 105.202 451.893 106.286 452.97 106.546C454.048 106.807 455.132 106.144 455.393 105.067L453.442 104.596L451.491 104.124ZM453.752 111.86C454.012 110.782 453.35 109.698 452.272 109.437C451.195 109.177 450.11 109.839 449.85 110.917L451.801 111.388L453.752 111.86ZM448.209 117.71C447.949 118.787 448.611 119.872 449.689 120.132C450.766 120.392 451.851 119.73 452.111 118.652L450.16 118.181L448.209 117.71ZM450.47 125.445C450.73 124.367 450.068 123.283 448.99 123.023C447.913 122.762 446.829 123.425 446.568 124.502L448.519 124.974L450.47 125.445ZM444.927 131.295C444.667 132.373 445.33 133.457 446.407 133.717C447.485 133.978 448.569 133.315 448.829 132.238L446.878 131.766L444.927 131.295ZM447.189 139.03C447.449 137.953 446.786 136.868 445.709 136.608C444.631 136.348 443.547 137.01 443.287 138.088L445.238 138.559L447.189 139.03ZM441.646 144.881C441.385 145.958 442.048 147.043 443.125 147.303C444.203 147.563 445.287 146.901 445.548 145.823L443.597 145.352L441.646 144.881ZM443.907 152.616C444.167 151.538 443.505 150.454 442.427 150.194C441.35 149.933 440.265 150.596 440.005 151.673L441.956 152.145L443.907 152.616ZM438.364 158.466C438.104 159.543 438.766 160.628 439.844 160.888C440.921 161.149 442.006 160.486 442.266 159.409L440.315 158.937L438.364 158.466ZM440.625 166.201C440.885 165.124 440.223 164.039 439.145 163.779C438.068 163.519 436.984 164.181 436.723 165.259L438.674 165.73L440.625 166.201ZM435.082 172.051C434.822 173.129 435.485 174.213 436.562 174.474C437.64 174.734 438.724 174.071 438.984 172.994L437.033 172.523L435.082 172.051ZM437.344 179.787C437.604 178.709 436.941 177.625 435.864 177.364C434.786 177.104 433.702 177.767 433.442 178.844L435.393 179.315L437.344 179.787ZM431.801 185.637C431.54 186.714 432.203 187.799 433.28 188.059C434.358 188.319 435.442 187.657 435.703 186.579L433.752 186.108L431.801 185.637ZM434.062 193.372C434.322 192.295 433.66 191.21 432.582 190.95C431.505 190.69 430.42 191.352 430.16 192.43L432.111 192.901L434.062 193.372ZM428.519 199.222C428.259 200.3 428.921 201.384 429.999 201.645C431.076 201.905 432.161 201.242 432.421 200.165L430.47 199.694L428.519 199.222ZM430.78 206.958C431.04 205.88 430.378 204.796 429.3 204.535C428.223 204.275 427.138 204.937 426.878 206.015L428.829 206.486L430.78 206.958ZM425.237 212.808C424.977 213.885 425.64 214.97 426.717 215.23C427.795 215.49 428.879 214.828 429.139 213.75L427.188 213.279L425.237 212.808ZM427.498 220.543C427.759 219.465 427.096 218.381 426.019 218.121C424.941 217.86 423.857 218.523 423.597 219.6L425.548 220.072L427.498 220.543ZM421.956 226.393C421.695 227.471 422.358 228.555 423.435 228.815C424.513 229.076 425.597 228.413 425.858 227.336L423.907 226.864L421.956 226.393ZM424.217 234.128C424.477 233.051 423.815 231.966 422.737 231.706C421.66 231.446 420.575 232.108 420.315 233.186L422.266 233.657L424.217 234.128ZM418.674 239.979C418.414 241.056 419.076 242.141 420.154 242.401C421.231 242.661 422.316 241.999 422.576 240.921L420.625 240.45L418.674 239.979ZM420.935 247.714C421.195 246.636 420.533 245.552 419.455 245.292C418.378 245.031 417.293 245.694 417.033 246.771L418.984 247.243L420.935 247.714ZM415.392 253.564C415.132 254.641 415.795 255.726 416.872 255.986C417.95 256.247 419.034 255.584 419.294 254.507L417.343 254.035L415.392 253.564ZM417.653 261.299C417.914 260.222 417.251 259.137 416.174 258.877C415.096 258.617 414.012 259.279 413.752 260.357L415.703 260.828L417.653 261.299ZM412.111 267.149C411.85 268.227 412.513 269.311 413.59 269.572C414.668 269.832 415.752 269.169 416.013 268.092L414.062 267.621L412.111 267.149ZM414.372 274.885C414.632 273.807 413.97 272.723 412.892 272.462C411.815 272.202 410.73 272.865 410.47 273.942L412.421 274.413L414.372 274.885ZM408.829 280.735C408.569 281.812 409.231 282.897 410.309 283.157C411.386 283.417 412.471 282.755 412.731 281.677L410.78 281.206L408.829 280.735ZM411.09 288.47C411.35 287.393 410.688 286.308 409.61 286.048C408.533 285.788 407.448 286.45 407.188 287.528L409.139 287.999L411.09 288.47ZM410.515 293.158C411.622 293.089 412.463 292.136 412.393 291.03C412.324 289.923 411.371 289.082 410.265 289.152L410.39 291.155L410.515 293.158ZM414.835 289.337C413.737 289.181 412.721 289.945 412.565 291.042C412.409 292.14 413.173 293.156 414.27 293.312L414.552 291.324L414.835 289.337ZM419.554 294.489C420.631 294.747 421.715 294.083 421.974 293.005C422.232 291.927 421.568 290.844 420.49 290.585L420.022 292.537L419.554 294.489ZM427.332 292.227C426.254 291.969 425.171 292.633 424.912 293.711C424.653 294.788 425.318 295.872 426.395 296.131L426.864 294.179L427.332 292.227ZM433.237 297.772C434.315 298.031 435.399 297.367 435.657 296.289C435.916 295.211 435.252 294.128 434.174 293.869L433.706 295.821L433.237 297.772ZM441.016 295.511C439.938 295.252 438.855 295.916 438.596 296.994C438.337 298.072 439.001 299.156 440.079 299.414L440.548 297.463L441.016 295.511ZM446.921 301.056C447.999 301.315 449.082 300.651 449.341 299.573C449.6 298.495 448.936 297.411 447.858 297.153L447.389 299.104L446.921 301.056ZM454.7 298.795C453.622 298.536 452.538 299.2 452.28 300.278C452.021 301.356 452.685 302.439 453.763 302.698L454.231 300.746L454.7 298.795ZM460.605 304.34C461.683 304.599 462.766 303.934 463.025 302.857C463.284 301.779 462.619 300.695 461.542 300.437L461.073 302.388L460.605 304.34ZM468.384 302.078C467.306 301.82 466.222 302.484 465.963 303.562C465.705 304.64 466.369 305.723 467.447 305.982L467.915 304.03L468.384 302.078ZM474.289 307.624C475.367 307.882 476.45 307.218 476.709 306.14C476.967 305.062 476.303 303.979 475.225 303.72L474.757 305.672L474.289 307.624ZM482.067 305.362C480.989 305.103 479.906 305.768 479.647 306.845C479.389 307.923 480.053 309.007 481.131 309.265L481.599 307.314L482.067 305.362ZM487.823 305.079C488.083 304.002 487.421 302.917 486.343 302.657C485.266 302.397 484.181 303.059 483.921 304.137L485.872 304.608L487.823 305.079ZM485.625 297.084C485.364 298.161 486.027 299.246 487.104 299.506C488.182 299.766 489.266 299.104 489.527 298.026L487.576 297.555L485.625 297.084ZM491.23 290.973C491.491 289.896 490.828 288.811 489.751 288.551C488.673 288.291 487.589 288.953 487.328 290.031L489.279 290.502L491.23 290.973ZM489.032 282.977C488.772 284.055 489.434 285.139 490.512 285.4C491.589 285.66 492.674 284.997 492.934 283.92L490.983 283.449L489.032 282.977ZM494.638 276.867C494.898 275.789 494.236 274.705 493.158 274.445C492.081 274.184 490.996 274.847 490.736 275.924L492.687 276.396L494.638 276.867ZM492.44 268.871C492.179 269.949 492.842 271.033 493.919 271.293C494.997 271.554 496.081 270.891 496.342 269.814L494.391 269.342L492.44 268.871ZM498.045 262.76C498.306 261.683 497.643 260.598 496.566 260.338C495.488 260.078 494.404 260.74 494.143 261.818L496.094 262.289L498.045 262.76ZM495.847 254.765C495.587 255.842 496.249 256.927 497.327 257.187C498.404 257.447 499.489 256.785 499.749 255.707L497.798 255.236L495.847 254.765ZM501.453 248.654C501.713 247.577 501.051 246.492 499.973 246.232C498.896 245.972 497.811 246.634 497.551 247.712L499.502 248.183L501.453 248.654ZM499.255 240.658C498.994 241.736 499.657 242.82 500.734 243.081C501.812 243.341 502.896 242.678 503.156 241.601L501.206 241.13L499.255 240.658ZM504.86 234.548C505.121 233.47 504.458 232.386 503.381 232.126C502.303 231.865 501.219 232.528 500.958 233.605L502.909 234.077L504.86 234.548ZM502.662 226.552C502.402 227.63 503.064 228.714 504.142 228.974C505.219 229.235 506.304 228.572 506.564 227.495L504.613 227.023L502.662 226.552ZM508.268 220.441C508.528 219.364 507.866 218.28 506.788 218.019C505.711 217.759 504.626 218.421 504.366 219.499L506.317 219.97L508.268 220.441ZM506.07 212.446C505.809 213.523 506.472 214.608 507.549 214.868C508.627 215.128 509.711 214.466 509.971 213.388L508.021 212.917L506.07 212.446ZM511.675 206.335C511.936 205.258 511.273 204.173 510.196 203.913C509.118 203.653 508.034 204.315 507.773 205.393L509.724 205.864L511.675 206.335ZM509.477 198.339C509.217 199.417 509.879 200.501 510.957 200.762C512.034 201.022 513.119 200.36 513.379 199.282L511.428 198.811L509.477 198.339ZM515.083 192.229C515.343 191.151 514.681 190.067 513.603 189.807C512.526 189.546 511.441 190.209 511.181 191.286L513.132 191.758L515.083 192.229ZM512.885 184.233C512.624 185.311 513.287 186.395 514.364 186.655C515.442 186.916 516.526 186.253 516.786 185.176L514.835 184.704L512.885 184.233ZM518.49 178.123C518.751 177.045 518.088 175.961 517.011 175.7C515.933 175.44 514.849 176.102 514.588 177.18L516.539 177.651L518.49 178.123ZM516.292 170.127C516.032 171.204 516.694 172.289 517.772 172.549C518.849 172.809 519.934 172.147 520.194 171.069L518.243 170.598L516.292 170.127ZM521.898 164.016C522.158 162.939 521.496 161.854 520.418 161.594C519.341 161.334 518.256 161.996 517.996 163.074L519.947 163.545L521.898 164.016ZM519.7 156.02C519.439 157.098 520.102 158.182 521.179 158.443C522.257 158.703 523.341 158.041 523.601 156.963L521.65 156.492L519.7 156.02ZM525.305 149.91C525.566 148.832 524.903 147.748 523.826 147.488C522.748 147.227 521.664 147.89 521.403 148.967L523.354 149.439L525.305 149.91ZM523.107 141.914C522.847 142.992 523.509 144.076 524.587 144.336C525.664 144.597 526.749 143.934 527.009 142.857L525.058 142.385L523.107 141.914ZM524.561 134.805C523.758 134.04 522.488 134.072 521.724 134.875C520.959 135.678 520.991 136.948 521.794 137.713L523.178 136.259L524.561 134.805ZM516.329 132.512C517.132 133.276 518.403 133.245 519.167 132.442C519.931 131.639 519.899 130.368 519.096 129.604L517.713 131.058L516.329 132.512ZM513.632 124.404C512.829 123.639 511.558 123.671 510.794 124.474C510.03 125.277 510.061 126.547 510.864 127.312L512.248 125.858L513.632 124.404ZM505.4 122.111C506.203 122.875 507.473 122.844 508.237 122.041C509.001 121.238 508.97 119.967 508.167 119.203L506.783 120.657L505.4 122.111ZM502.702 114.003C501.899 113.238 500.629 113.27 499.865 114.073C499.101 114.876 499.132 116.146 499.935 116.91L501.319 115.457L502.702 114.003ZM494.47 111.71C495.273 112.474 496.544 112.443 497.308 111.64C498.072 110.837 498.041 109.566 497.238 108.802L495.854 110.256L494.47 111.71ZM392.488 348.382C392.228 349.459 392.891 350.544 393.968 350.804C395.046 351.064 396.13 350.402 396.39 349.325L394.439 348.853L392.488 348.382ZM394.638 356.579C394.898 355.502 394.236 354.417 393.158 354.157C392.081 353.897 390.996 354.559 390.736 355.637L392.687 356.108L394.638 356.579ZM392.823 361.723C393.931 361.702 394.813 360.787 394.791 359.678C394.77 358.57 393.854 357.689 392.746 357.71L392.785 359.717L392.823 361.723ZM394.694 357.673C393.586 357.694 392.705 358.61 392.726 359.718C392.747 360.826 393.663 361.707 394.771 361.686L394.733 359.679L394.694 357.673ZM397.69 356.023C397.675 354.915 396.764 354.029 395.656 354.043C394.547 354.058 393.661 354.969 393.676 356.077L395.683 356.05L397.69 356.023ZM393.482 348.914C393.527 350.022 394.462 350.883 395.569 350.838C396.677 350.793 397.538 349.858 397.493 348.75L395.488 348.832L393.482 348.914ZM493.122 107.656L494.505 106.202C493.595 105.335 492.684 104.468 491.773 103.602L490.389 105.055L489.006 106.509C489.916 107.376 490.827 108.243 491.738 109.11L493.122 107.656ZM484.925 99.8549L486.308 98.4009C484.486 96.6674 482.665 94.9339 480.843 93.2005L479.46 94.6545L478.076 96.1085C479.898 97.8419 481.719 99.5754 483.541 101.309L484.925 99.8549ZM473.995 89.4543L475.378 88.0003C473.556 86.2668 471.735 84.5334 469.913 82.8L468.529 84.254L467.146 85.7081C468.968 87.4414 470.789 89.1749 472.611 90.9083L473.995 89.4543ZM463.065 79.0537L464.448 77.5997C463.537 76.733 462.627 75.8663 461.716 74.9995L460.332 76.4535L458.948 77.9074C459.859 78.7742 460.77 79.6409 461.681 80.5077L463.065 79.0537ZM460.332 76.4535L459.765 74.5282L456.147 75.5944L456.714 77.5196L457.281 79.4449L460.899 78.3787L460.332 76.4535ZM449.478 79.6519L448.91 77.7267L441.674 79.859L442.241 81.7842L442.809 83.7095L450.045 81.5772L449.478 79.6519ZM435.005 83.9165L434.438 81.9913L427.201 84.1236L427.769 86.0488L428.336 87.974L435.572 85.8418L435.005 83.9165ZM420.532 88.1811L419.965 86.2558L416.347 87.322L416.914 89.2472L417.481 91.1725L421.099 90.1063L420.532 88.1811ZM416.914 89.2472L416.347 87.322C415.141 87.6774 413.935 88.0328 412.729 88.3883L413.296 90.3135L413.863 92.2387C415.069 91.8833 416.275 91.5279 417.481 91.1725L416.914 89.2472ZM406.06 92.4459L405.492 90.5206C403.08 91.2314 400.668 91.9422 398.256 92.653L398.823 94.5782L399.391 96.5035C401.803 95.7927 404.215 95.0819 406.627 94.3711L406.06 92.4459ZM391.587 96.7106L391.02 94.7854C388.608 95.4962 386.196 96.207 383.783 96.9179L384.351 98.8431L384.918 100.768C387.33 100.057 389.742 99.3466 392.154 98.6359L391.587 96.7106ZM377.115 100.976L376.547 99.0506C375.341 99.406 374.135 99.7615 372.929 100.117L373.497 102.042L374.064 103.967C375.27 103.612 376.476 103.256 377.682 102.901L377.115 100.976ZM373.497 102.042L371.546 101.571L370.733 104.937L372.684 105.408L374.635 105.879L375.448 102.513L373.497 102.042ZM371.058 112.139L369.107 111.668L367.481 118.399L369.432 118.87L371.383 119.342L373.009 112.61L371.058 112.139ZM367.806 125.601L365.855 125.13L364.229 131.861L366.18 132.333L368.131 132.804L369.757 126.073L367.806 125.601ZM364.554 139.064L362.603 138.593L360.977 145.324L362.928 145.795L364.879 146.266L366.505 139.535L364.554 139.064ZM361.302 152.526L359.351 152.055L357.725 158.786L359.676 159.258L361.627 159.729L363.253 152.998L361.302 152.526ZM358.05 165.989L356.099 165.518L354.473 172.249L356.424 172.72L358.375 173.191L360.001 166.46L358.05 165.989ZM354.798 179.451L352.847 178.98L351.221 185.711L353.172 186.182L355.123 186.654L356.749 179.923L354.798 179.451ZM351.546 192.914L349.595 192.442L347.969 199.174L349.92 199.645L351.871 200.116L353.497 193.385L351.546 192.914ZM348.294 206.376L346.343 205.905L344.717 212.636L346.668 213.107L348.619 213.579L350.245 206.847L348.294 206.376ZM345.042 219.839L343.091 219.367L341.465 226.099L343.416 226.57L345.367 227.041L346.993 220.31L345.042 219.839ZM341.79 233.301L339.839 232.83L338.213 239.561L340.164 240.032L342.115 240.504L343.741 233.772L341.79 233.301ZM338.538 246.763L336.587 246.292L334.961 253.023L336.912 253.495L338.863 253.966L340.489 247.235L338.538 246.763ZM335.286 260.226L333.335 259.755L331.709 266.486L333.66 266.957L335.611 267.428L337.237 260.697L335.286 260.226ZM332.034 273.688L330.083 273.217L328.457 279.948L330.408 280.42L332.359 280.891L333.985 274.16L332.034 273.688ZM328.782 287.151L326.831 286.679L325.205 293.411L327.156 293.882L329.107 294.353L330.733 287.622L328.782 287.151ZM325.53 300.613L323.579 300.142L321.953 306.873L323.904 307.344L325.855 307.816L327.481 301.084L325.53 300.613ZM322.278 314.076L320.327 313.604L318.701 320.336L320.652 320.807L322.603 321.278L324.229 314.547L322.278 314.076ZM319.026 327.538L317.075 327.067L315.449 333.798L317.4 334.269L319.351 334.741L320.977 328.009L319.026 327.538ZM315.774 341.001L313.823 340.529L312.197 347.26L314.148 347.732L316.099 348.203L317.725 341.472L315.774 341.001ZM312.522 354.463L310.571 353.992L308.945 360.723L310.896 361.194L312.847 361.665L314.473 354.934L312.522 354.463ZM309.27 367.925L307.319 367.454L305.693 374.185L307.644 374.657L309.595 375.128L311.221 368.397L309.27 367.925ZM306.018 381.388L304.067 380.917L302.441 387.648L304.392 388.119L306.343 388.59L307.969 381.859L306.018 381.388ZM302.766 394.85L300.815 394.379L299.189 401.11L301.14 401.582L303.091 402.053L304.717 395.322L302.766 394.85ZM299.514 408.313L297.563 407.842L295.938 414.573L297.888 415.044L299.839 415.515L301.465 408.784L299.514 408.313ZM296.263 421.775L294.312 421.304L292.686 428.035L294.637 428.507L296.588 428.978L298.213 422.247L296.263 421.775ZM293.011 435.238L291.06 434.767L289.434 441.498L291.385 441.969L293.336 442.44L294.962 435.709L293.011 435.238ZM289.759 448.7L287.808 448.229L286.995 451.595L288.946 452.066L290.897 452.537L291.71 449.172L289.759 448.7ZM288.946 452.066L288.446 454.01C289.243 454.215 290.041 454.42 290.838 454.624L291.337 452.68L291.836 450.736C291.039 450.532 290.242 450.327 289.445 450.122L288.946 452.066ZM296.12 453.907L295.622 455.851C296.419 456.056 297.216 456.26 298.013 456.464L298.512 454.52L299.01 452.576C298.213 452.372 297.416 452.167 296.619 451.963L296.12 453.907ZM298.512 454.52L300.463 454.992L301.295 451.546L299.344 451.075L297.393 450.603L296.561 454.049L298.512 454.52ZM301.009 444.183L302.96 444.654L304.624 437.763L302.673 437.292L300.722 436.82L299.058 443.712L301.009 444.183ZM304.338 430.4L306.289 430.872L307.954 423.98L306.003 423.509L304.052 423.038L302.387 429.929L304.338 430.4ZM307.667 416.618L309.618 417.089L311.283 410.197L309.332 409.726L307.381 409.255L305.716 416.146L307.667 416.618ZM310.997 402.835L312.948 403.306L314.612 396.415L312.661 395.943L310.71 395.472L309.046 402.363L310.997 402.835ZM314.326 389.052L316.277 389.523L317.942 382.632L315.991 382.161L314.04 381.689L312.375 388.581L314.326 389.052ZM317.655 375.269L319.606 375.74L321.271 368.849L319.32 368.378L317.369 367.906L315.704 374.798L317.655 375.269ZM320.985 361.486L322.936 361.958L324.6 355.066L322.649 354.595L320.699 354.124L319.034 361.015L320.985 361.486ZM324.314 347.704L326.265 348.175L327.93 341.283L325.979 340.812L324.028 340.341L322.363 347.232L324.314 347.704ZM327.644 333.921L329.594 334.392L331.259 327.501L329.308 327.029L327.357 326.558L325.693 333.449L327.644 333.921ZM330.973 320.138L332.924 320.609L334.589 313.718L332.638 313.247L330.687 312.775L329.022 319.667L330.973 320.138ZM334.302 306.355L336.253 306.826L337.918 299.935L335.967 299.464L334.016 298.992L332.351 305.884L334.302 306.355ZM337.632 292.572L339.583 293.044L341.247 286.152L339.296 285.681L337.345 285.21L335.681 292.101L337.632 292.572ZM340.961 278.789L342.912 279.261L344.577 272.369L342.626 271.898L340.675 271.427L339.01 278.318L340.961 278.789ZM344.29 265.007L346.241 265.478L347.906 258.587L345.955 258.115L344.004 257.644L342.339 264.535L344.29 265.007ZM347.62 251.224L349.571 251.695L351.235 244.804L349.284 244.332L347.333 243.861L345.669 250.753L347.62 251.224ZM350.949 237.441L352.9 237.912L354.565 231.021L352.614 230.55L350.663 230.078L348.998 236.97L350.949 237.441ZM354.278 223.658L356.229 224.129L357.894 217.238L355.943 216.767L353.992 216.296L352.327 223.187L354.278 223.658ZM357.608 209.875L359.559 210.347L361.223 203.455L359.272 202.984L357.321 202.513L355.657 209.404L357.608 209.875ZM360.937 196.093L362.888 196.564L364.553 189.672L362.602 189.201L360.651 188.73L358.986 195.621L360.937 196.093ZM364.266 182.31L366.217 182.781L367.882 175.89L365.931 175.418L363.98 174.947L362.315 181.839L364.266 182.31ZM367.596 168.527L369.547 168.998L371.211 162.107L369.26 161.636L367.309 161.164L365.645 168.056L367.596 168.527ZM370.925 154.744L372.876 155.216L374.541 148.324L372.59 147.853L370.639 147.382L368.974 154.273L370.925 154.744ZM374.254 140.961L376.205 141.433L377.87 134.541L375.919 134.07L373.968 133.599L372.303 140.49L374.254 140.961ZM377.584 127.179L379.535 127.65L381.199 120.759L379.248 120.287L377.297 119.816L375.633 126.707L377.584 127.179ZM380.913 113.396L382.864 113.867L383.696 110.421L381.745 109.95L379.794 109.479L378.962 112.925L380.913 113.396ZM381.745 109.95L382.313 111.875C383.366 111.565 384.418 111.255 385.471 110.944L384.904 109.019L384.336 107.094C383.283 107.404 382.231 107.715 381.178 108.025L381.745 109.95ZM391.22 107.157L391.787 109.083C393.893 108.462 395.998 107.842 398.104 107.221L397.536 105.296L396.969 103.371C394.863 103.991 392.758 104.612 390.652 105.232L391.22 107.157ZM403.853 103.435L404.42 105.36C406.526 104.74 408.631 104.119 410.737 103.499L410.169 101.574L409.602 99.6483C407.497 100.269 405.391 100.889 403.286 101.509L403.853 103.435ZM416.486 99.7124L417.053 101.638C418.106 101.327 419.159 101.017 420.211 100.707L419.644 98.7818L419.077 96.8566C418.024 97.1668 416.971 97.477 415.919 97.7872L416.486 99.7124ZM419.644 98.7818L420.211 100.707L423.37 99.7764L422.802 97.8511L422.235 95.9259L419.077 96.8566L419.644 98.7818ZM429.119 95.9898L429.686 97.915L436.003 96.0537L435.436 94.1284L434.868 92.2032L428.552 94.0645L429.119 95.9898ZM441.752 92.2671L442.32 94.1923L448.636 92.331L448.069 90.4057L447.502 88.4805L441.185 90.3418L441.752 92.2671ZM454.386 88.5444L454.953 90.4696L458.111 89.539L457.544 87.6137L456.976 85.6885L453.818 86.6191L454.386 88.5444ZM457.544 87.6137L455.593 87.1424L454.772 90.5388L456.723 91.0101L458.674 91.4813L459.495 88.085L457.544 87.6137ZM455.083 97.8028L453.132 97.3315L451.491 104.124L453.442 104.596L455.393 105.067L457.034 98.2741L455.083 97.8028ZM451.801 111.388L449.85 110.917L448.209 117.71L450.16 118.181L452.111 118.652L453.752 111.86L451.801 111.388ZM448.519 124.974L446.568 124.502L444.927 131.295L446.878 131.766L448.829 132.238L450.47 125.445L448.519 124.974ZM445.238 138.559L443.287 138.088L441.646 144.881L443.597 145.352L445.548 145.823L447.189 139.03L445.238 138.559ZM441.956 152.145L440.005 151.673L438.364 158.466L440.315 158.937L442.266 159.409L443.907 152.616L441.956 152.145ZM438.674 165.73L436.723 165.259L435.082 172.051L437.033 172.523L438.984 172.994L440.625 166.201L438.674 165.73ZM435.393 179.315L433.442 178.844L431.801 185.637L433.752 186.108L435.703 186.579L437.344 179.787L435.393 179.315ZM432.111 192.901L430.16 192.43L428.519 199.222L430.47 199.694L432.421 200.165L434.062 193.372L432.111 192.901ZM428.829 206.486L426.878 206.015L425.237 212.808L427.188 213.279L429.139 213.75L430.78 206.958L428.829 206.486ZM425.548 220.072L423.597 219.6L421.956 226.393L423.907 226.864L425.858 227.336L427.498 220.543L425.548 220.072ZM422.266 233.657L420.315 233.186L418.674 239.979L420.625 240.45L422.576 240.921L424.217 234.128L422.266 233.657ZM418.984 247.243L417.033 246.771L415.392 253.564L417.343 254.035L419.294 254.507L420.935 247.714L418.984 247.243ZM415.703 260.828L413.752 260.357L412.111 267.149L414.062 267.621L416.013 268.092L417.653 261.299L415.703 260.828ZM412.421 274.413L410.47 273.942L408.829 280.735L410.78 281.206L412.731 281.677L414.372 274.885L412.421 274.413ZM409.139 287.999L407.188 287.528L406.368 290.924L408.319 291.395L410.27 291.866L411.09 288.47L409.139 287.999ZM408.319 291.395L408.657 293.374C409.269 293.269 409.889 293.197 410.515 293.158L410.39 291.155L410.265 289.152C409.496 289.2 408.734 289.288 407.981 289.417L408.319 291.395ZM414.552 291.324L414.27 293.312C414.886 293.399 415.507 293.518 416.132 293.668L416.601 291.716L417.07 289.764C416.324 289.585 415.578 289.443 414.835 289.337L414.552 291.324ZM416.601 291.716L416.133 293.668L419.554 294.489L420.022 292.537L420.49 290.585L417.069 289.764L416.601 291.716ZM426.864 294.179L426.395 296.131L433.237 297.772L433.706 295.821L434.174 293.869L427.332 292.227L426.864 294.179ZM440.548 297.463L440.079 299.414L446.921 301.056L447.389 299.104L447.858 297.153L441.016 295.511L440.548 297.463ZM454.231 300.746L453.763 302.698L460.605 304.34L461.073 302.388L461.542 300.437L454.7 298.795L454.231 300.746ZM467.915 304.03L467.447 305.982L474.289 307.624L474.757 305.672L475.225 303.72L468.384 302.078L467.915 304.03ZM481.599 307.314L481.131 309.265L484.552 310.086L485.02 308.135L485.488 306.183L482.067 305.362L481.599 307.314ZM485.02 308.135L486.971 308.606L487.823 305.079L485.872 304.608L483.921 304.137L483.069 307.663L485.02 308.135ZM487.576 297.555L489.527 298.026L491.23 290.973L489.279 290.502L487.328 290.031L485.625 297.084L487.576 297.555ZM490.983 283.449L492.934 283.92L494.638 276.867L492.687 276.396L490.736 275.924L489.032 282.977L490.983 283.449ZM494.391 269.342L496.342 269.814L498.045 262.76L496.094 262.289L494.143 261.818L492.44 268.871L494.391 269.342ZM497.798 255.236L499.749 255.707L501.453 248.654L499.502 248.183L497.551 247.712L495.847 254.765L497.798 255.236ZM501.206 241.13L503.156 241.601L504.86 234.548L502.909 234.077L500.958 233.605L499.255 240.658L501.206 241.13ZM504.613 227.023L506.564 227.495L508.268 220.441L506.317 219.97L504.366 219.499L502.662 226.552L504.613 227.023ZM508.021 212.917L509.971 213.388L511.675 206.335L509.724 205.864L507.773 205.393L506.07 212.446L508.021 212.917ZM511.428 198.811L513.379 199.282L515.083 192.229L513.132 191.758L511.181 191.286L509.477 198.339L511.428 198.811ZM514.835 184.704L516.786 185.176L518.49 178.123L516.539 177.651L514.588 177.18L512.885 184.233L514.835 184.704ZM518.243 170.598L520.194 171.069L521.898 164.016L519.947 163.545L517.996 163.074L516.292 170.127L518.243 170.598ZM521.65 156.492L523.601 156.963L525.305 149.91L523.354 149.439L521.403 148.967L519.7 156.02L521.65 156.492ZM525.058 142.385L527.009 142.857L527.861 139.33L525.91 138.859L523.959 138.388L523.107 141.914L525.058 142.385ZM525.91 138.859L527.294 137.405L524.561 134.805L523.178 136.259L521.794 137.713L524.526 140.313L525.91 138.859ZM517.713 131.058L519.096 129.604L513.632 124.404L512.248 125.858L510.864 127.312L516.329 132.512L517.713 131.058ZM506.783 120.657L508.167 119.203L502.702 114.003L501.319 115.457L499.935 116.91L505.4 122.111L506.783 120.657ZM495.854 110.256L497.238 108.802L494.505 106.202L493.122 107.656L491.738 109.11L494.47 111.71L495.854 110.256ZM395.316 345.226L393.365 344.755L392.488 348.382L394.439 348.853L396.39 349.325L397.266 345.697L395.316 345.226ZM392.687 356.108L390.736 355.637L389.86 359.264L391.811 359.735L393.762 360.207L394.638 356.579L392.687 356.108ZM391.811 359.735L391.849 361.742L392.823 361.723L392.785 359.717L392.746 357.71L391.772 357.729L391.811 359.735ZM394.733 359.679L394.771 361.686L395.745 361.667L395.707 359.661L395.668 357.654L394.694 357.673L394.733 359.679ZM395.707 359.661L397.714 359.661C397.714 358.449 397.706 357.236 397.69 356.023L395.683 356.05L393.676 356.077C393.692 357.272 393.7 358.466 393.7 359.66L395.707 359.661ZM395.488 348.832L397.493 348.75C397.444 347.539 397.386 346.328 397.32 345.116L395.316 345.226L393.311 345.335C393.377 346.528 393.433 347.721 393.482 348.914L395.488 348.832Z" fill="#EFC692"/>
<path d="M308.702 303.96L334.623 328.627L325.288 367.271C324.945 367.649 324.61 368.041 324.286 368.45C320.384 373.384 319.03 379.214 320.354 385.363C320.443 385.776 320.53 386.19 320.618 386.604L303.88 455.897C290.935 452.594 277.929 449.202 264.899 445.941C262.642 436.52 256.309 427.058 248.964 419.302L280.648 288.134L250.688 296.964C240.701 299.906 230.712 302.85 220.725 305.792L199.338 394.332C197.593 394.04 195.835 393.775 194.067 393.532C193.229 393.416 192.373 393.309 191.503 393.205L214.132 299.522C225.573 296.149 237.013 292.779 248.455 289.407L282.779 279.291C291.421 287.515 300.061 295.736 308.702 303.96Z" fill="#00A86B"/>
<path d="M308.702 303.96L307.318 305.414L307.318 305.414L308.702 303.96ZM334.623 328.627L336.574 329.099C336.742 328.402 336.526 327.668 336.007 327.174L334.623 328.627ZM325.288 367.271L326.773 368.622C327 368.372 327.16 368.07 327.239 367.742L325.288 367.271ZM324.286 368.45L322.712 367.205L322.712 367.205L324.286 368.45ZM320.354 385.363L318.392 385.786L318.392 385.787L320.354 385.363ZM320.618 386.604L322.569 387.075C322.64 386.782 322.644 386.477 322.581 386.183L320.618 386.604ZM303.88 455.897L303.384 457.842C303.904 457.974 304.456 457.893 304.915 457.616C305.375 457.339 305.705 456.89 305.831 456.368L303.88 455.897ZM264.899 445.941L262.947 446.409C263.122 447.136 263.686 447.707 264.412 447.888L264.899 445.941ZM248.964 419.302L247.013 418.831C246.853 419.492 247.039 420.189 247.506 420.682L248.964 419.302ZM280.648 288.134L282.599 288.606C282.768 287.909 282.551 287.175 282.032 286.68C281.512 286.186 280.769 286.006 280.081 286.209L280.648 288.134ZM250.688 296.964L251.255 298.889L251.255 298.889L250.688 296.964ZM220.725 305.792L220.158 303.867C219.47 304.07 218.943 304.624 218.774 305.321L220.725 305.792ZM199.338 394.332L199.007 396.311C200.046 396.485 201.042 395.826 201.289 394.803L199.338 394.332ZM194.067 393.532L193.793 395.52L193.793 395.52L194.067 393.532ZM191.503 393.205L189.552 392.733C189.417 393.29 189.527 393.879 189.854 394.35C190.181 394.82 190.694 395.129 191.263 395.197L191.503 393.205ZM214.132 299.522L213.565 297.597C212.877 297.8 212.35 298.354 212.181 299.051L214.132 299.522ZM248.455 289.407L249.023 291.332L249.023 291.332L248.455 289.407ZM282.779 279.291L284.163 277.837C283.644 277.343 282.9 277.163 282.212 277.366L282.779 279.291ZM307.925 300.45C307.122 299.686 305.852 299.718 305.088 300.521C304.324 301.323 304.355 302.594 305.158 303.358L306.542 301.904L307.925 300.45ZM300.838 299.247C301.641 300.011 302.911 299.979 303.675 299.176C304.44 298.373 304.408 297.103 303.605 296.339L302.221 297.793L300.838 299.247ZM299.285 292.227C298.482 291.463 297.211 291.495 296.447 292.298C295.683 293.101 295.714 294.371 296.517 295.135L297.901 293.681L299.285 292.227ZM292.197 291.024C293 291.788 294.27 291.756 295.034 290.953C295.799 290.15 295.767 288.88 294.964 288.116L293.581 289.57L292.197 291.024ZM290.644 284.004C289.841 283.24 288.57 283.272 287.806 284.075C287.042 284.878 287.073 286.148 287.876 286.912L289.26 285.458L290.644 284.004ZM283.556 282.801C284.359 283.565 285.629 283.533 286.394 282.73C287.158 281.927 287.126 280.657 286.323 279.893L284.94 281.347L283.556 282.801ZM279.352 278.209C278.288 278.522 277.681 279.638 277.994 280.701C278.307 281.765 279.423 282.372 280.487 282.059L279.919 280.134L279.352 278.209ZM274.766 283.745C275.829 283.432 276.437 282.316 276.124 281.252C275.81 280.189 274.694 279.581 273.631 279.895L274.198 281.82L274.766 283.745ZM267.91 281.581C266.847 281.894 266.239 283.01 266.553 284.073C266.866 285.137 267.982 285.744 269.045 285.431L268.478 283.506L267.91 281.581ZM263.324 287.117C264.388 286.804 264.996 285.688 264.682 284.624C264.369 283.561 263.253 282.953 262.19 283.267L262.757 285.192L263.324 287.117ZM256.469 284.953C255.406 285.266 254.798 286.382 255.111 287.445C255.425 288.509 256.541 289.116 257.604 288.803L257.036 286.878L256.469 284.953ZM251.883 290.489C252.946 290.176 253.554 289.06 253.241 287.996C252.928 286.933 251.812 286.325 250.748 286.639L251.316 288.564L251.883 290.489ZM245.028 288.325C243.964 288.638 243.357 289.754 243.67 290.817C243.983 291.88 245.099 292.488 246.162 292.175L245.595 290.25L245.028 288.325ZM240.442 293.861C241.505 293.547 242.113 292.431 241.8 291.368C241.486 290.305 240.371 289.697 239.307 290.01L239.875 291.935L240.442 293.861ZM233.587 291.696C232.523 292.009 231.915 293.125 232.229 294.188C232.542 295.252 233.658 295.86 234.721 295.546L234.154 293.621L233.587 291.696ZM229.001 297.232C230.064 296.919 230.672 295.803 230.359 294.74C230.045 293.676 228.929 293.068 227.866 293.382L228.433 295.307L229.001 297.232ZM222.146 295.068C221.082 295.381 220.474 296.497 220.788 297.56C221.101 298.623 222.217 299.231 223.28 298.918L222.713 296.993L222.146 295.068ZM217.56 300.604C218.623 300.291 219.231 299.175 218.918 298.111C218.604 297.048 217.488 296.44 216.425 296.754L216.993 298.679L217.56 300.604ZM211.373 302.397C211.113 303.474 211.775 304.559 212.853 304.819C213.93 305.079 215.015 304.417 215.275 303.339L213.324 302.868L211.373 302.397ZM213.659 310.031C213.919 308.953 213.257 307.869 212.179 307.608C211.102 307.348 210.017 308.011 209.757 309.088L211.708 309.559L213.659 310.031ZM208.14 315.78C207.88 316.857 208.543 317.942 209.62 318.202C210.698 318.462 211.782 317.8 212.042 316.722L210.091 316.251L208.14 315.78ZM210.426 323.414C210.686 322.336 210.024 321.252 208.946 320.992C207.869 320.731 206.784 321.394 206.524 322.471L208.475 322.943L210.426 323.414ZM204.908 329.163C204.647 330.24 205.31 331.325 206.387 331.585C207.465 331.846 208.549 331.183 208.81 330.106L206.859 329.634L204.908 329.163ZM207.193 336.797C207.453 335.72 206.791 334.635 205.713 334.375C204.636 334.115 203.551 334.777 203.291 335.855L205.242 336.326L207.193 336.797ZM201.675 342.546C201.414 343.624 202.077 344.708 203.154 344.968C204.232 345.229 205.316 344.566 205.577 343.489L203.626 343.017L201.675 342.546ZM203.96 350.18C204.221 349.103 203.558 348.018 202.481 347.758C201.403 347.498 200.319 348.16 200.058 349.238L202.009 349.709L203.96 350.18ZM198.442 355.929C198.182 357.007 198.844 358.091 199.922 358.352C200.999 358.612 202.084 357.949 202.344 356.872L200.393 356.401L198.442 355.929ZM200.727 363.564C200.988 362.486 200.325 361.402 199.248 361.141C198.17 360.881 197.086 361.544 196.825 362.621L198.776 363.092L200.727 363.564ZM195.209 369.313C194.949 370.39 195.611 371.475 196.689 371.735C197.766 371.995 198.851 371.333 199.111 370.255L197.16 369.784L195.209 369.313ZM197.495 376.947C197.755 375.869 197.092 374.785 196.015 374.525C194.937 374.264 193.853 374.927 193.593 376.004L195.544 376.476L197.495 376.947ZM191.976 382.696C191.716 383.773 192.378 384.858 193.456 385.118C194.533 385.378 195.618 384.716 195.878 383.638L193.927 383.167L191.976 382.696ZM194.262 390.33C194.522 389.253 193.86 388.168 192.782 387.908C191.705 387.647 190.62 388.31 190.36 389.387L192.311 389.859L194.262 390.33ZM191.899 395.275C192.999 395.41 194.001 394.628 194.136 393.527C194.272 392.427 193.489 391.426 192.389 391.29L192.144 393.282L191.899 395.275ZM193.689 391.455C192.59 391.311 191.581 392.084 191.436 393.183C191.292 394.282 192.065 395.29 193.164 395.435L193.426 393.445L193.689 391.455ZM195.1 395.704C196.197 395.863 197.215 395.102 197.373 394.004C197.532 392.907 196.771 391.89 195.673 391.731L195.387 393.718L195.1 395.704ZM198.338 392.135C197.243 391.961 196.214 392.707 196.04 393.802C195.866 394.897 196.612 395.925 197.707 396.099L198.022 394.117L198.338 392.135ZM202.18 391.114C202.44 390.036 201.778 388.952 200.7 388.692C199.623 388.431 198.538 389.094 198.278 390.171L200.229 390.643L202.18 391.114ZM200.06 382.793C199.8 383.87 200.463 384.955 201.54 385.215C202.618 385.475 203.702 384.813 203.962 383.736L202.011 383.264L200.06 382.793ZM205.745 376.357C206.005 375.28 205.342 374.195 204.265 373.935C203.187 373.675 202.103 374.337 201.843 375.415L203.794 375.886L205.745 376.357ZM203.625 368.036C203.365 369.114 204.027 370.198 205.105 370.459C206.182 370.719 207.267 370.056 207.527 368.979L205.576 368.508L203.625 368.036ZM209.309 361.601C209.569 360.523 208.907 359.439 207.829 359.178C206.752 358.918 205.667 359.581 205.407 360.658L207.358 361.129L209.309 361.601ZM207.189 353.28C206.929 354.357 207.592 355.442 208.669 355.702C209.747 355.962 210.831 355.3 211.091 354.222L209.14 353.751L207.189 353.28ZM212.874 346.844C213.134 345.767 212.471 344.682 211.394 344.422C210.317 344.162 209.232 344.824 208.972 345.902L210.923 346.373L212.874 346.844ZM210.754 338.523C210.494 339.601 211.156 340.685 212.234 340.945C213.311 341.206 214.396 340.543 214.656 339.466L212.705 338.995L210.754 338.523ZM216.438 332.088C216.699 331.01 216.036 329.926 214.959 329.665C213.881 329.405 212.797 330.067 212.536 331.145L214.487 331.616L216.438 332.088ZM214.319 323.767C214.058 324.844 214.721 325.929 215.798 326.189C216.876 326.449 217.96 325.787 218.221 324.709L216.27 324.238L214.319 323.767ZM220.003 317.331C220.263 316.253 219.601 315.169 218.523 314.909C217.446 314.648 216.361 315.311 216.101 316.388L218.052 316.86L220.003 317.331ZM217.883 309.01C217.623 310.088 218.285 311.172 219.363 311.432C220.44 311.693 221.525 311.03 221.785 309.953L219.834 309.481L217.883 309.01ZM225.038 306.614C226.101 306.301 226.709 305.185 226.396 304.122C226.083 303.058 224.967 302.45 223.903 302.764L224.471 304.689L225.038 306.614ZM231.394 300.556C230.331 300.87 229.723 301.986 230.036 303.049C230.349 304.112 231.465 304.72 232.529 304.407L231.961 302.482L231.394 300.556ZM240.019 302.199C241.082 301.886 241.69 300.77 241.377 299.707C241.064 298.644 239.948 298.036 238.884 298.349L239.452 300.274L240.019 302.199ZM246.375 296.142C245.312 296.455 244.704 297.571 245.017 298.634C245.33 299.698 246.446 300.306 247.51 299.992L246.942 298.067L246.375 296.142ZM255 297.785C256.063 297.472 256.671 296.356 256.358 295.293C256.045 294.229 254.929 293.621 253.865 293.935L254.433 295.86L255 297.785ZM261.356 291.727C260.292 292.041 259.684 293.157 259.998 294.22C260.311 295.283 261.427 295.891 262.49 295.578L261.923 293.653L261.356 291.727ZM269.98 293.371C271.044 293.057 271.652 291.941 271.338 290.878C271.025 289.815 269.909 289.207 268.846 289.52L269.413 291.445L269.98 293.371ZM276.336 287.313C275.273 287.626 274.665 288.742 274.978 289.805C275.291 290.869 276.407 291.477 277.471 291.163L276.903 289.238L276.336 287.313ZM277.905 290.942C277.645 292.02 278.307 293.104 279.385 293.365C280.462 293.625 281.547 292.962 281.807 291.885L279.856 291.414L277.905 290.942ZM280.223 298.443C280.483 297.366 279.821 296.281 278.743 296.021C277.666 295.761 276.581 296.423 276.321 297.501L278.272 297.972L280.223 298.443ZM274.737 304.059C274.476 305.137 275.139 306.221 276.216 306.481C277.294 306.742 278.378 306.079 278.639 305.002L276.688 304.53L274.737 304.059ZM277.054 311.56C277.315 310.483 276.652 309.398 275.575 309.138C274.497 308.878 273.413 309.54 273.152 310.618L275.103 311.089L277.054 311.56ZM271.568 317.176C271.308 318.253 271.97 319.338 273.048 319.598C274.125 319.858 275.21 319.196 275.47 318.118L273.519 317.647L271.568 317.176ZM273.886 324.677C274.146 323.599 273.484 322.515 272.406 322.255C271.329 321.994 270.244 322.657 269.984 323.734L271.935 324.206L273.886 324.677ZM268.4 330.293C268.14 331.37 268.802 332.455 269.88 332.715C270.957 332.975 272.041 332.313 272.302 331.235L270.351 330.764L268.4 330.293ZM270.718 337.794C270.978 336.716 270.315 335.632 269.238 335.371C268.16 335.111 267.076 335.774 266.816 336.851L268.767 337.322L270.718 337.794ZM265.231 343.409C264.971 344.487 265.634 345.571 266.711 345.832C267.789 346.092 268.873 345.43 269.133 344.352L267.182 343.881L265.231 343.409ZM267.549 350.91C267.809 349.833 267.147 348.748 266.069 348.488C264.992 348.228 263.907 348.89 263.647 349.968L265.598 350.439L267.549 350.91ZM262.063 356.526C261.803 357.604 262.465 358.688 263.543 358.949C264.62 359.209 265.705 358.546 265.965 357.469L264.014 356.998L262.063 356.526ZM264.381 364.027C264.641 362.95 263.978 361.865 262.901 361.605C261.823 361.345 260.739 362.007 260.479 363.085L262.43 363.556L264.381 364.027ZM258.894 369.643C258.634 370.721 259.297 371.805 260.374 372.065C261.452 372.326 262.536 371.663 262.796 370.586L260.845 370.114L258.894 369.643ZM261.212 377.144C261.472 376.066 260.81 374.982 259.732 374.722C258.655 374.461 257.57 375.124 257.31 376.201L259.261 376.673L261.212 377.144ZM255.726 382.76C255.466 383.837 256.128 384.922 257.206 385.182C258.283 385.442 259.368 384.78 259.628 383.702L257.677 383.231L255.726 382.76ZM258.044 390.261C258.304 389.183 257.641 388.099 256.564 387.839C255.486 387.578 254.402 388.241 254.142 389.318L256.093 389.789L258.044 390.261ZM252.557 395.877C252.297 396.954 252.96 398.039 254.037 398.299C255.115 398.559 256.199 397.897 256.459 396.819L254.508 396.348L252.557 395.877ZM254.875 403.378C255.135 402.3 254.473 401.216 253.395 400.955C252.318 400.695 251.234 401.358 250.973 402.435L252.924 402.906L254.875 403.378ZM249.389 408.993C249.129 410.071 249.791 411.155 250.869 411.416C251.946 411.676 253.031 411.013 253.291 409.936L251.34 409.465L249.389 408.993ZM251.707 416.494C251.967 415.417 251.305 414.332 250.227 414.072C249.15 413.812 248.065 414.474 247.805 415.552L249.756 416.023L251.707 416.494ZM250.08 423.523C250.805 424.361 252.073 424.452 252.911 423.726C253.749 423 253.84 421.733 253.114 420.895L251.597 422.209L250.08 423.523ZM258.08 427.216C257.44 426.311 256.188 426.096 255.283 426.737C254.378 427.377 254.163 428.629 254.803 429.534L256.442 428.375L258.08 427.216ZM258.827 435.981C259.354 436.956 260.572 437.319 261.547 436.792C262.522 436.265 262.886 435.047 262.359 434.072L260.593 435.026L258.827 435.981ZM265.683 441.519C265.317 440.473 264.173 439.921 263.126 440.287C262.08 440.653 261.528 441.798 261.894 442.844L263.789 442.182L265.683 441.519ZM267.661 448.704C268.736 448.975 269.827 448.323 270.097 447.248C270.368 446.173 269.716 445.082 268.641 444.811L268.151 446.758L267.661 448.704ZM275.146 446.459C274.072 446.185 272.979 446.835 272.706 447.909C272.433 448.983 273.082 450.076 274.156 450.349L274.651 448.404L275.146 446.459ZM280.65 452.008C281.724 452.283 282.817 451.635 283.092 450.562C283.367 449.488 282.72 448.394 281.646 448.119L281.148 450.064L280.65 452.008ZM288.142 449.787C287.069 449.511 285.975 450.158 285.699 451.231C285.423 452.305 286.069 453.399 287.143 453.675L287.643 451.731L288.142 449.787ZM293.637 455.344C294.711 455.62 295.805 454.973 296.081 453.9C296.357 452.826 295.71 451.732 294.636 451.456L294.137 453.4L293.637 455.344ZM301.13 453.122C300.056 452.847 298.962 453.495 298.687 454.569C298.413 455.643 299.06 456.736 300.134 457.011L300.632 455.067L301.13 453.122ZM306.668 452.903C306.928 451.826 306.266 450.741 305.188 450.481C304.111 450.221 303.026 450.883 302.766 451.961L304.717 452.432L306.668 452.903ZM304.44 445.031C304.18 446.109 304.842 447.193 305.92 447.454C306.997 447.714 308.081 447.052 308.342 445.974L306.391 445.503L304.44 445.031ZM310.016 439.045C310.276 437.967 309.613 436.883 308.536 436.622C307.458 436.362 306.374 437.025 306.114 438.102L308.065 438.573L310.016 439.045ZM307.787 431.173C307.527 432.25 308.19 433.335 309.267 433.595C310.345 433.855 311.429 433.193 311.689 432.115L309.738 431.644L307.787 431.173ZM313.363 425.186C313.624 424.109 312.961 423.024 311.884 422.764C310.806 422.504 309.722 423.166 309.461 424.244L311.412 424.715L313.363 425.186ZM311.135 417.314C310.875 418.392 311.537 419.476 312.615 419.736C313.692 419.997 314.777 419.334 315.037 418.257L313.086 417.785L311.135 417.314ZM316.711 411.327C316.971 410.25 316.309 409.165 315.231 408.905C314.154 408.645 313.069 409.307 312.809 410.385L314.76 410.856L316.711 411.327ZM314.483 403.456C314.223 404.533 314.885 405.618 315.962 405.878C317.04 406.138 318.124 405.476 318.385 404.398L316.434 403.927L314.483 403.456ZM320.059 397.469C320.319 396.391 319.656 395.307 318.579 395.047C317.501 394.786 316.417 395.449 316.157 396.526L318.108 396.998L320.059 397.469ZM317.83 389.597C317.57 390.674 318.233 391.759 319.31 392.019C320.388 392.279 321.472 391.617 321.732 390.54L319.781 390.068L317.83 389.597ZM322.516 385.877C322.286 384.793 321.22 384.1 320.136 384.33C319.051 384.56 318.359 385.626 318.589 386.71L320.552 386.294L322.516 385.877ZM318.458 386.091C318.689 387.176 319.755 387.867 320.839 387.636C321.923 387.405 322.615 386.339 322.384 385.255L320.421 385.673L318.458 386.091ZM321.868 380.9C321.865 379.791 320.964 378.895 319.855 378.899C318.747 378.902 317.851 379.804 317.854 380.912L319.861 380.906L321.868 380.9ZM320.079 371.342C319.587 372.336 319.993 373.54 320.986 374.032C321.979 374.524 323.184 374.117 323.676 373.124L321.877 372.233L320.079 371.342ZM326.08 369.422C326.784 368.565 326.659 367.301 325.802 366.598C324.945 365.894 323.681 366.019 322.977 366.876L324.529 368.149L326.08 369.422ZM323.523 366.234C322.791 367.066 322.872 368.334 323.704 369.066C324.537 369.798 325.805 369.717 326.537 368.885L325.03 367.559L323.523 366.234ZM328.017 364.522C328.277 363.444 327.615 362.36 326.537 362.1C325.46 361.839 324.375 362.502 324.115 363.579L326.066 364.051L328.017 364.522ZM325.671 357.139C325.411 358.216 326.073 359.301 327.151 359.561C328.228 359.821 329.313 359.159 329.573 358.081L327.622 357.61L325.671 357.139ZM331.129 351.641C331.389 350.563 330.727 349.479 329.649 349.219C328.572 348.958 327.487 349.621 327.227 350.698L329.178 351.169L331.129 351.641ZM328.783 344.258C328.522 345.335 329.185 346.42 330.262 346.68C331.34 346.94 332.424 346.278 332.684 345.2L330.734 344.729L328.783 344.258ZM334.24 338.76C334.501 337.682 333.838 336.598 332.761 336.337C331.683 336.077 330.599 336.74 330.338 337.817L332.289 338.288L334.24 338.76ZM331.894 331.377C331.634 332.454 332.296 333.538 333.374 333.799C334.451 334.059 335.536 333.397 335.796 332.319L333.845 331.848L331.894 331.377ZM333.847 325.118C333.044 324.354 331.773 324.385 331.009 325.188C330.245 325.991 330.276 327.262 331.079 328.026L332.463 326.572L333.847 325.118ZM326.759 323.915C327.562 324.679 328.832 324.647 329.597 323.844C330.361 323.041 330.329 321.771 329.526 321.007L328.143 322.461L326.759 323.915ZM325.206 316.895C324.403 316.131 323.133 316.163 322.369 316.966C321.604 317.769 321.636 319.039 322.439 319.803L323.823 318.349L325.206 316.895ZM318.119 315.692C318.922 316.456 320.192 316.425 320.956 315.622C321.721 314.819 321.689 313.548 320.886 312.784L319.502 314.238L318.119 315.692ZM316.566 308.673C315.763 307.909 314.492 307.94 313.728 308.743C312.964 309.546 312.996 310.817 313.799 311.581L315.182 310.127L316.566 308.673ZM309.478 307.469C310.281 308.234 311.552 308.202 312.316 307.399C313.08 306.596 313.049 305.326 312.246 304.562L310.862 306.016L309.478 307.469ZM308.702 303.96L310.086 302.506C309.366 301.821 308.646 301.135 307.925 300.45L306.542 301.904L305.158 303.358C305.878 304.043 306.598 304.729 307.318 305.414L308.702 303.96ZM302.221 297.793L303.605 296.339C302.165 294.968 300.725 293.598 299.285 292.227L297.901 293.681L296.517 295.135C297.957 296.506 299.398 297.876 300.838 299.247L302.221 297.793ZM293.581 289.57L294.964 288.116C293.524 286.745 292.084 285.375 290.644 284.004L289.26 285.458L287.876 286.912C289.317 288.283 290.757 289.653 292.197 291.024L293.581 289.57ZM284.94 281.347L286.323 279.893C285.603 279.207 284.883 278.522 284.163 277.837L282.779 279.291L281.396 280.745C282.116 281.43 282.836 282.115 283.556 282.801L284.94 281.347ZM282.779 279.291L282.212 277.366L279.352 278.209L279.919 280.134L280.487 282.059L283.347 281.216L282.779 279.291ZM274.198 281.82L273.631 279.895L267.91 281.581L268.478 283.506L269.045 285.431L274.766 283.745L274.198 281.82ZM262.757 285.192L262.19 283.267L256.469 284.953L257.036 286.878L257.604 288.803L263.324 287.117L262.757 285.192ZM251.316 288.564L250.748 286.639L247.888 287.482L248.455 289.407L249.023 291.332L251.883 290.489L251.316 288.564ZM248.455 289.407L247.888 287.482C246.935 287.763 245.981 288.044 245.028 288.325L245.595 290.25L246.162 292.175C247.116 291.894 248.069 291.613 249.023 291.332L248.455 289.407ZM239.875 291.935L239.307 290.01C237.4 290.572 235.494 291.134 233.587 291.696L234.154 293.621L234.721 295.546C236.628 294.985 238.535 294.423 240.442 293.861L239.875 291.935ZM228.433 295.307L227.866 293.382C225.959 293.944 224.052 294.506 222.146 295.068L222.713 296.993L223.28 298.918C225.187 298.356 227.094 297.794 229.001 297.232L228.433 295.307ZM216.993 298.679L216.425 296.754C215.472 297.035 214.518 297.316 213.565 297.597L214.132 299.522L214.7 301.447C215.653 301.166 216.607 300.885 217.56 300.604L216.993 298.679ZM214.132 299.522L212.181 299.051L211.373 302.397L213.324 302.868L215.275 303.339L216.083 299.993L214.132 299.522ZM211.708 309.559L209.757 309.088L208.14 315.78L210.091 316.251L212.042 316.722L213.659 310.031L211.708 309.559ZM208.475 322.943L206.524 322.471L204.908 329.163L206.859 329.634L208.81 330.106L210.426 323.414L208.475 322.943ZM205.242 336.326L203.291 335.855L201.675 342.546L203.626 343.017L205.577 343.489L207.193 336.797L205.242 336.326ZM202.009 349.709L200.058 349.238L198.442 355.929L200.393 356.401L202.344 356.872L203.96 350.18L202.009 349.709ZM198.776 363.092L196.825 362.621L195.209 369.313L197.16 369.784L199.111 370.255L200.727 363.564L198.776 363.092ZM195.544 376.476L193.593 376.004L191.976 382.696L193.927 383.167L195.878 383.638L197.495 376.947L195.544 376.476ZM192.311 389.859L190.36 389.387L189.552 392.733L191.503 393.205L193.454 393.676L194.262 390.33L192.311 389.859ZM191.503 393.205L191.263 395.197C191.476 395.223 191.688 395.249 191.899 395.275L192.144 393.282L192.389 391.29C192.174 391.264 191.958 391.238 191.742 391.212L191.503 393.205ZM193.426 393.445L193.164 395.435C193.375 395.463 193.585 395.491 193.793 395.52L194.067 393.532L194.341 391.543C194.124 391.513 193.907 391.484 193.689 391.455L193.426 393.445ZM194.067 393.532L193.793 395.52C194.229 395.58 194.665 395.641 195.1 395.704L195.387 393.718L195.673 391.731C195.23 391.667 194.785 391.605 194.341 391.543L194.067 393.532ZM198.022 394.117L197.707 396.099C198.141 396.168 198.575 396.239 199.007 396.311L199.338 394.332L199.669 392.352C199.226 392.278 198.782 392.206 198.338 392.135L198.022 394.117ZM199.338 394.332L201.289 394.803L202.18 391.114L200.229 390.643L198.278 390.171L197.387 393.86L199.338 394.332ZM202.011 383.264L203.962 383.736L205.745 376.357L203.794 375.886L201.843 375.415L200.06 382.793L202.011 383.264ZM205.576 368.508L207.527 368.979L209.309 361.601L207.358 361.129L205.407 360.658L203.625 368.036L205.576 368.508ZM209.14 353.751L211.091 354.222L212.874 346.844L210.923 346.373L208.972 345.902L207.189 353.28L209.14 353.751ZM212.705 338.995L214.656 339.466L216.438 332.088L214.487 331.616L212.536 331.145L210.754 338.523L212.705 338.995ZM216.27 324.238L218.221 324.709L220.003 317.331L218.052 316.86L216.101 316.388L214.319 323.767L216.27 324.238ZM219.834 309.481L221.785 309.953L222.676 306.264L220.725 305.792L218.774 305.321L217.883 309.01L219.834 309.481ZM220.725 305.792L221.292 307.718C222.541 307.35 223.789 306.982 225.038 306.614L224.471 304.689L223.903 302.764C222.655 303.131 221.407 303.499 220.158 303.867L220.725 305.792ZM231.961 302.482L232.529 304.407C235.093 303.651 237.455 302.955 240.019 302.199L239.452 300.274L238.884 298.349C236.455 299.065 233.823 299.841 231.394 300.556L231.961 302.482ZM246.942 298.067L247.51 299.992C248.758 299.624 250.007 299.257 251.255 298.889L250.688 296.964L250.121 295.038C248.872 295.406 247.624 295.774 246.375 296.142L246.942 298.067ZM250.688 296.964L251.255 298.889L255 297.785L254.433 295.86L253.865 293.935L250.12 295.038L250.688 296.964ZM261.923 293.653L262.49 295.578L269.98 293.371L269.413 291.445L268.846 289.52L261.356 291.727L261.923 293.653ZM276.903 289.238L277.471 291.163L281.216 290.06L280.648 288.134L280.081 286.209L276.336 287.313L276.903 289.238ZM280.648 288.134L278.697 287.663L277.905 290.942L279.856 291.414L281.807 291.885L282.599 288.606L280.648 288.134ZM278.272 297.972L276.321 297.501L274.737 304.059L276.688 304.53L278.639 305.002L280.223 298.443L278.272 297.972ZM275.103 311.089L273.152 310.618L271.568 317.176L273.519 317.647L275.47 318.118L277.054 311.56L275.103 311.089ZM271.935 324.206L269.984 323.734L268.4 330.293L270.351 330.764L272.302 331.235L273.886 324.677L271.935 324.206ZM268.767 337.322L266.816 336.851L265.231 343.409L267.182 343.881L269.133 344.352L270.718 337.794L268.767 337.322ZM265.598 350.439L263.647 349.968L262.063 356.526L264.014 356.998L265.965 357.469L267.549 350.91L265.598 350.439ZM262.43 363.556L260.479 363.085L258.894 369.643L260.845 370.114L262.796 370.586L264.381 364.027L262.43 363.556ZM259.261 376.673L257.31 376.201L255.726 382.76L257.677 383.231L259.628 383.702L261.212 377.144L259.261 376.673ZM256.093 389.789L254.142 389.318L252.557 395.877L254.508 396.348L256.459 396.819L258.044 390.261L256.093 389.789ZM252.924 402.906L250.973 402.435L249.389 408.993L251.34 409.465L253.291 409.936L254.875 403.378L252.924 402.906ZM249.756 416.023L247.805 415.552L247.013 418.831L248.964 419.302L250.915 419.774L251.707 416.494L249.756 416.023ZM248.964 419.302L247.506 420.682C248.381 421.606 249.241 422.554 250.08 423.523L251.597 422.209L253.114 420.895C252.235 419.88 251.335 418.888 250.421 417.922L248.964 419.302ZM256.442 428.375L254.803 429.534C256.29 431.637 257.645 433.794 258.827 435.981L260.593 435.026L262.359 434.072C261.092 431.729 259.65 429.435 258.08 427.216L256.442 428.375ZM263.789 442.182L261.894 442.844C262.311 444.036 262.664 445.225 262.947 446.409L264.899 445.941L266.851 445.474C266.534 444.149 266.142 442.829 265.683 441.519L263.789 442.182ZM264.899 445.941L264.412 447.888C265.495 448.159 266.578 448.431 267.661 448.704L268.151 446.758L268.641 444.811C267.557 444.538 266.472 444.266 265.387 443.994L264.899 445.941ZM274.651 448.404L274.156 450.349C276.321 450.9 278.486 451.453 280.65 452.008L281.148 450.064L281.646 448.119C279.481 447.564 277.314 447.011 275.146 446.459L274.651 448.404ZM287.643 451.731L287.143 453.675C289.308 454.231 291.474 454.788 293.637 455.344L294.137 453.4L294.636 451.456C292.473 450.9 290.309 450.344 288.142 449.787L287.643 451.731ZM300.632 455.067L300.134 457.011C301.218 457.288 302.301 457.565 303.384 457.842L303.88 455.897L304.376 453.952C303.294 453.676 302.212 453.399 301.13 453.122L300.632 455.067ZM303.88 455.897L305.831 456.368L306.668 452.903L304.717 452.432L302.766 451.961L301.929 455.425L303.88 455.897ZM306.391 445.503L308.342 445.974L310.016 439.045L308.065 438.573L306.114 438.102L304.44 445.031L306.391 445.503ZM309.738 431.644L311.689 432.115L313.363 425.186L311.412 424.715L309.461 424.244L307.787 431.173L309.738 431.644ZM313.086 417.785L315.037 418.257L316.711 411.327L314.76 410.856L312.809 410.385L311.135 417.314L313.086 417.785ZM316.434 403.927L318.385 404.398L320.059 397.469L318.108 396.998L316.157 396.526L314.483 403.456L316.434 403.927ZM319.781 390.068L321.732 390.54L322.569 387.075L320.618 386.604L318.667 386.132L317.83 389.597L319.781 390.068ZM320.618 386.604L322.581 386.183C322.559 386.081 322.537 385.979 322.516 385.877L320.552 386.294L318.589 386.71C318.611 386.814 318.633 386.919 318.656 387.024L320.618 386.604ZM320.421 385.673L322.384 385.255C322.362 385.151 322.339 385.045 322.316 384.94L320.354 385.363L318.392 385.787C318.414 385.888 318.436 385.989 318.458 386.091L320.421 385.673ZM320.354 385.363L322.316 384.941C322.02 383.563 321.872 382.214 321.868 380.9L319.861 380.906L317.854 380.912C317.859 382.519 318.039 384.148 318.392 385.786L320.354 385.363ZM321.877 372.233L323.676 373.124C324.259 371.946 324.986 370.8 325.86 369.695L324.286 368.45L322.712 367.205C321.672 368.52 320.792 369.902 320.079 371.342L321.877 372.233ZM324.286 368.45L325.86 369.696C325.933 369.604 326.006 369.513 326.08 369.422L324.529 368.149L322.977 366.876C322.888 366.984 322.8 367.094 322.712 367.205L324.286 368.45ZM325.03 367.559L326.537 368.885C326.615 368.797 326.694 368.709 326.773 368.622L325.288 367.271L323.804 365.92C323.71 366.023 323.616 366.128 323.523 366.234L325.03 367.559ZM325.288 367.271L327.239 367.742L328.017 364.522L326.066 364.051L324.115 363.579L323.337 366.8L325.288 367.271ZM327.622 357.61L329.573 358.081L331.129 351.641L329.178 351.169L327.227 350.698L325.671 357.139L327.622 357.61ZM330.734 344.729L332.684 345.2L334.24 338.76L332.289 338.288L330.338 337.817L328.783 344.258L330.734 344.729ZM333.845 331.848L335.796 332.319L336.574 329.099L334.623 328.627L332.672 328.156L331.894 331.377L333.845 331.848ZM334.623 328.627L336.007 327.174L333.847 325.118L332.463 326.572L331.079 328.026L333.239 330.081L334.623 328.627ZM328.143 322.461L329.526 321.007L325.206 316.895L323.823 318.349L322.439 319.803L326.759 323.915L328.143 322.461ZM319.502 314.238L320.886 312.784L316.566 308.673L315.182 310.127L313.799 311.581L318.119 315.692L319.502 314.238ZM310.862 306.016L312.246 304.562L310.086 302.506L308.702 303.96L307.318 305.414L309.478 307.469L310.862 306.016Z" fill="#EFC692"/>
<path fill-rule="evenodd" clip-rule="evenodd" d="M69.9218 306.029L62.4507 336.958L58.2614 375.256C56.7705 401.881 61.4385 448.356 71.4279 473.159L87.4292 476.338C87.4292 476.338 118.034 481.818 128.931 495.167C138.012 506.291 165.704 598.345 174.681 628.717C251.974 667.102 313.102 663.589 311.729 658.929L303.251 630.163C303.174 629.886 303.09 629.605 303.005 629.324L302.896 628.956L302.892 628.953C302.605 628.02 302.282 627.065 301.922 626.085C299.069 618.334 297.026 610.559 294.58 603.186C289.703 588.479 284.845 573.202 280.135 558.196C272.087 532.558 274.665 536.525 244.473 526.608C225.148 520.261 211.01 514.887 200.981 499.571C194.185 489.192 183.275 465.989 191.628 453.536C196.321 446.542 203.536 443.463 213.493 445.74C224.025 448.149 234.914 451.412 245.45 453.385C246.14 444.363 231.376 429.103 222.992 423.684C184.761 398.976 121.359 434.591 142.566 346.394C154.974 294.785 181.87 256.32 223.151 227.946C226.567 225.598 236.756 220.139 238.758 217.601C215.86 222.998 169.211 257.515 151.458 277.928C145.507 284.769 132.588 298.575 128.298 306.795C128.322 306.663 128.352 306.529 128.38 306.396C128.246 306.759 128.099 307.114 127.97 307.479C128.511 304.802 129.104 302.126 129.75 299.453C152.141 206.757 227.869 139.311 322.163 115.616C242.549 118.244 163.719 155.138 111.257 226.193C97.4585 244.881 82.4857 271.341 74.7076 294.143C74.0398 296.098 73.3898 298.009 72.6873 299.945L69.9218 306.029Z" fill="#00A86B" stroke="#EFC692" stroke-width="4.01418" stroke-linecap="round" stroke-linejoin="round" stroke-dasharray="7.02 7.02"/>
<path fill-rule="evenodd" clip-rule="evenodd" d="M63.6955 479.801C64.0558 480.697 64.4247 481.568 64.7994 482.405C64.7994 482.405 87.7957 591.317 165.55 634.666C166.019 634.902 166.483 635.129 166.948 635.36C157.972 604.987 130.28 512.933 121.199 501.807C110.301 488.46 79.6968 482.98 79.6968 482.98L63.6955 479.801Z" fill="#00A86B" stroke="#EFC692" stroke-width="4.01418" stroke-linecap="round" stroke-linejoin="round" stroke-dasharray="7.02 7.02"/>
<path fill-rule="evenodd" clip-rule="evenodd" d="M352.378 535.891L333.018 491.497C328.307 483.553 321.193 481.13 310.293 478.402C281.57 471.21 237.844 459.71 211.452 454.498C206.591 453.54 203.081 454.097 200.051 457.022C193.28 463.558 202.393 485.692 206.697 492.191C218.314 509.733 230.541 512.659 253.766 519.907C291.248 531.603 281.709 539.639 295.804 577.529C303.025 596.94 311.176 627.218 318.126 647.373C321.475 657.082 323.823 661.443 338.478 660.833C382.349 659.004 421.878 648.658 458.598 628.66C476.241 619.051 482.386 614.49 498.245 602.838C537.073 574.315 576.736 539.092 595.878 494.119L481.575 386.463C461.836 470.039 390.188 538.383 366.36 559.236C361.032 552.673 356.309 544.942 352.378 535.891ZM536.934 548.515C533.628 550.291 520.507 562.949 500.738 573.663C462.293 594.496 402.413 601.895 367.489 560.611C465.47 502.027 494.113 433.33 494.113 433.33L569.099 503.086C561.924 519.136 550.415 537.177 536.934 548.515Z" fill="#00A86B" stroke="#EFC692" stroke-width="4.01418" stroke-linecap="round" stroke-linejoin="round" stroke-dasharray="7.02 7.02"/>
<path fill-rule="evenodd" clip-rule="evenodd" d="M361.849 542.48C361.849 542.48 433.864 434.636 411.876 311.401L558.349 346.55C558.349 346.55 564.232 388.446 539.535 433.446L527.209 421.834C533.791 398.36 537.794 391.525 535.665 369.206L441.315 346.426C441.315 346.426 444.052 458.965 361.849 542.48Z" fill="#00A86B" stroke="#EFC692" stroke-width="4.01418" stroke-linecap="round" stroke-linejoin="round" stroke-dasharray="7.02 7.02"/>
<path fill-rule="evenodd" clip-rule="evenodd" d="M349.648 535.752C349.648 535.752 363.656 489.394 340.255 380.982L409.175 379.651C409.516 384.93 409.432 392.423 408.384 402.991L370.022 405.455C370.022 405.455 375.94 472.738 349.648 535.752Z" fill="#00A86B" stroke="#EFC692" stroke-width="4.01418" stroke-linecap="round" stroke-linejoin="round" stroke-dasharray="7.02 7.02"/>
</svg>
