<svg width="637" height="4598" viewBox="0 0 637 4598" fill="none" xmlns="http://www.w3.org/2000/svg">
<path d="M-667.967 4533.99C-687.345 4553.84 -708.143 4572.09 -730.44 4588.8L-732.787 4585.55C-518.894 4425.48 -456.281 4122.54 -488.655 3908.81C-492.681 3882.03 -498.063 3854.38 -504.583 3826.6C-528.912 3722.69 -567.549 3625.13 -604.903 3530.8C-635.919 3452.36 -667.999 3371.31 -691.012 3288.36C-707.364 3229.25 -715.211 3177.09 -715.065 3128.99C-714.939 3060.64 -698.959 3000.4 -666.15 2944.79C-595.664 2825.71 -460.968 2751.7 -330.778 2680.16C-323.209 2676.01 -315.665 2671.82 -308.175 2667.72C-160.771 2586.41 -26.3419 2499.45 91.4249 2409.28C241.847 2294.04 367.309 2170.59 464.259 2042.35C543.564 1937.5 592.519 1843.69 614.082 1755.55C640.377 1647.9 622.526 1545.99 566.322 1483C507.048 1416.68 411.396 1391 318.848 1366.2C309.415 1363.67 299.981 1361.13 290.651 1358.57C110.048 1309.15 -39.9259 1240.94 -155.048 1155.91C-259.032 1079.09 -339.028 985.812 -392.82 878.757C-428.31 807.85 -450.914 731.16 -460.646 648.751C-487.627 423.532 -416.064 189.901 -264.277 7.85595L-260.862 10.0892C-411.76 191.058 -482.856 423.33 -456.058 647.349C-446.331 729.348 -423.862 805.627 -388.546 876.156C-334.979 982.769 -255.312 1075.64 -151.749 1152.17C-36.9594 1236.96 112.604 1304.97 292.742 1354.3C302.111 1356.83 311.506 1359.4 320.979 1361.9C414.002 1386.89 510.223 1412.63 570.129 1479.74C627.081 1543.58 645.206 1646.72 618.627 1755.63C596.909 1844.47 547.592 1938.88 467.847 2044.39C370.538 2173.07 244.692 2296.94 93.8108 2412.49C-24.1535 2502.82 -158.884 2589.98 -306.551 2671.45C-314.015 2675.57 -321.584 2679.73 -329.153 2683.89C-458.636 2755.01 -592.559 2828.61 -662.215 2946.29C-694.516 3001.08 -710.286 3060.53 -710.382 3128.03C-710.547 3175.79 -702.72 3227.59 -686.492 3286.39C-663.54 3369.18 -631.471 3450.14 -600.466 3528.48C-563.076 3622.94 -524.402 3720.63 -500.001 3824.79C-493.47 3852.66 -488.077 3880.41 -484.039 3907.28C-466.075 4025.99 -477.226 4156.3 -515.42 4274.28C-548.731 4376.98 -600.782 4465.4 -667.967 4533.99Z" stroke="#EE8812" stroke-width="11.8653" stroke-linecap="round" stroke-dasharray="24.92 24.92"/>
</svg>
