<svg width="1075" height="776" viewBox="0 0 1075 776" fill="none" xmlns="http://www.w3.org/2000/svg">
<path fill-rule="evenodd" clip-rule="evenodd" d="M347.795 48.8099C297.004 46.2287 236.661 77.5763 187.578 132.04C165.413 156.635 136.202 199.252 113.244 240.49C99.512 265.155 50.6278 361.763 51.2253 362.68C51.4823 363.077 73.7496 319.099 76.0573 314.665C95.2598 277.774 132.197 218.198 154.418 188.279C203.472 122.23 254.367 85.2014 303.827 79.5754C343.823 75.027 377.72 93.0764 401.014 131.328C431.129 180.779 440.305 255.315 427.666 347.817C424.27 372.674 407.188 449.926 404.821 451.137C404.067 451.521 386.96 447.927 366.804 443.147C322.544 432.651 138.019 391.564 143.625 393.539C149.064 395.456 235.218 417.785 306.967 436.305C339.675 444.747 374.561 453.783 384.493 456.385L402.55 461.118L400.385 467.162C399.193 470.487 397.986 473.357 397.704 473.541C397.421 473.726 325.921 453.725 238.815 429.095C100.443 389.97 15.5551 366.04 49.7579 377.719C51.9488 378.48 100.792 392.685 128.302 401.617C212.338 428.901 369.042 482.172 388.373 490.029L392.407 491.668L388.457 502.793C386.284 508.912 384.177 514.121 383.774 514.369C383.137 514.76 320.166 490.517 311.347 486.484C309.559 485.667 313.058 488.841 319.123 493.536C339.346 509.194 354.299 531.028 362.65 557.091C369.164 577.419 371.461 613.551 367.453 632.616C365.527 641.773 359.593 669.881 370.714 633.519C379.847 607.679 403.807 579.259 425.988 567.955C443.653 558.952 470.504 554.982 488.384 558.73C492.45 559.581 495.557 559.942 495.288 559.53C495.02 559.119 478.533 552.401 458.651 544.603C438.771 536.805 422.218 529.916 421.87 529.296C421.079 527.885 428.641 504.789 429.813 505.036C430.285 505.136 447.893 511.736 468.944 519.704C571.34 558.464 636.728 588.181 659.602 606.35L666.442 611.785L672.365 609.358C689.926 602.161 731.73 595.951 774.033 594.255C826.377 592.158 866.283 593.8 955.435 601.718C965.457 602.607 965.278 602.541 951.471 600.237C943.521 598.911 878.841 587.831 807.737 575.614L678.459 553.402L558.089 519.355C491.886 500.63 437.259 485.215 436.695 485.1C435.298 484.819 438.194 471.526 439.776 470.956C440.47 470.706 464.758 476.415 493.75 483.643C653.754 523.536 897.842 581.191 963.356 594.567L990.682 600.147L961.72 592.189C863.803 565.288 649.407 510.846 516.683 479.18C486.459 471.968 457.392 464.804 452.092 463.258L442.453 460.449L451.614 420.807C490.709 251.649 474.867 125.225 407.863 71.6625C392.463 59.3517 367.368 49.8044 347.795 48.8099ZM431.941 87.0379C448.873 100.504 465.226 124.401 474.81 149.685C487.878 184.158 494.325 235.38 492.194 287.796C490.689 324.819 489.144 348.181 470.465 451.109C469.54 456.793 476.336 424.566 481.299 399.746C490.391 354.282 493.247 335.322 495.652 304.439C503.545 203.103 481.988 125.144 435.924 88.4266C432.569 85.7522 428.378 82.8175 426.611 81.9046C424.844 80.9904 427.243 83.3006 431.941 87.0379ZM483.665 95.143C474.381 95.2199 460.481 96.9968 460.241 98.1361C460.148 98.5768 461.559 100.298 463.377 101.963C465.194 103.627 469.961 109.572 473.97 115.174L481.259 125.359L489.574 125.544C494.146 125.644 503.654 127.276 510.701 129.168C604.339 154.31 675.696 290.073 691.583 473.316C692.726 486.491 693.791 500.023 693.95 503.388C694.211 508.887 694.658 509.594 698.373 510.377C701.684 511.075 702.458 510.743 702.264 508.704C702.13 507.305 701.326 497.039 700.476 485.895C695.424 419.583 681.728 346.527 664.311 292.984C635.709 205.057 591.768 140.012 541.554 111.27C525.12 101.862 500.495 95.0019 483.665 95.143ZM556.763 113.489C592.687 130.027 624.977 164.299 648.146 210.478C679.101 272.179 696.971 347.556 708.158 463.623C709.95 482.221 711.864 514.283 712.234 514.042C713.782 513.034 709.007 431.009 704.865 395.597C692.706 291.669 661.879 206.641 618.348 156.961C600.086 136.121 574.383 117.57 555.967 111.94L548.319 109.601L556.763 113.489ZM317.688 98.8526C317.418 100.456 317.673 100.848 318.338 99.8519C318.94 98.9499 319.139 97.7621 318.782 97.2135C318.425 96.665 317.933 97.4021 317.688 98.8526ZM308.736 124.806C279.06 213.564 224.543 390.873 226.165 393.361C226.492 393.863 227.01 393.099 227.314 391.661C227.619 390.222 233.062 373.467 239.407 354.426C267.02 271.57 316.36 111.121 315.781 106.063C315.673 105.11 312.503 113.544 308.736 124.806ZM530.212 166.363C529.764 168.62 529.91 169.441 530.537 168.186C531.163 166.932 531.529 165.085 531.35 164.082C531.171 163.08 530.659 164.106 530.212 166.363ZM376.289 154.918C353.99 183.66 340.985 206.99 327.777 241.952C324.128 251.607 319.954 268.139 312.233 303.517C306.426 330.119 291.672 411.898 293.265 405.572C319.112 250.688 343.438 230.476 372.979 185.929C380.909 175.934 395.005 159.899 400.084 155.096C401.75 153.522 401.331 151.709 397.753 144.984C395.354 140.479 392.803 136.668 392.086 136.516C391.367 136.365 384.259 144.646 376.289 154.918ZM530.009 173.506C528.089 180.675 519.433 303.958 515.81 375.673C511.859 453.921 510.334 509.282 516.997 409.808C523.802 325.39 532.724 163.358 530.009 173.506ZM401.57 180.352C401.356 181.369 396.948 194.707 391.772 209.995C368.737 278.047 323.959 424.073 327.782 418.671C330.497 414.836 370.086 292.16 386.99 235.202C402.205 183.935 403.623 178.854 402.765 178.673C402.322 178.58 401.785 179.336 401.57 180.352ZM207.918 146.307C207.602 147.517 201.664 164.863 194.726 184.853C169.963 256.199 130.603 380.634 134.559 375.065C139.473 368.148 209.768 151.307 208.825 145.976C208.611 144.768 208.291 144.885 207.918 146.307ZM600.382 241.733C596.711 276.204 588.284 477.923 590.56 476.44C592.342 475.278 599.074 341.796 600.929 272.489C601.911 235.833 601.782 228.588 600.382 241.733Z" fill="#ED4F23" stroke="#ED4F23" stroke-width="6.67449" stroke-linecap="round" stroke-linejoin="round"/>
<path fill-rule="evenodd" clip-rule="evenodd" d="M347.795 48.8099C297.004 46.2287 236.661 77.5763 187.578 132.04C165.413 156.635 136.202 199.252 113.244 240.49C99.512 265.155 50.6278 361.763 51.2253 362.68C51.4823 363.077 73.7496 319.099 76.0573 314.665C95.2598 277.774 132.197 218.198 154.418 188.279C203.472 122.23 254.367 85.2014 303.827 79.5754C343.823 75.027 377.72 93.0764 401.014 131.328C431.129 180.779 440.305 255.315 427.666 347.817C424.27 372.674 407.188 449.926 404.821 451.137C404.067 451.521 386.96 447.927 366.804 443.147C322.544 432.651 138.019 391.564 143.625 393.539C149.064 395.456 235.218 417.785 306.967 436.305C339.675 444.747 374.561 453.783 384.493 456.385L402.55 461.118L400.385 467.162C399.193 470.487 397.986 473.357 397.704 473.541C397.421 473.726 325.921 453.725 238.815 429.095C100.443 389.97 15.5551 366.04 49.7579 377.719C51.9488 378.48 100.792 392.685 128.302 401.617C212.338 428.901 369.042 482.172 388.373 490.029L392.407 491.668L388.457 502.793C386.284 508.912 384.177 514.121 383.774 514.369C383.137 514.76 320.166 490.517 311.347 486.484C309.559 485.667 313.058 488.841 319.123 493.536C339.346 509.194 354.299 531.028 362.65 557.091C369.164 577.419 371.461 613.551 367.453 632.616C365.527 641.773 359.593 669.881 370.714 633.519C379.847 607.679 403.807 579.259 425.988 567.955C443.653 558.952 470.504 554.982 488.384 558.73C492.45 559.581 495.557 559.942 495.288 559.53C495.02 559.119 478.533 552.401 458.651 544.603C438.771 536.805 422.218 529.916 421.87 529.296C421.079 527.885 428.641 504.789 429.813 505.036C430.285 505.136 447.893 511.736 468.944 519.704C571.34 558.464 636.728 588.181 659.602 606.35L666.442 611.785L672.365 609.358C689.926 602.161 731.73 595.951 774.033 594.255C826.377 592.158 866.283 593.8 955.435 601.718C965.457 602.607 965.278 602.541 951.471 600.237C943.521 598.911 878.841 587.831 807.737 575.614L678.459 553.402L558.089 519.355C491.886 500.63 437.259 485.215 436.695 485.1C435.298 484.819 438.194 471.526 439.776 470.956C440.47 470.706 464.758 476.415 493.75 483.643C653.754 523.536 897.842 581.191 963.356 594.567L990.682 600.147L961.72 592.189C863.803 565.288 649.407 510.846 516.683 479.18C486.459 471.968 457.392 464.804 452.092 463.258L442.453 460.449L451.614 420.807C490.709 251.649 474.867 125.225 407.863 71.6625C392.463 59.3517 367.368 49.8044 347.795 48.8099ZM431.941 87.0379C448.873 100.504 465.226 124.401 474.81 149.685C487.878 184.158 494.325 235.38 492.194 287.796C490.689 324.819 489.144 348.181 470.465 451.109C469.54 456.793 476.336 424.566 481.299 399.746C490.391 354.282 493.247 335.322 495.652 304.439C503.545 203.103 481.988 125.144 435.924 88.4266C432.569 85.7522 428.378 82.8175 426.611 81.9046C424.844 80.9904 427.243 83.3006 431.941 87.0379ZM483.665 95.143C474.381 95.2199 460.481 96.9968 460.241 98.1361C460.148 98.5768 461.559 100.298 463.377 101.963C465.194 103.627 469.961 109.572 473.97 115.174L481.259 125.359L489.574 125.544C494.146 125.644 503.654 127.276 510.701 129.168C604.339 154.31 675.696 290.073 691.583 473.316C692.726 486.491 693.791 500.023 693.95 503.388C694.211 508.887 694.658 509.594 698.373 510.377C701.684 511.075 702.458 510.743 702.264 508.704C702.13 507.305 701.326 497.039 700.476 485.895C695.424 419.583 681.728 346.527 664.311 292.984C635.709 205.057 591.768 140.012 541.554 111.27C525.12 101.862 500.495 95.0019 483.665 95.143ZM556.763 113.489C592.687 130.027 624.977 164.299 648.146 210.478C679.101 272.179 696.971 347.556 708.158 463.623C709.95 482.221 711.864 514.283 712.234 514.042C713.782 513.034 709.007 431.009 704.865 395.597C692.706 291.669 661.879 206.641 618.348 156.961C600.086 136.121 574.383 117.57 555.967 111.94L548.319 109.601L556.763 113.489ZM317.688 98.8526C317.418 100.456 317.673 100.848 318.338 99.8519C318.94 98.9499 319.139 97.7621 318.782 97.2135C318.425 96.665 317.933 97.4021 317.688 98.8526ZM308.736 124.806C279.06 213.564 224.543 390.873 226.165 393.361C226.492 393.863 227.01 393.099 227.314 391.661C227.619 390.222 233.062 373.467 239.407 354.426C267.02 271.57 316.36 111.121 315.781 106.063C315.673 105.11 312.503 113.544 308.736 124.806ZM530.212 166.363C529.764 168.62 529.91 169.441 530.537 168.186C531.163 166.932 531.529 165.085 531.35 164.082C531.171 163.08 530.659 164.106 530.212 166.363ZM376.289 154.918C353.99 183.66 340.985 206.99 327.777 241.952C324.128 251.607 319.954 268.139 312.233 303.517C306.426 330.119 291.672 411.898 293.265 405.572C319.112 250.688 343.438 230.476 372.979 185.929C380.909 175.934 395.005 159.899 400.084 155.096C401.75 153.522 401.331 151.709 397.753 144.984C395.354 140.479 392.803 136.668 392.086 136.516C391.367 136.365 384.259 144.646 376.289 154.918ZM530.009 173.506C528.089 180.675 519.433 303.958 515.81 375.673C511.859 453.921 510.334 509.282 516.997 409.808C523.802 325.39 532.724 163.358 530.009 173.506ZM401.57 180.352C401.356 181.369 396.948 194.707 391.772 209.995C368.737 278.047 323.959 424.073 327.782 418.671C330.497 414.836 370.086 292.16 386.99 235.202C402.205 183.935 403.623 178.854 402.765 178.673C402.322 178.58 401.785 179.336 401.57 180.352ZM207.918 146.307C207.602 147.517 201.664 164.863 194.726 184.853C169.963 256.199 130.603 380.634 134.559 375.065C139.473 368.148 209.768 151.307 208.825 145.976C208.611 144.768 208.291 144.885 207.918 146.307ZM600.382 241.733C596.711 276.204 588.284 477.923 590.56 476.44C592.342 475.278 599.074 341.796 600.929 272.489C601.911 235.833 601.782 228.588 600.382 241.733Z" fill="#ED4F23" stroke="#F2A23A" stroke-width="4.44966" stroke-linecap="round" stroke-linejoin="round" stroke-dasharray="7.79 7.79"/>
</svg>
