<svg width="352" height="401" viewBox="0 0 352 401" fill="none" xmlns="http://www.w3.org/2000/svg">
<g filter="url(#filter0_dn_89_3536)">
<path d="M328.624 204.8C319.745 202.934 225.446 224.642 222.271 231.447C219.097 238.251 217.767 242.399 216.59 249.815C215.414 257.231 263.756 321.807 275.556 327.589C287.355 333.371 294.565 337.201 307.701 337.53C320.837 337.859 356.099 317.029 363.997 304.627C371.896 292.224 374.568 283.349 375.122 268.655C375.676 253.961 358.665 216.221 350.819 211.664C342.974 207.107 337.503 206.665 328.624 204.8Z" fill="url(#paint0_radial_89_3536)"/>
<path d="M328.624 204.8C319.745 202.934 225.446 224.642 222.271 231.447C219.097 238.251 217.767 242.399 216.59 249.815C215.414 257.231 263.756 321.807 275.556 327.589C287.355 333.371 294.565 337.201 307.701 337.53C320.837 337.859 356.099 317.029 363.997 304.627C371.896 292.224 374.568 283.349 375.122 268.655C375.676 253.961 358.665 216.221 350.819 211.664C342.974 207.107 337.503 206.665 328.624 204.8Z" stroke="#4A4A4A" stroke-width="12.8403"/>
</g>
<g filter="url(#filter1_dn_89_3536)">
<path d="M111.122 199.714L167.227 130.721M111.122 199.714L121.689 208.306M111.122 199.714L101.466 190.001M167.227 130.721L177.793 139.314M167.227 130.721L155.579 123.458M210.114 165.597L282.835 224.734L226.731 293.727L154.009 234.589M210.114 165.597L154.009 234.589M210.114 165.597L198.304 155.994M154.009 234.589L142.2 224.986M177.793 139.314L121.689 208.306M177.793 139.314L186.495 146.39M121.689 208.306L130.39 215.382M186.495 146.39L130.39 215.382M186.495 146.39L198.304 155.994M130.39 215.382L142.2 224.986M198.304 155.994L142.2 224.986M155.579 123.458L101.466 190.001M155.579 123.458L141.876 114.914M101.466 190.001L90.1066 178.575M141.876 114.914L63.7692 66.2084L25.3552 113.446L90.1066 178.575M141.876 114.914L90.1066 178.575" stroke="url(#paint1_linear_89_3536)" stroke-width="17.6248" shape-rendering="crispEdges"/>
</g>
<g filter="url(#filter2_dn_89_3536)">
<rect x="350.031" y="268.436" width="24.0338" height="136.191" rx="1.60225" transform="rotate(107.185 350.031 268.436)" fill="url(#paint2_linear_89_3536)"/>
<rect x="355.041" y="265.792" width="32.045" height="144.203" rx="5.60788" transform="rotate(107.185 355.041 265.792)" stroke="#595959" stroke-width="8.01126"/>
</g>
<defs>
<filter id="filter0_dn_89_3536" x="204.287" y="198.266" width="183.132" height="157.417" filterUnits="userSpaceOnUse" color-interpolation-filters="sRGB">
<feFlood flood-opacity="0" result="BackgroundImageFix"/>
<feColorMatrix in="SourceAlpha" type="matrix" values="0 0 0 0 0 0 0 0 0 0 0 0 0 0 0 0 0 0 127 0" result="hardAlpha"/>
<feOffset dy="5.86493"/>
<feGaussianBlur stdDeviation="2.93247"/>
<feComposite in2="hardAlpha" operator="out"/>
<feColorMatrix type="matrix" values="0 0 0 0 0 0 0 0 0 0 0 0 0 0 0 0 0 0 0.25 0"/>
<feBlend mode="normal" in2="BackgroundImageFix" result="effect1_dropShadow_89_3536"/>
<feBlend mode="normal" in="SourceGraphic" in2="BackgroundImageFix" result="shape"/>
<feTurbulence type="fractalNoise" baseFrequency="0.97431427240371704 0.97431427240371704" stitchTiles="stitch" numOctaves="3" result="noise" seed="7459" />
<feColorMatrix in="noise" type="luminanceToAlpha" result="alphaNoise" />
<feComponentTransfer in="alphaNoise" result="coloredNoise1">
<feFuncA type="discrete" tableValues="1 1 1 1 1 1 1 1 1 1 1 1 1 1 1 1 1 1 1 1 1 1 1 1 1 1 1 1 1 1 1 1 1 1 1 1 1 1 1 1 1 1 1 1 1 1 1 1 1 1 1 0 0 0 0 0 0 0 0 0 0 0 0 0 0 0 0 0 0 0 0 0 0 0 0 0 0 0 0 0 0 0 0 0 0 0 0 0 0 0 0 0 0 0 0 0 0 0 0 0 "/>
</feComponentTransfer>
<feComposite operator="in" in2="shape" in="coloredNoise1" result="noise1Clipped" />
<feFlood flood-color="rgba(0, 0, 0, 0.09)" result="color1Flood" />
<feComposite operator="in" in2="noise1Clipped" in="color1Flood" result="color1" />
<feMerge result="effect2_noise_89_3536">
<feMergeNode in="shape" />
<feMergeNode in="color1" />
</feMerge>
<feBlend mode="normal" in="effect2_noise_89_3536" in2="effect1_dropShadow_89_3536" result="effect2_noise_89_3536"/>
</filter>
<filter id="filter1_dn_89_3536" x="7.65019" y="54.6172" width="293.449" height="263.236" filterUnits="userSpaceOnUse" color-interpolation-filters="sRGB">
<feFlood flood-opacity="0" result="BackgroundImageFix"/>
<feColorMatrix in="SourceAlpha" type="matrix" values="0 0 0 0 0 0 0 0 0 0 0 0 0 0 0 0 0 0 127 0" result="hardAlpha"/>
<feOffset dy="5.86493"/>
<feGaussianBlur stdDeviation="2.93247"/>
<feComposite in2="hardAlpha" operator="out"/>
<feColorMatrix type="matrix" values="0 0 0 0 0 0 0 0 0 0 0 0 0 0 0 0 0 0 0.25 0"/>
<feBlend mode="normal" in2="BackgroundImageFix" result="effect1_dropShadow_89_3536"/>
<feBlend mode="normal" in="SourceGraphic" in2="BackgroundImageFix" result="shape"/>
<feTurbulence type="fractalNoise" baseFrequency="2.273399829864502 2.273399829864502" stitchTiles="stitch" numOctaves="3" result="noise" seed="230" />
<feColorMatrix in="noise" type="luminanceToAlpha" result="alphaNoise" />
<feComponentTransfer in="alphaNoise" result="coloredNoise1">
<feFuncA type="discrete" tableValues="1 1 1 1 1 1 1 1 1 1 1 1 1 1 1 1 1 1 1 1 1 1 1 1 1 1 1 1 1 1 1 1 1 1 1 1 1 1 1 1 1 1 1 1 1 1 1 1 1 1 1 0 0 0 0 0 0 0 0 0 0 0 0 0 0 0 0 0 0 0 0 0 0 0 0 0 0 0 0 0 0 0 0 0 0 0 0 0 0 0 0 0 0 0 0 0 0 0 0 0 "/>
</feComponentTransfer>
<feComposite operator="in" in2="shape" in="coloredNoise1" result="noise1Clipped" />
<feFlood flood-color="rgba(0, 0, 0, 0.25)" result="color1Flood" />
<feComposite operator="in" in2="noise1Clipped" in="color1Flood" result="color1" />
<feMerge result="effect2_noise_89_3536">
<feMergeNode in="shape" />
<feMergeNode in="color1" />
</feMerge>
<feBlend mode="normal" in="effect2_noise_89_3536" in2="effect1_dropShadow_89_3536" result="effect2_noise_89_3536"/>
</filter>
<filter id="filter2_dn_89_3536" x="199.342" y="220.586" width="164.167" height="90.1517" filterUnits="userSpaceOnUse" color-interpolation-filters="sRGB">
<feFlood flood-opacity="0" result="BackgroundImageFix"/>
<feColorMatrix in="SourceAlpha" type="matrix" values="0 0 0 0 0 0 0 0 0 0 0 0 0 0 0 0 0 0 127 0" result="hardAlpha"/>
<feOffset dy="5.86493"/>
<feGaussianBlur stdDeviation="2.93247"/>
<feComposite in2="hardAlpha" operator="out"/>
<feColorMatrix type="matrix" values="0 0 0 0 0 0 0 0 0 0 0 0 0 0 0 0 0 0 0.25 0"/>
<feBlend mode="normal" in2="BackgroundImageFix" result="effect1_dropShadow_89_3536"/>
<feBlend mode="normal" in="SourceGraphic" in2="BackgroundImageFix" result="shape"/>
<feTurbulence type="fractalNoise" baseFrequency="2.273399829864502 2.273399829864502" stitchTiles="stitch" numOctaves="3" result="noise" seed="7692" />
<feColorMatrix in="noise" type="luminanceToAlpha" result="alphaNoise" />
<feComponentTransfer in="alphaNoise" result="coloredNoise1">
<feFuncA type="discrete" tableValues="1 1 1 1 1 1 1 1 1 1 1 1 1 1 1 1 1 1 1 1 1 1 1 1 1 1 1 1 1 1 1 1 1 1 1 1 1 1 1 1 1 1 1 1 1 1 1 1 1 1 1 0 0 0 0 0 0 0 0 0 0 0 0 0 0 0 0 0 0 0 0 0 0 0 0 0 0 0 0 0 0 0 0 0 0 0 0 0 0 0 0 0 0 0 0 0 0 0 0 0 "/>
</feComponentTransfer>
<feComposite operator="in" in2="shape" in="coloredNoise1" result="noise1Clipped" />
<feFlood flood-color="rgba(0, 0, 0, 0.25)" result="color1Flood" />
<feComposite operator="in" in2="noise1Clipped" in="color1Flood" result="color1" />
<feMerge result="effect2_noise_89_3536">
<feMergeNode in="shape" />
<feMergeNode in="color1" />
</feMerge>
<feBlend mode="normal" in="effect2_noise_89_3536" in2="effect1_dropShadow_89_3536" result="effect2_noise_89_3536"/>
</filter>
<radialGradient id="paint0_radial_89_3536" cx="0" cy="0" r="1" gradientUnits="userSpaceOnUse" gradientTransform="translate(295.29 264.624) rotate(107.185) scale(68.124 80.3448)">
<stop stop-color="#D9D9D9"/>
<stop offset="1" stop-color="#737373"/>
</radialGradient>
<linearGradient id="paint1_linear_89_3536" x1="178.104" y1="139.567" x2="122" y2="208.559" gradientUnits="userSpaceOnUse">
<stop stop-color="#9B9B9B"/>
<stop offset="0.274038" stop-color="#C7C7C7"/>
<stop offset="1" stop-color="#9E9E9E"/>
</linearGradient>
<linearGradient id="paint2_linear_89_3536" x1="360.909" y1="269.26" x2="438.974" y2="319.199" gradientUnits="userSpaceOnUse">
<stop stop-color="#D9D9D9"/>
<stop offset="1" stop-color="#737373"/>
</linearGradient>
</defs>
</svg>
